#N canvas 52 129 1158 612 10;
#X obj 563 176 cnv 15 352 70 empty empty empty 20 12 0 14 -233017 -66577
0;
#X obj 248 361 tabwrite \$0-z;
#X obj 15 11 inlet;
#N canvas 402 160 859 453 initTables 0;
#X obj 399 15 r \$0-clear;
#X obj 291 15 r \$0-zSize;
#X obj 153 15 r \$0-ySize;
#X obj 15 15 r \$0-xSize;
#X msg 152 85 \; \$0-y resize \$1;
#X msg 15 85 \; \$0-x resize \$1;
#X msg 399 55 \; \$0-x resize 100 \; \$0-y resize 100 \; \$0-z resize
100 \; \$0-x const 0 \; \$0-y const 0 \; \$0-z const 0 \;;
#X obj 291 59 i;
#X msg 291 85 \; \$0-x resize \$1 \; \$0-y resize \$1 \; \$0-z resize
\$1;
#X obj 522 15 r \$0-enable;
#X obj 291 37 * 1.5;
#X obj 602 15 r \$0-size;
#X obj 522 60 f;
#X obj 522 37 sel 1;
#X msg 522 85 \; \$0-x resize \$1 \; \$0-y resize \$1 \; \$0-z resize
\$1;
#X connect 0 0 6 0;
#X connect 1 0 10 0;
#X connect 7 0 8 0;
#X connect 9 0 13 0;
#X connect 10 0 7 0;
#X connect 11 0 12 1;
#X connect 12 0 14 0;
#X connect 13 0 12 0;
#X restore 1049 207 pd initTables;
#X obj 1049 167 table \$0-z;
#X obj 567 203 bng 15 250 50 0 \$0-sendImage \$0-getSend send\ image
17 5 0 10 -260818 -66577 -66577;
#X obj 721 203 bng 15 250 50 0 \$0-cancel empty cancel 17 5 0 10 -258699
-1 -1;
#X obj 654 203 tgl 15 0 \$0-pause empty pause 17 5 0 10 -262144 -1
-1 0 1;
#N canvas 228 268 879 432 misc 0;
#X obj 23 17 r \$0-enable;
#X obj 23 39 sel 1;
#X msg 60 61 14;
#X msg 23 61 16;
#X msg 23 83 \; \$0-getSend color \$1 2 2;
#X obj 404 17 loadbang;
#X msg 404 39 0;
#X obj 404 61 s \$0-getAngle;
#X obj 545 15 r \$0-cancel;
#X msg 545 37 0;
#X obj 545 59 s \$0-progress;
#X connect 0 0 1 0;
#X connect 1 0 3 0;
#X connect 1 1 2 0;
#X connect 2 0 4 0;
#X connect 3 0 4 0;
#X connect 5 0 6 0;
#X connect 6 0 7 0;
#X connect 8 0 9 0;
#X connect 9 0 10 0;
#X restore 1049 187 pd misc;
#X obj 477 560 outlet~;
#X obj 534 560 outlet~;
#X obj 261 65 s \$0-xSize;
#X obj 334 65 s \$0-ySize;
#X obj 407 65 s \$0-zSize;
#X obj 480 65 s \$0-clear;
#X obj 567 225 hsl 128 15 0 1 0 0 empty \$0-progress empty 140 5 0
10 -262144 -1 -1 0 1;
#X obj 654 90 loadbang;
#X msg 654 120 0;
#X obj 477 465 *~;
#X obj 522 465 *~;
#X obj 420 363 loadbang;
#X msg 422 401 -1;
#X msg 450 401 1;
#X obj 1049 127 table \$0-x;
#X obj 1049 147 table \$0-y;
#X obj 248 339 tabwrite \$0-y;
#X obj 248 317 tabwrite \$0-x;
#X obj 793 180 moonlib/mknob 40 100 0.1 10 1 0 empty empty speed 42
15 0 9 -262144 -1 -1 4950 1;
#X floatatom 839 204 5 0 0 0 - - -, f 5;
#X obj 553 65 s \$0-enable;
#N canvas 47 90 867 662 audio 0;
#X obj 154 28 r \$0-sendImage;
#X obj 26 28 r \$0-cancel;
#X obj 130 28 bng 15 250 50 0 empty empty empty 17 7 0 10 -262144 -1
-1;
#X obj 154 50 t b b;
#X msg 181 79 0;
#X obj 154 112 cup;
#X obj 154 134 moses;
#X obj 296 32 r \$0-size;
#X obj 181 112 + 1;
#X obj 154 156 t f f;
#X obj 181 180 tabread \$0-z;
#X obj 196 203 r \$0-speed;
#X obj 181 227 /;
#X obj 152 303 tabread \$0-x;
#X obj 152 325 pack f f;
#X obj 152 347 line~;
#X obj 152 369 outlet~;
#X obj 242 325 pack f f;
#X obj 242 347 line~;
#X obj 242 369 outlet~;
#X obj 242 303 tabread \$0-y;
#X msg 91 303 bang;
#X obj 91 325 f;
#X obj 91 347 delay;
#X msg 26 82 stop;
#X obj 306 180 /;
#X obj 306 202 s \$0-progress;
#X floatatom 368 94 25 0 0 0 - - -, f 25;
#X floatatom 53 141 10 0 0 0 - - -, f 10;
#X obj 181 249 +;
#X obj 221 227 r \$0-speedOffset;
#X floatatom 598 176 5 0 0 0 - - -, f 5;
#X obj 562 243 tabread \$0-x;
#X obj 651 243 tabread \$0-y;
#X obj 740 243 tabread \$0-z;
#X floatatom 562 265 9 0 0 0 - - -, f 9;
#X floatatom 651 265 8 0 0 0 - - -, f 8;
#X floatatom 740 265 8 0 0 0 - - -, f 8;
#X obj 479 299 hsl 128 15 -500 500 0 0 empty empty empty -2 -8 0 10
-262144 -1 -1 0 1;
#X obj 649 299 hsl 128 15 -500 500 0 0 empty empty empty -2 -8 0 10
-262144 -1 -1 0 1;
#X connect 0 0 3 0;
#X connect 1 0 24 0;
#X connect 2 0 3 0;
#X connect 3 0 5 0;
#X connect 3 1 4 0;
#X connect 4 0 5 0;
#X connect 5 0 6 0;
#X connect 5 0 25 0;
#X connect 5 0 28 0;
#X connect 6 0 9 0;
#X connect 7 0 8 0;
#X connect 7 0 25 1;
#X connect 7 0 27 0;
#X connect 8 0 6 1;
#X connect 9 0 21 0;
#X connect 9 0 20 0;
#X connect 9 0 13 0;
#X connect 9 1 10 0;
#X connect 10 0 12 0;
#X connect 11 0 12 1;
#X connect 12 0 29 0;
#X connect 13 0 14 0;
#X connect 14 0 15 0;
#X connect 15 0 16 0;
#X connect 17 0 18 0;
#X connect 18 0 19 0;
#X connect 20 0 17 0;
#X connect 21 0 22 0;
#X connect 22 0 23 0;
#X connect 23 0 5 0;
#X connect 24 0 23 0;
#X connect 25 0 26 0;
#X connect 29 0 22 1;
#X connect 29 0 17 1;
#X connect 29 0 14 1;
#X connect 30 0 29 1;
#X connect 31 0 32 0;
#X connect 31 0 34 0;
#X connect 31 0 33 0;
#X connect 32 0 35 0;
#X connect 32 0 38 0;
#X connect 33 0 36 0;
#X connect 33 0 39 0;
#X connect 34 0 37 0;
#X restore 477 338 pd audio;
#X obj 726 308 moonlib/mknob 40 101 0.001 0.1 1 0 empty empty speed\ offset
42 15 0 9 -262144 -1 -1 4515 1;
#X floatatom 772 332 5 0 0 0 - - -, f 5;
#X obj 772 398 s \$0-speedOffset;
#X obj 567 305 * 100;
#X floatatom 703 225 6 0 0 1 progress - -, f 6;
#X msg 782 369 set \$1;
#X msg 893 308 set \$1;
#X obj 632 65 s \$0-dpi;
#X msg 793 113 1;
#X msg 726 280 0.008;
#X obj 567 180 tgl 15 0 empty \$0-getEnable enable 17 5 0 10 -260818
-66577 -66577 0 1;
#X obj 961 238 sel 1;
#X msg 961 260 16;
#X msg 990 260 14;
#X msg 961 282 \; \$0-getEnable color \$1 2 2;
#X obj 909 463 s \$0-speed;
#X obj 280 98 r \$0-clear;
#X obj 231 156 i;
#X obj 262 156 i;
#X msg 280 120 -1;
#X obj 231 89 t f b;
#X obj 231 178 t b b b;
#X obj 31 222 f;
#X obj 115 222 f;
#X obj 200 222 f;
#X obj 115 244 t f f b;
#X obj 139 279 f;
#X msg 132 127 0;
#X obj 115 308 -;
#X obj 115 330 pow 2;
#X obj 31 244 t f f b;
#X obj 55 279 f;
#X obj 31 308 -;
#X obj 31 330 pow 2;
#X obj 31 362 +;
#X obj 31 384 sqrt;
#X text 70 406 introduce a setting somewhere for ideal speed;
#X obj 31 428 * 1000;
#X obj 16 460 *;
#X msg 391 156 0;
#X obj 363 156 bng 15 250 50 0 empty empty empty 17 7 0 10 -262144
-1 -1;
#X obj 363 206 cup;
#X obj 363 228 tabread \$0-z;
#X floatatom 363 250 9 0 0 0 - - -, f 9;
#X floatatom 457 228 9 0 0 0 - - -, f 9;
#X obj 438 185 metro 1;
#X obj 455 144 tgl 15 0 empty empty empty 17 7 0 10 -262144 -1 -1 0
1;
#X obj 363 271 vsl 15 128 0 5 0 0 empty empty empty 0 -9 0 10 -262144
-1 -1 0 1;
#X obj 194 65 s \$0-size;
#X obj 521 412 *~;
#X obj 476 412 *~;
#X obj 564 346 r \$0-xAnglePerMM;
#X obj 570 372 r \$0-yAnglePerMM;
#X obj 693 65 s \$0-xAnglePerMM;
#X obj 802 65 s \$0-yAnglePerMM;
#X obj 31 406 / 75;
#X obj 924 363 r \$0-dpi;
#X obj 924 407 t b f;
#X obj 909 437 *;
#X obj 924 385 / 150;
#X obj 15 34 route x y z i xSize ySize zSize clear enable dpi xAnglePerMM
yAnglePerMM, f 125;
#X obj 508 268 switch~;
#X connect 2 0 91 0;
#X connect 15 0 34 0;
#X connect 16 0 17 0;
#X connect 16 0 40 0;
#X connect 16 0 39 0;
#X connect 17 0 7 0;
#X connect 17 0 41 0;
#X connect 18 0 9 0;
#X connect 19 0 10 0;
#X connect 20 0 21 0;
#X connect 20 0 22 0;
#X connect 21 0 18 1;
#X connect 22 0 19 1;
#X connect 27 0 28 0;
#X connect 28 0 37 0;
#X connect 28 0 89 0;
#X connect 30 0 81 0;
#X connect 30 1 80 0;
#X connect 31 0 32 0;
#X connect 32 0 33 0;
#X connect 32 0 36 0;
#X connect 34 0 35 0;
#X connect 36 0 31 0;
#X connect 37 0 27 0;
#X connect 39 0 27 0;
#X connect 40 0 31 0;
#X connect 41 0 42 0;
#X connect 41 0 92 0;
#X connect 42 0 43 0;
#X connect 42 1 44 0;
#X connect 43 0 45 0;
#X connect 44 0 45 0;
#X connect 47 0 50 0;
#X connect 47 0 58 0;
#X connect 48 0 49 1;
#X connect 48 0 52 0;
#X connect 49 0 26 1;
#X connect 49 0 25 1;
#X connect 49 0 1 1;
#X connect 50 0 48 1;
#X connect 51 0 48 0;
#X connect 51 1 49 0;
#X connect 52 0 55 0;
#X connect 52 1 53 0;
#X connect 52 2 54 0;
#X connect 53 0 61 0;
#X connect 53 0 26 0;
#X connect 54 0 56 0;
#X connect 54 0 25 0;
#X connect 55 0 69 0;
#X connect 56 0 59 0;
#X connect 56 1 57 1;
#X connect 56 2 57 0;
#X connect 57 0 59 1;
#X connect 58 0 53 0;
#X connect 58 0 55 0;
#X connect 58 0 54 0;
#X connect 59 0 60 0;
#X connect 60 0 65 1;
#X connect 61 0 63 0;
#X connect 61 1 62 1;
#X connect 61 2 62 0;
#X connect 62 0 63 1;
#X connect 63 0 64 0;
#X connect 64 0 65 0;
#X connect 65 0 66 0;
#X connect 66 0 86 0;
#X connect 68 0 69 1;
#X connect 69 0 1 0;
#X connect 70 0 72 0;
#X connect 71 0 72 0;
#X connect 72 0 73 0;
#X connect 72 0 75 0;
#X connect 73 0 74 0;
#X connect 74 0 78 0;
#X connect 76 0 72 0;
#X connect 77 0 76 0;
#X connect 80 0 19 0;
#X connect 81 0 18 0;
#X connect 82 0 81 1;
#X connect 83 0 80 1;
#X connect 86 0 68 0;
#X connect 87 0 90 0;
#X connect 88 0 89 0;
#X connect 88 1 89 1;
#X connect 89 0 46 0;
#X connect 90 0 88 0;
#X connect 91 0 53 1;
#X connect 91 1 54 1;
#X connect 91 2 55 1;
#X connect 91 3 51 0;
#X connect 91 3 79 0;
#X connect 91 4 11 0;
#X connect 91 5 12 0;
#X connect 91 6 13 0;
#X connect 91 7 14 0;
#X connect 91 8 29 0;
#X connect 91 9 38 0;
#X connect 91 10 84 0;
#X connect 91 11 85 0;
#X coords 0 -1 1 1 360 78 2 559 172;
