#N canvas 48 118 1256 623 10;
#X obj 53 128 openpanel;
#X msg 100 226 clear;
#X obj 84 270 s \$0-toText;
#X obj 903 112 r \$0-toText;
#X obj 903 12 table \$0-x 1;
#X obj 903 37 table \$0-y 1;
#X obj 903 62 table \$0-length 1;
#X obj 116 204 s \$0-init;
#X msg 116 182 bang;
#X obj 903 137 text define file;
#N canvas 481 201 781 494 misc 0;
#X obj 2 22 r \$0-init;
#X msg 41 193 \; \$0-x resize \$1 \; \$0-y resize \$1 \; \$0-length
resize \$1;
#X msg 2 44 0;
#X obj 2 86 f;
#X obj 72 22 r \$0-size;
#X obj 52 86 +;
#X obj 72 44 t b f;
#X floatatom 82 134 5 0 0 0 - - -, f 5;
#X obj 142 22 r \$0-resize;
#X obj 142 114 text size file;
#X msg 176 273 \; \$0-x const 0 \; \$0-y const 0 \; \$0-length const
0;
#X obj 270 22 r \$0-enable;
#X obj 270 44 sel 1;
#X msg 307 66 14;
#X msg 270 66 16;
#X obj 629 25 r \$0-cancel;
#X msg 629 47 0;
#X obj 629 69 s \$0-progress;
#X msg 270 88 \; \$0-getEnable color \$1 2 2;
#X msg 477 66 14;
#X obj 440 22 r \$0-compute;
#X msg 440 66 16;
#X obj 524 22 r \$0-open;
#X msg 440 88 \; \$0-getSend color \$1 2 2;
#X obj 142 44 route bang float;
#X obj 142 66 t b b;
#X obj 142 158 s \$0-dataout;
#X msg 142 136 /init \$1;
#X connect 0 0 2 0;
#X connect 2 0 3 0;
#X connect 2 0 5 1;
#X connect 2 0 5 0;
#X connect 3 0 5 0;
#X connect 4 0 6 0;
#X connect 5 0 3 1;
#X connect 5 0 7 0;
#X connect 5 0 1 0;
#X connect 6 0 3 0;
#X connect 6 1 5 1;
#X connect 8 0 24 0;
#X connect 9 0 1 0;
#X connect 9 0 27 0;
#X connect 11 0 12 0;
#X connect 12 0 14 0;
#X connect 12 1 13 0;
#X connect 13 0 18 0;
#X connect 14 0 18 0;
#X connect 15 0 16 0;
#X connect 16 0 17 0;
#X connect 19 0 23 0;
#X connect 20 0 21 0;
#X connect 21 0 23 0;
#X connect 22 0 19 0;
#X connect 24 0 25 0;
#X connect 24 1 1 0;
#X connect 25 0 10 0;
#X connect 25 1 9 0;
#X connect 27 0 26 0;
#X restore 903 87 pd misc;
#N canvas -11 64 567 697 parse 0;
#X obj 138 12 inlet;
#X obj 158 166 text get file;
#X obj 119 102 bng 15 250 50 0 empty empty empty 17 7 0 10 -262144
-1 -1;
#X obj 158 133 cup;
#X floatatom 121 166 5 0 0 0 - - -, f 5;
#X msg 157 90 0;
#X obj 254 188 sel 2;
#X obj 254 210 s \$0-stop;
#X obj 138 57 t b b b;
#X obj 259 67 r \$0-stop;
#X msg 259 90 0;
#X obj 186 115 spigot;
#X msg 219 90 1;
#X obj 21 36 r \$0-next;
#X obj 15 394 tabwrite \$0-x;
#X obj 15 416 tabwrite \$0-y;
#X obj 15 460 tabwrite \$0-length;
#X obj 143 337 f;
#X obj 173 337 f;
#X obj 203 337 f;
#X obj 233 337 f;
#X obj 263 337 f;
#X obj 15 438 r \$0-duration;
#X obj 272 404 f;
#X obj 253 431 -;
#X obj 253 372 t f f b;
#X obj 253 453 pow 2;
#X obj 222 404 f;
#X obj 203 431 -;
#X obj 203 372 t f f b;
#X obj 203 453 pow 2;
#X obj 203 502 +;
#X obj 203 524 sqrt;
#X obj 188 628 *;
#X obj 203 599 *;
#X floatatom 284 552 5 0 0 0 - - -, f 5;
#X obj 203 568 * 1000;
#X obj 203 546 / 40;
#X obj 188 650 s \$0-duration;
#X obj 158 263 route ID G X Y Z next;
#X obj 312 288 t b b b b b b;
#X obj 96 264 s \$0-next;
#X obj 9 600 outlet;
#X obj 158 190 t b l;
#X obj 185 215 list trim;
#X obj 21 58 delay 0.1;
#X obj 451 587 r \$0-stop;
#X obj 451 609 outlet;
#X obj 73 600 outlet;
#X msg 22 522 /X \$1;
#X msg 59 522 /Y \$1;
#X msg 96 522 /L \$1;
#X msg 133 522 /ID \$1;
#X obj 29 172 /;
#X obj 29 194 s \$0-progress;
#X obj 45 127 text size file;
#X obj 436 219 f;
#X obj 472 219 +;
#X obj 436 185 t f f;
#X obj 476 162 r \$0-duration;
#X obj 472 241 s \$0-time;
#X obj 476 184 / 60000;
#X connect 0 0 8 0;
#X connect 1 0 43 0;
#X connect 1 1 6 0;
#X connect 2 0 3 0;
#X connect 3 0 4 0;
#X connect 3 0 1 0;
#X connect 3 0 53 0;
#X connect 5 0 3 0;
#X connect 6 0 7 0;
#X connect 8 0 3 0;
#X connect 8 1 5 0;
#X connect 8 2 12 0;
#X connect 8 2 55 0;
#X connect 8 2 58 0;
#X connect 9 0 10 0;
#X connect 10 0 11 1;
#X connect 11 0 3 0;
#X connect 12 0 11 1;
#X connect 13 0 45 0;
#X connect 17 0 14 1;
#X connect 17 0 16 1;
#X connect 17 0 15 1;
#X connect 17 0 42 0;
#X connect 17 0 52 0;
#X connect 18 0 33 0;
#X connect 19 0 14 0;
#X connect 19 0 29 0;
#X connect 19 0 49 0;
#X connect 20 0 15 0;
#X connect 20 0 25 0;
#X connect 20 0 50 0;
#X connect 21 0 34 0;
#X connect 22 0 16 0;
#X connect 22 0 51 0;
#X connect 23 0 24 1;
#X connect 24 0 26 0;
#X connect 25 0 24 0;
#X connect 25 1 23 1;
#X connect 25 2 23 0;
#X connect 26 0 31 1;
#X connect 27 0 28 1;
#X connect 28 0 30 0;
#X connect 29 0 28 0;
#X connect 29 1 27 1;
#X connect 29 2 27 0;
#X connect 30 0 31 0;
#X connect 31 0 32 0;
#X connect 32 0 35 0;
#X connect 32 0 37 0;
#X connect 33 0 38 0;
#X connect 34 0 33 1;
#X connect 36 0 34 1;
#X connect 37 0 36 0;
#X connect 39 0 17 1;
#X connect 39 1 18 1;
#X connect 39 2 19 1;
#X connect 39 3 20 1;
#X connect 39 4 21 1;
#X connect 39 5 40 0;
#X connect 40 1 18 0;
#X connect 40 2 21 0;
#X connect 40 3 19 0;
#X connect 40 4 20 0;
#X connect 40 5 17 0;
#X connect 43 0 41 0;
#X connect 43 1 44 0;
#X connect 44 0 39 0;
#X connect 45 0 11 0;
#X connect 46 0 47 0;
#X connect 49 0 48 0;
#X connect 50 0 48 0;
#X connect 51 0 48 0;
#X connect 52 0 48 0;
#X connect 53 0 54 0;
#X connect 55 0 53 1;
#X connect 56 0 57 1;
#X connect 57 0 56 0;
#X connect 57 0 60 0;
#X connect 58 0 56 0;
#X connect 58 1 57 0;
#X connect 59 0 61 0;
#X connect 61 0 57 0;
#X restore 53 316 pd parse;
#X msg 84 248 read -c \$1;
#X obj 18 292 bng 15 250 50 0 empty empty empty 17 7 0 10 -262144 -1
-1;
#X obj 53 150 t b b s b b;
#X obj 68 293 s \$0-resize;
#X floatatom 13 351 5 0 0 0 - - -, f 5;
#X obj 320 133 cnv 15 352 70 empty empty empty 20 12 0 14 -233017 -66577
0;
#X obj 324 160 bng 15 250 50 0 \$0-sendImage \$0-getSend send\ image
17 5 0 10 -260818 -66577 -66577;
#X obj 478 160 bng 15 250 50 0 \$0-cancel empty cancel 17 5 0 10 -258699
-1 -1;
#X obj 411 160 tgl 15 0 \$0-pause empty pause 17 5 0 10 -262144 -1
-1 0 1;
#X obj 324 182 hsl 128 15 0 1 0 0 empty \$0-progress empty 140 5 0
10 -262144 -1 -1 0 1;
#X obj 550 137 moonlib/mknob 40 100 0.1 10 1 0 empty empty speed 42
15 0 9 -262144 -1 -1 4950 1;
#X floatatom 596 161 5 0 0 0 - - -, f 5;
#X floatatom 460 182 6 0 0 1 progress - -, f 6;
#X obj 324 137 tgl 15 0 \$0-enable \$0-getEnable enable 17 5 0 10 -260818
-66577 -66577 0 1;
#X obj 325 215 * 100;
#X obj 411 137 bng 15 250 50 0 \$0-open empty open\ file 17 5 0 10
-262144 -1 -1;
#X obj 53 104 r \$0-open;
#X obj 15 14 inlet;
#X obj 15 80 s \$0-xMaxAngle;
#X obj 109 80 s \$0-yMaxAngle;
#X obj 203 80 s \$0-halfXMax;
#X obj 291 80 s \$0-halfYMax;
#X obj 15 36 route xMaxAngle yMaxAngle halfXMax halfYMax;
#X msg 701 51 1;
#X obj 701 29 loadbang;
#X obj 739 50 r \$0-halfXMax;
#X obj 739 72 t b f;
#X obj 701 114 /;
#X obj 701 136 s \$0-anglePerMM;
#N canvas 400 69 540 523 audio 0;
#X obj 159 20 r \$0-sendImage;
#X obj 259 20 r \$0-cancel;
#X obj 159 42 t b b;
#X msg 186 79 0;
#X obj 16 20 inlet;
#X obj 23 452 outlet~;
#X obj 227 452 outlet~;
#X obj 120 115 cup;
#X obj 120 137 moses;
#X obj 147 115 + 1;
#X obj 120 159 t f f f f;
#X obj 21 330 delay;
#X obj 171 185 tabread \$0-length;
#X obj 78 372 pack f f;
#X obj 166 372 pack f f;
#X obj 78 350 tabread \$0-x;
#X obj 166 350 tabread \$0-y;
#X obj 78 394 line~;
#X obj 166 394 line~;
#X msg 259 87 stop;
#X obj 93 41 bng 15 250 50 0 empty empty empty 17 7 0 10 -262144 -1
-1;
#X obj 111 17 bng 15 250 50 0 empty empty empty 17 7 0 10 -262144 -1
-1;
#X obj 19 140 /;
#X obj 19 162 s \$0-progress;
#X obj 222 212 r \$0-speed;
#X obj 171 237 /;
#X obj 21 304 f;
#X msg 21 278 bang;
#X floatatom 183 139 7 0 0 0 - - -, f 7;
#X connect 0 0 2 0;
#X connect 1 0 19 0;
#X connect 2 0 7 0;
#X connect 2 1 3 0;
#X connect 3 0 7 0;
#X connect 4 0 9 0;
#X connect 4 0 22 1;
#X connect 7 0 8 0;
#X connect 7 0 22 0;
#X connect 7 0 28 0;
#X connect 8 0 10 0;
#X connect 9 0 8 1;
#X connect 10 2 16 0;
#X connect 10 2 15 0;
#X connect 10 2 27 0;
#X connect 10 3 12 0;
#X connect 11 0 7 0;
#X connect 12 0 25 0;
#X connect 13 0 17 0;
#X connect 14 0 18 0;
#X connect 15 0 13 0;
#X connect 16 0 14 0;
#X connect 17 0 5 0;
#X connect 18 0 6 0;
#X connect 19 0 11 0;
#X connect 20 0 7 0;
#X connect 21 0 2 0;
#X connect 22 0 23 0;
#X connect 24 0 25 1;
#X connect 25 0 13 1;
#X connect 25 0 14 1;
#X connect 25 0 26 1;
#X connect 26 0 11 0;
#X connect 27 0 26 0;
#X restore 412 287 pd audio;
#X obj 333 556 outlet~;
#X obj 490 554 outlet~;
#X obj 457 338 *~;
#X obj 500 312 r \$0-anglePerMM;
#X obj 412 338 *~;
#X obj 67 541 monitoring;
#X obj 67 509 monitoring;
#X obj 239 136 r \$0-enable;
#X obj 633 337 loadbang;
#X obj 412 447 *~;
#X obj 457 447 *~;
#X msg 633 389 -1;
#X msg 673 389 1;
#X obj 165 363 s \$0-compute;
#X msg 165 340 1;
#X msg 596 222 set \$1;
#X obj 651 222 s \$0-speed;
#X obj 48 439 s \$0-resize;
#X obj 48 381 f;
#X obj 140 439 s \$0-dataout;
#X obj 946 517 r \$0-dataout;
#X obj 946 539 outlet;
#X msg 62 407 /resize \$1;
#X floatatom 560 182 5 0 0 1 minutes - -, f 5;
#X obj 591 64 r \$0-time;
#X obj 239 158 switch~;
#X connect 0 0 14 0;
#X connect 1 0 2 0;
#X connect 3 0 9 0;
#X connect 8 0 7 0;
#X connect 11 0 16 0;
#X connect 11 0 41 0;
#X connect 11 0 60 1;
#X connect 11 1 61 0;
#X connect 11 2 60 0;
#X connect 11 2 56 0;
#X connect 12 0 2 0;
#X connect 13 0 11 0;
#X connect 14 0 11 0;
#X connect 14 1 15 0;
#X connect 14 2 12 0;
#X connect 14 3 1 0;
#X connect 14 4 8 0;
#X connect 21 0 26 0;
#X connect 22 0 23 0;
#X connect 23 0 57 0;
#X connect 23 0 58 0;
#X connect 26 0 24 0;
#X connect 28 0 0 0;
#X connect 29 0 34 0;
#X connect 34 0 30 0;
#X connect 34 1 31 0;
#X connect 34 2 32 0;
#X connect 34 3 33 0;
#X connect 35 0 39 0;
#X connect 35 0 22 0;
#X connect 36 0 35 0;
#X connect 37 0 38 0;
#X connect 38 0 39 0;
#X connect 38 1 39 1;
#X connect 39 0 40 0;
#X connect 41 0 46 0;
#X connect 41 1 44 0;
#X connect 44 0 47 0;
#X connect 44 0 52 0;
#X connect 45 0 44 1;
#X connect 45 0 46 1;
#X connect 46 0 48 0;
#X connect 46 0 51 0;
#X connect 49 0 67 0;
#X connect 50 0 54 0;
#X connect 50 0 53 0;
#X connect 51 0 42 0;
#X connect 52 0 43 0;
#X connect 53 0 51 1;
#X connect 54 0 52 1;
#X connect 56 0 55 0;
#X connect 57 0 22 0;
#X connect 60 0 59 0;
#X connect 60 0 64 0;
#X connect 62 0 63 0;
#X connect 64 0 61 0;
#X connect 66 0 65 0;
#X coords 0 -1 1 1 360 78 2 316 129;
