#N canvas 178 166 973 575 10;
#X obj 300 142 cnv 20 352 66 empty empty empty 20 12 0 14 -233017 -66577
0;
#X floatatom 413 167 7 0 0 0 - #0-getWidth -, f 7;
#X floatatom 413 189 7 0 0 0 - #0-getHeight -, f 7;
#X text 460 167 width \, mm;
#X text 460 189 height \, mm;
#X obj 304 167 tgl 15 0 empty \$0-getEnable enable 17 5 0 10 -260818
-66577 -66577 0 1;
#X text 304 144 offset;
#X obj 14 15 inlet;
#X obj 14 81 s \$0-xMaxAngle;
#X obj 108 81 s \$0-yMaxAngle;
#X obj 202 81 s \$0-halfXMax;
#X obj 290 81 s \$0-halfYMax;
#X obj 14 37 route xMaxAngle yMaxAngle halfXMax halfYMax;
#X obj 610 20 loadbang;
#X msg 610 42 0;
#X obj 610 64 s \$0-getEnable;
#X obj 719 63 r \$0-halfXMax;
#X obj 711 107 f;
#X obj 711 130 /;
#X obj 719 85 t b f;
#X floatatom 771 174 9 0 0 0 - - -, f 9;
#X msg 711 41 1;
#X obj 811 107 f;
#X obj 811 130 /;
#X obj 819 85 t b f;
#X floatatom 871 174 9 0 0 0 - - -, f 9;
#X msg 811 41 1;
#X obj 819 63 r \$0-halfYMax;
#X obj 711 152 s \$0-xAnglePerMM;
#X obj 811 152 s \$0-yAnglePerMM;
#X obj 167 200 sel 1;
#X msg 167 222 16;
#X msg 196 222 14;
#X msg 167 244 \; \$0-getEnable color \$1 2 2;
#X obj 413 296 sig~;
#X obj 413 330 *~;
#X obj 451 296 r \$0-xAnglePerMM;
#X obj 413 456 outlet~;
#X obj 563 456 outlet~;
#X obj 563 296 sig~;
#X obj 563 330 *~;
#X obj 601 296 r \$0-yAnglePerMM;
#X obj 413 380 *~;
#X obj 563 380 *~;
#X obj 413 420 *~;
#X obj 563 420 *~;
#X obj 259 332 loadbang;
#X msg 259 384 1;
#X msg 299 384 -1;
#X connect 1 0 34 0;
#X connect 2 0 39 0;
#X connect 5 0 30 0;
#X connect 5 0 42 1;
#X connect 5 0 43 1;
#X connect 7 0 12 0;
#X connect 12 0 8 0;
#X connect 12 1 9 0;
#X connect 12 2 10 0;
#X connect 12 3 11 0;
#X connect 13 0 14 0;
#X connect 13 0 21 0;
#X connect 13 0 26 0;
#X connect 14 0 15 0;
#X connect 16 0 19 0;
#X connect 17 0 18 0;
#X connect 18 0 20 0;
#X connect 18 0 28 0;
#X connect 19 0 17 0;
#X connect 19 1 18 1;
#X connect 21 0 17 0;
#X connect 22 0 23 0;
#X connect 23 0 25 0;
#X connect 23 0 29 0;
#X connect 24 0 22 0;
#X connect 24 1 23 1;
#X connect 26 0 22 0;
#X connect 27 0 24 0;
#X connect 30 0 31 0;
#X connect 30 1 32 0;
#X connect 31 0 33 0;
#X connect 32 0 33 0;
#X connect 34 0 35 0;
#X connect 35 0 42 0;
#X connect 36 0 35 1;
#X connect 39 0 40 0;
#X connect 40 0 43 0;
#X connect 41 0 40 1;
#X connect 42 0 44 0;
#X connect 43 0 45 0;
#X connect 44 0 37 0;
#X connect 45 0 38 0;
#X connect 46 0 47 0;
#X connect 46 0 48 0;
#X connect 47 0 45 1;
#X connect 48 0 44 1;
#X coords 0 -1 1 1 360 74 2 296 138;
