#N canvas 67 85 1184 656 10;
#X obj 913 124 cnv 15 88 156 empty empty empty 20 12 0 14 -233017 -66577
0;
#X obj 60 231 phasor~;
#X obj 60 443 cos~;
#X obj 903 34 inlet;
#X text 941 34 freq;
#X obj 45 34 inlet~;
#X text 89 34 signal;
#X obj 45 515 +~;
#X obj 45 547 outlet~;
#X floatatom 916 127 5 0 0 1 freq. - -, f 5;
#X floatatom 916 150 5 0 0 1 amp. - -, f 5;
#X obj 916 173 tgl 15 0 empty empty r 17 5 0 10 -262144 -1 -1 0 1;
#X obj 818 193 *;
#X obj 1017 183 expr 1 / $f1;
#X obj 60 465 *~;
#X obj 999 55 loadbang;
#X obj 818 305 *;
#X msg 999 84 0;
#X obj 916 261 tgl 15 0 empty empty en 17 5 0 10 -262144 -1 -1 1 1
;
#X obj 833 219 sel 1;
#X msg 862 241 1;
#X msg 832 241 -1;
#X obj 60 487 *~;
#X obj 634 34 inlet;
#X text 672 34 init;
#X msg 99 207 0;
#X obj 380 443 cos~;
#X obj 365 34 inlet~;
#X text 409 34 signal;
#X obj 365 515 +~;
#X obj 365 547 outlet~;
#X obj 380 465 *~;
#X obj 380 487 *~;
#X obj 916 193 tgl 15 0 empty empty s 17 5 0 10 -262144 -1 -1 0 1;
#X obj 928 405 *;
#X obj 963 319 sel 1;
#X msg 992 341 1;
#X msg 962 341 -1;
#X msg 1031 84 1;
#X obj 818 156 t b f;
#X obj 832 273 t b f;
#X obj 962 373 t b f;
#X obj 712 34 inlet;
#X text 752 34 phase;
#X obj 380 341 +~;
#X obj 380 421 +~;
#X obj 60 421 +~;
#X obj 802 33 inlet;
#X text 842 33 rotate;
#X obj 395 313 line~;
#X obj 409 389 line~;
#X msg 395 290 \$1 200;
#X msg 409 366 \$1 200;
#X obj 455 34 inlet~;
#X text 499 34 phase;
#X obj 449 547 outlet~;
#X obj 956 173 moonlib/mknob 35 200 0 1 0 0 empty \$0-setPhase empty
-2 -6 0 8 -262144 -1 -1 0 1;
#X floatatom 956 213 5 0 0 0 - - -, f 5;
#X obj 916 214 bng 15 250 50 0 empty empty empty 17 7 0 10 -262144
-1 -1;
#X msg 1063 84 0;
#X msg 1016 251 set \$1;
#X obj 390 199 +~;
#X obj 390 139 *~;
#X obj 442 170 line~;
#X obj 390 231 *~;
#X msg 442 147 \$1 100;
#X obj 60 283 spigot~;
#X obj 548 34 inlet;
#X text 589 34 One;
#X obj 634 56 s \$0-init;
#X obj 99 183 r \$0-init;
#X obj 548 56 s \$0-modeOne;
#X obj 99 258 r \$0-modeOne;
#X obj 802 55 s \$0-gRotate;
#X obj 712 56 s \$0-gPhase;
#X obj 395 267 r \$0-gPhase;
#X obj 409 342 r \$0-gRotate;
#X obj 1016 273 s \$0-setPhase;
#X obj 1009 303 s \$0-phase;
#X obj 442 124 r \$0-phase;
#X obj 1017 205 s \$0-amp;
#X obj 451 424 r \$0-amp;
#X obj 818 327 s \$0-freq;
#X obj 60 158 r \$0-freq;
#X obj 1017 154 s \$0-ratio;
#X obj 442 93 r \$0-ratio;
#X obj 732 281 s \$0-reverse;
#X obj 443 198 r \$0-reverse;
#X obj 249 34 r \$0-init;
#X obj 249 56 t b b;
#X msg 276 101 0;
#X obj 903 56 s \$0-gFreq;
#X obj 179 56 r \$0-gFreq;
#X obj 179 120 pow -1;
#X msg 179 180 1 \$1;
#X obj 179 98 f;
#X obj 222 205 line~;
#X obj 222 227 spigot~;
#X obj 263 204 r \$0-modeOne;
#X obj 179 142 * 1000;
#X obj 818 132 r \$0-gFreq;
#X connect 1 0 66 0;
#X connect 2 0 14 0;
#X connect 3 0 91 0;
#X connect 5 0 7 0;
#X connect 7 0 8 0;
#X connect 9 0 12 0;
#X connect 9 0 84 0;
#X connect 10 0 13 0;
#X connect 11 0 19 0;
#X connect 12 0 16 0;
#X connect 13 0 80 0;
#X connect 14 0 22 0;
#X connect 15 0 17 0;
#X connect 15 0 38 0;
#X connect 15 0 59 0;
#X connect 16 0 82 0;
#X connect 17 0 11 0;
#X connect 17 0 33 0;
#X connect 18 0 34 0;
#X connect 19 0 21 0;
#X connect 19 1 20 0;
#X connect 20 0 40 0;
#X connect 20 0 86 0;
#X connect 21 0 40 0;
#X connect 21 0 86 0;
#X connect 22 0 7 1;
#X connect 23 0 69 0;
#X connect 25 0 1 1;
#X connect 26 0 31 0;
#X connect 27 0 29 0;
#X connect 29 0 30 0;
#X connect 31 0 32 0;
#X connect 32 0 29 1;
#X connect 33 0 35 0;
#X connect 34 0 22 1;
#X connect 34 0 32 1;
#X connect 35 0 37 0;
#X connect 35 1 36 0;
#X connect 36 0 41 0;
#X connect 37 0 41 0;
#X connect 38 0 10 0;
#X connect 38 0 9 0;
#X connect 39 0 12 0;
#X connect 39 1 12 1;
#X connect 40 0 16 0;
#X connect 40 1 16 1;
#X connect 41 0 34 0;
#X connect 41 1 34 1;
#X connect 42 0 74 0;
#X connect 44 0 45 0;
#X connect 45 0 26 0;
#X connect 46 0 2 0;
#X connect 47 0 73 0;
#X connect 49 0 44 1;
#X connect 50 0 46 1;
#X connect 50 0 45 1;
#X connect 51 0 49 0;
#X connect 52 0 50 0;
#X connect 53 0 62 0;
#X connect 56 0 57 0;
#X connect 57 0 60 0;
#X connect 57 0 78 0;
#X connect 58 0 59 0;
#X connect 59 0 56 0;
#X connect 60 0 77 0;
#X connect 61 0 64 0;
#X connect 62 0 61 0;
#X connect 63 0 61 1;
#X connect 64 0 46 0;
#X connect 64 0 44 0;
#X connect 65 0 63 0;
#X connect 66 0 46 0;
#X connect 66 0 44 0;
#X connect 66 0 55 0;
#X connect 67 0 71 0;
#X connect 70 0 25 0;
#X connect 72 0 66 1;
#X connect 75 0 51 0;
#X connect 76 0 52 0;
#X connect 79 0 65 0;
#X connect 81 0 31 1;
#X connect 81 0 14 1;
#X connect 83 0 1 0;
#X connect 85 0 62 1;
#X connect 87 0 64 1;
#X connect 88 0 89 0;
#X connect 89 0 95 0;
#X connect 89 1 90 0;
#X connect 90 0 96 0;
#X connect 92 0 95 0;
#X connect 93 0 99 0;
#X connect 94 0 96 0;
#X connect 95 0 93 0;
#X connect 96 0 97 0;
#X connect 97 1 46 0;
#X connect 97 1 44 0;
#X connect 97 1 55 0;
#X connect 98 0 97 1;
#X connect 99 0 94 0;
#X connect 100 0 39 0;
#X coords 0 -1 1 1 105 164 2 907 119;
