#N canvas 93 152 1158 589 10;
#X obj 293 216 cnv 15 423 120 empty empty empty 20 12 0 14 -233017
-66577 0;
#X obj 15 172 t f b;
#X obj 42 197 cup;
#X msg 239 112 0;
#X obj 101 142 t f b;
#X obj 128 167 cup;
#X obj 188 112 t f b;
#X obj 215 137 cup;
#X obj 188 161 tabwrite \$0-z;
#X obj 15 11 inlet;
#N canvas 106 127 450 369 initTables 0;
#X msg 291 55 \; \$0-z resize \$1;
#X obj 389 15 r \$0-clear;
#X obj 291 15 r \$0-zSize;
#X obj 153 15 r \$0-ySize;
#X obj 15 15 r \$0-xSize;
#X msg 152 55 \; \$0-y resize \$1;
#X msg 15 55 \; \$0-x resize \$1;
#X msg 389 55 \; \$0-x resize 100 \; \$0-y resize 100 \; \$0-z resize
100 \; \$0-x const 0 \; \$0-y const 0 \; \$0-z const 0 \;;
#X msg 25 206 \; \$0-2 normalize 1;
#X obj 15 147 loadbang;
#X obj 15 169 t b b;
#X msg 576 206 \; \$0-0 sinesum 1024 1;
#X msg 212 262 \; \$0-1 sinesum 1024 1 0 -0.111 0 0.04 0 -0.02 0 0.012
, f 63;
#X msg 15 262 \; \$0-1 normalize 1;
#X obj 74 147 bng 15 250 50 0 empty empty empty 17 7 0 10 -262144 -1
-1;
#X msg 212 206 \; \$0-2 sinesum 1024 1 0.5 0.3333 0.25 0.2 0.1667 0.1429
-0.125 0.1111 0.1 0.0909 0.0833 0.0769 0.0714 0.0667;
#X connect 1 0 7 0;
#X connect 2 0 0 0;
#X connect 3 0 5 0;
#X connect 4 0 6 0;
#X connect 9 0 10 0;
#X connect 10 0 8 0;
#X connect 10 0 13 0;
#X connect 10 1 15 0;
#X connect 10 1 12 0;
#X connect 10 1 11 0;
#X connect 14 0 10 0;
#X restore 963 94 pd initTables;
#X obj 963 54 table \$0-z;
#X obj 297 243 bng 15 250 50 0 \$0-sendImage \$0-getSend send\ image
17 5 0 10 -260818 -66577 -66577;
#X obj 451 243 bng 15 250 50 0 \$0-cancel empty cancel 17 5 0 10 -258699
-1 -1;
#X obj 384 243 tgl 15 0 \$0-pause empty pause 17 5 0 10 -262144 -1
-1 0 1;
#N canvas 275 309 879 409 misc 0;
#X obj 23 17 r \$0-enable;
#X obj 23 39 sel 1;
#X msg 60 61 14;
#X msg 23 61 16;
#X msg 23 83 \; \$0-getSend color \$1 2 2;
#X obj 404 17 loadbang;
#X msg 404 39 0;
#X obj 404 61 s \$0-getAngle;
#X obj 545 15 r \$0-cancel;
#X msg 545 37 0;
#X obj 545 59 s \$0-progress;
#X obj 221 61 r \$0-halfXMax;
#X obj 213 105 f;
#X obj 213 128 /;
#X obj 221 83 t b f;
#X obj 213 150 s \$0-anglePerMM;
#X floatatom 273 172 9 0 0 0 - - -, f 9;
#X msg 213 39 1;
#X obj 213 18 loadbang;
#X connect 0 0 1 0;
#X connect 1 0 3 0;
#X connect 1 1 2 0;
#X connect 2 0 4 0;
#X connect 3 0 4 0;
#X connect 5 0 6 0;
#X connect 6 0 7 0;
#X connect 8 0 9 0;
#X connect 9 0 10 0;
#X connect 11 0 14 0;
#X connect 12 0 13 0;
#X connect 13 0 15 0;
#X connect 13 0 16 0;
#X connect 14 0 12 0;
#X connect 14 1 13 1;
#X connect 17 0 12 0;
#X connect 18 0 17 0;
#X restore 963 74 pd misc;
#X obj 85 546 outlet~;
#X obj 134 546 outlet~;
#X obj 251 65 s \$0-xSize;
#X obj 330 65 s \$0-ySize;
#X obj 409 65 s \$0-zSize;
#X obj 645 65 s \$0-clear;
#X obj 239 88 r \$0-clear;
#X obj 297 288 hsl 128 15 0 1 0 0 empty \$0-progress empty 140 5 0
10 -262144 -1 -1 0 1;
#X obj 384 130 loadbang;
#X msg 384 160 0;
#X obj 85 454 *~;
#X obj 130 454 *~;
#X obj 145 370 loadbang;
#X msg 145 408 -1;
#X msg 173 408 1;
#X obj 487 65 s \$0-xIncr;
#X obj 566 65 s \$0-yIncr;
#X obj 963 14 table \$0-x;
#X obj 963 34 table \$0-y;
#X obj 101 192 tabwrite \$0-y;
#X obj 14 221 tabwrite \$0-x;
#X obj 523 220 moonlib/mknob 40 100 0.1 10 1 0 empty empty speed 42
15 0 9 -262144 -1 -1 4950 1;
#X floatatom 569 244 5 0 0 0 - - -, f 5;
#X obj 724 65 s \$0-enable;
#N canvas 36 55 1255 683 audio 0;
#X obj 193 619 outlet~;
#X obj 343 619 outlet~;
#X obj 193 392 phasor~;
#X obj 193 437 *~;
#X obj 208 415 r \$0-xSize;
#X obj 343 392 phasor~;
#X obj 343 437 *~;
#X obj 573 392 phasor~;
#X obj 573 437 *~;
#X obj 573 462 tabread4~ \$0-z;
#X obj 358 415 r \$0-ySize;
#X obj 588 415 r \$0-zSize;
#X obj 382 332 /;
#X obj 397 309 r \$0-ySize;
#X obj 422 392 moses 1;
#X obj 461 415 s \$0-cancel;
#X obj 573 192 /;
#X obj 588 171 r \$0-ySize;
#X obj 343 462 tabread4~ \$0-y;
#X obj 193 462 tabread4~ \$0-x;
#X obj 193 336 *~;
#X obj 573 334 *~;
#X obj 627 305 r \$0-xSize;
#X obj 612 334 *;
#X obj 612 363 /;
#X obj 641 334 r \$0-zSize;
#X obj 689 25 r \$0-sendImage;
#X obj 689 47 t b b b;
#X obj 728 70 s \$0-cancel;
#X obj 12 247 threshold~ 0.999 0 0.2 0;
#X msg 149 179 0;
#X obj 573 269 *~;
#X obj 588 213 r \$0-pause;
#X obj 193 269 *~;
#X obj 208 213 r \$0-pause;
#X obj 771 392 phasor~;
#X obj 573 554 *~;
#X obj 343 594 +~;
#X obj 771 510 *~;
#X obj 786 488 r \$0-amplitude;
#X obj 444 365 s \$0-progress;
#X obj 193 190 r \$0-speed;
#X obj 573 140 r \$0-speed;
#X msg 474 177 0;
#X msg 310 177 1;
#X obj 771 238 r \$0-freq;
#X obj 894 392 r \$0-waveform;
#X msg 894 415 set \$0-\$1;
#X obj 207 505 monitoring;
#X obj 608 544 monitoring;
#X obj 608 572 monitoring;
#X obj 916 531 monitoring;
#X obj 771 462 tabread4~ \$0-0;
#X obj 346 89 r \$0-cancel;
#X obj 208 235 == 0;
#X obj 588 235 == 0;
#X obj 525 624 monitoring;
#X obj 771 437 *~ 1024;
#X obj 771 334 *~;
#X obj 382 264 f;
#X obj 422 264 + 1;
#X obj 437 238 r \$0-skip;
#X floatatom 394 290 5 0 0 0 - - -, f 5;
#X obj 185 44 tgl 15 0 empty empty empty 17 7 0 10 -262144 -1 -1 0
1;
#X obj 185 64 s \$0-pause;
#X obj 916 581 monitoring;
#X connect 2 0 3 0;
#X connect 2 0 29 0;
#X connect 2 0 48 0;
#X connect 3 0 19 0;
#X connect 4 0 3 1;
#X connect 5 0 6 0;
#X connect 5 0 49 0;
#X connect 6 0 18 0;
#X connect 7 0 8 0;
#X connect 7 0 50 0;
#X connect 8 0 9 0;
#X connect 9 0 36 0;
#X connect 10 0 6 1;
#X connect 11 0 8 1;
#X connect 12 0 5 1;
#X connect 12 0 14 0;
#X connect 12 0 40 0;
#X connect 13 0 12 1;
#X connect 14 1 15 0;
#X connect 16 0 31 0;
#X connect 17 0 16 1;
#X connect 18 0 37 0;
#X connect 19 0 0 0;
#X connect 20 0 2 0;
#X connect 21 0 7 0;
#X connect 22 0 23 1;
#X connect 23 0 24 0;
#X connect 24 0 7 1;
#X connect 25 0 24 1;
#X connect 26 0 27 0;
#X connect 27 0 44 0;
#X connect 27 1 43 0;
#X connect 27 2 28 0;
#X connect 29 0 30 0;
#X connect 29 0 59 0;
#X connect 30 0 2 1;
#X connect 31 0 21 0;
#X connect 32 0 55 0;
#X connect 33 0 20 0;
#X connect 34 0 54 0;
#X connect 35 0 51 0;
#X connect 35 0 57 0;
#X connect 36 0 37 1;
#X connect 37 0 1 0;
#X connect 37 0 56 0;
#X connect 38 0 36 1;
#X connect 39 0 38 1;
#X connect 41 0 33 0;
#X connect 42 0 16 0;
#X connect 43 0 20 1;
#X connect 43 0 21 1;
#X connect 43 0 35 1;
#X connect 43 0 58 1;
#X connect 43 0 59 0;
#X connect 43 0 2 1;
#X connect 43 0 7 1;
#X connect 44 0 20 1;
#X connect 44 0 21 1;
#X connect 44 0 58 1;
#X connect 45 0 58 0;
#X connect 46 0 47 0;
#X connect 47 0 52 0;
#X connect 52 0 38 0;
#X connect 52 0 65 0;
#X connect 53 0 43 0;
#X connect 54 0 33 1;
#X connect 55 0 31 1;
#X connect 57 0 52 0;
#X connect 58 0 35 0;
#X connect 59 0 60 0;
#X connect 59 0 12 0;
#X connect 59 0 62 0;
#X connect 59 0 23 0;
#X connect 60 0 59 1;
#X connect 61 0 60 1;
#X connect 63 0 64 0;
#X restore 85 408 pd audio;
#X obj 376 438 moonlib/mknob 40 101 0.001 0.1 1 0 empty empty speed\ offset
42 15 0 9 -262144 -1 -1 4515 1;
#X floatatom 422 462 5 0 0 0 - - -, f 5;
#X obj 422 528 s \$0-speedOffset;
#X obj 297 345 * 100;
#X floatatom 433 288 6 0 0 1 progress - -, f 6;
#X msg 432 499 set \$1;
#X msg 843 218 set \$1;
#X obj 803 65 s \$0-dpi;
#X msg 523 153 1;
#X msg 376 410 0.008;
#X obj 297 220 tgl 15 0 empty \$0-getEnable enable 17 5 0 10 -260818
-66577 -66577 0 1;
#X obj 40 270 sel 1;
#X msg 40 292 16;
#X msg 69 292 14;
#X msg 40 314 \; \$0-getEnable color \$1 2 2;
#X obj 906 218 expr 1 /$f1;
#X obj 843 249 r \$0-dpi;
#X obj 843 271 t b f;
#X obj 843 337 /;
#X obj 843 403 s \$0-speed;
#X msg 843 293 1000;
#X obj 858 315 * 4;
#X obj 843 381 *;
#X obj 906 249 t b f;
#X obj 843 359 f;
#X obj 297 266 hradio 15 0 0 3 \$0-waveform empty waveform\ (sin\ /\ tri\ /\ saw)
50 5 0 10 -262144 -1 -1 0;
#X obj 963 152 table \$0-1;
#X obj 963 132 table \$0-0;
#X obj 963 172 table \$0-2;
#X obj 523 280 moonlib/mknob 40 100 0.1 10 1 0 empty empty frequency
42 15 0 9 -262144 -1 -1 0 1;
#X floatatom 569 304 5 0 0 0 - - -, f 5;
#X msg 569 325 set \$1;
#X obj 569 365 s \$0-freq;
#X obj 623 280 moonlib/mknob 40 100 0 10 0 0 empty empty amplitude
42 15 0 9 -262144 -1 -1 0 1;
#X floatatom 669 304 5 0 0 0 - - -, f 5;
#X msg 669 325 set \$1;
#X obj 669 421 s \$0-amplitude;
#X obj 669 375 *;
#X obj 15 34 route x y z xSize ySize zSize xIncrement yIncrement clear
enable dpi halfXMax halfYMax, f 145;
#X obj 785 103 s \$0-halfXMax;
#X obj 873 103 s \$0-halfYMax;
#X obj 684 353 r \$0-anglePerMM;
#X floatatom 626 228 5 0 0 1 skip - #0-skip, f 5;
#X obj 669 397 / 2;
#X obj 226 280 switch~;
#X connect 1 0 36 0;
#X connect 1 1 2 0;
#X connect 2 0 36 1;
#X connect 3 0 2 0;
#X connect 3 0 5 0;
#X connect 3 0 7 0;
#X connect 4 0 35 0;
#X connect 4 1 5 0;
#X connect 5 0 35 1;
#X connect 6 0 8 0;
#X connect 6 1 7 0;
#X connect 7 0 8 1;
#X connect 9 0 79 0;
#X connect 22 0 3 0;
#X connect 23 0 44 0;
#X connect 24 0 25 0;
#X connect 24 0 50 0;
#X connect 24 0 49 0;
#X connect 25 0 14 0;
#X connect 25 0 51 0;
#X connect 25 0 66 0;
#X connect 26 0 16 0;
#X connect 27 0 17 0;
#X connect 28 0 29 0;
#X connect 28 0 30 0;
#X connect 29 0 26 1;
#X connect 30 0 27 1;
#X connect 37 0 38 0;
#X connect 38 0 47 0;
#X connect 38 0 56 0;
#X connect 40 0 26 0;
#X connect 40 1 27 0;
#X connect 41 0 42 0;
#X connect 42 0 43 0;
#X connect 42 0 46 0;
#X connect 44 0 45 0;
#X connect 46 0 41 0;
#X connect 47 0 37 0;
#X connect 49 0 37 0;
#X connect 49 0 83 0;
#X connect 50 0 41 0;
#X connect 51 0 52 0;
#X connect 51 0 85 0;
#X connect 52 0 53 0;
#X connect 52 1 54 0;
#X connect 53 0 55 0;
#X connect 54 0 55 0;
#X connect 56 0 64 0;
#X connect 57 0 58 0;
#X connect 58 0 61 0;
#X connect 58 1 62 0;
#X connect 59 0 65 0;
#X connect 61 0 59 0;
#X connect 62 0 59 1;
#X connect 63 0 60 0;
#X connect 64 0 65 0;
#X connect 64 1 63 1;
#X connect 65 0 63 0;
#X connect 70 0 71 0;
#X connect 71 0 72 0;
#X connect 71 0 73 0;
#X connect 72 0 70 0;
#X connect 74 0 75 0;
#X connect 75 0 76 0;
#X connect 75 0 78 0;
#X connect 76 0 74 0;
#X connect 78 0 84 0;
#X connect 79 0 1 0;
#X connect 79 1 4 0;
#X connect 79 2 6 0;
#X connect 79 3 18 0;
#X connect 79 4 19 0;
#X connect 79 5 20 0;
#X connect 79 6 31 0;
#X connect 79 7 32 0;
#X connect 79 8 21 0;
#X connect 79 9 39 0;
#X connect 79 10 48 0;
#X connect 79 11 80 0;
#X connect 79 12 81 0;
#X connect 82 0 78 1;
#X connect 84 0 77 0;
#X coords 0 -1 1 1 431 128 2 289 212;
