#N canvas 51 141 1256 600 10;
#X obj 53 128 openpanel;
#X msg 100 226 clear;
#X obj 84 270 s \$0-toText;
#X obj 903 112 r \$0-toText;
#X obj 903 12 table \$0-x 1;
#X obj 903 37 table \$0-y 1;
#X obj 903 62 table \$0-length 1;
#X obj 117 204 s \$0-init;
#X msg 117 182 bang;
#X obj 903 137 text define file;
#N canvas 481 201 781 494 misc 0;
#X obj 2 22 r \$0-init;
#X msg 2 175 \; \$0-x resize \$1 \; \$0-y resize \$1 \; \$0-length
resize \$1;
#X msg 2 44 0;
#X obj 2 86 f;
#X obj 72 22 r \$0-size;
#X obj 52 86 +;
#X obj 72 44 t b f;
#X floatatom 82 134 5 0 0 0 - - -, f 5;
#X obj 142 22 r \$0-resize;
#X obj 142 44 text size file;
#X msg 3 253 \; \$0-x const 0 \; \$0-y const 0 \; \$0-length const
0;
#X obj 270 22 r \$0-enable;
#X obj 270 44 sel 1;
#X msg 307 66 14;
#X msg 270 66 16;
#X obj 629 25 r \$0-cancel;
#X msg 629 47 0;
#X obj 629 69 s \$0-progress;
#X msg 270 88 \; \$0-getEnable color \$1 2 2;
#X msg 477 66 14;
#X obj 440 22 r \$0-compute;
#X msg 440 66 16;
#X obj 524 22 r \$0-open;
#X msg 440 88 \; \$0-getSend color \$1 2 2;
#X connect 0 0 2 0;
#X connect 1 0 10 0;
#X connect 2 0 3 0;
#X connect 2 0 5 1;
#X connect 2 0 5 0;
#X connect 3 0 5 0;
#X connect 4 0 6 0;
#X connect 5 0 3 1;
#X connect 5 0 7 0;
#X connect 5 0 1 0;
#X connect 6 0 3 0;
#X connect 6 1 5 1;
#X connect 8 0 9 0;
#X connect 9 0 1 0;
#X connect 11 0 12 0;
#X connect 12 0 14 0;
#X connect 12 1 13 0;
#X connect 13 0 18 0;
#X connect 14 0 18 0;
#X connect 15 0 16 0;
#X connect 16 0 17 0;
#X connect 19 0 23 0;
#X connect 20 0 21 0;
#X connect 21 0 23 0;
#X connect 22 0 19 0;
#X restore 903 87 pd misc;
#N canvas 729 74 476 610 parse 0;
#X obj 111 12 inlet;
#X obj 132 166 text get file;
#X obj 93 102 bng 15 250 50 0 empty empty empty 17 7 0 10 -262144 -1
-1;
#X obj 132 133 cup;
#X floatatom 95 166 5 0 0 0 - - -, f 5;
#X obj 132 188 list trim;
#X obj 151 344 spell;
#X obj 31 482 stripfilename 1;
#X text 334 366 X Y Z F S M G;
#X obj 151 366 route 88 89 90 70 83 77 71;
#X msg 151 398 X;
#X msg 179 398 Y;
#X msg 207 398 Z;
#X msg 235 398 F;
#X msg 263 398 S;
#X msg 291 398 M;
#X msg 319 398 G;
#X obj 31 504 fromsymbol;
#X obj 132 286 unpack s s s s s s s;
#X msg 97 429 1;
#X msg 128 429 0;
#X obj 132 318 t s s b;
#X obj 31 460 spigot;
#X obj 31 526 list prepend;
#X obj 31 548 list trim;
#X obj 31 570 outlet;
#X obj 132 210 relay G00 G01;
#X obj 111 34 route next bang;
#X msg 131 105 0;
#X obj 228 188 sel 2;
#X obj 276 548 r \$0-stop;
#X obj 276 570 outlet;
#X obj 228 210 s \$0-stop;
#X obj 154 57 t b b b;
#X obj 233 67 r \$0-stop;
#X msg 233 90 0;
#X obj 160 115 spigot;
#X msg 193 90 1;
#X obj 35 36 r \$0-next;
#X obj 35 58 delay 1;
#X msg 207 238 bang;
#X obj 207 260 s \$0-next;
#X obj 66 345 cup;
#X obj 157 570 outlet;
#X obj 132 252 t b l b;
#X connect 0 0 27 0;
#X connect 1 0 5 0;
#X connect 1 1 29 0;
#X connect 2 0 3 0;
#X connect 3 0 4 0;
#X connect 3 0 1 0;
#X connect 5 0 26 0;
#X connect 6 0 9 0;
#X connect 7 0 17 0;
#X connect 9 0 10 0;
#X connect 9 1 11 0;
#X connect 9 2 12 0;
#X connect 9 3 13 0;
#X connect 9 4 14 0;
#X connect 9 5 15 0;
#X connect 9 6 16 0;
#X connect 10 0 19 0;
#X connect 10 0 23 1;
#X connect 11 0 19 0;
#X connect 11 0 23 1;
#X connect 12 0 19 0;
#X connect 12 0 23 1;
#X connect 13 0 19 0;
#X connect 13 0 23 1;
#X connect 14 0 19 0;
#X connect 14 0 23 1;
#X connect 15 0 19 0;
#X connect 15 0 23 1;
#X connect 16 0 19 0;
#X connect 16 0 23 1;
#X connect 17 0 23 0;
#X connect 18 0 21 0;
#X connect 18 1 21 0;
#X connect 18 2 21 0;
#X connect 18 3 21 0;
#X connect 18 4 21 0;
#X connect 18 5 21 0;
#X connect 18 6 21 0;
#X connect 19 0 22 1;
#X connect 20 0 22 1;
#X connect 21 0 22 0;
#X connect 21 1 6 0;
#X connect 21 2 20 0;
#X connect 22 0 7 0;
#X connect 23 0 24 0;
#X connect 24 0 25 0;
#X connect 26 0 44 0;
#X connect 26 1 44 0;
#X connect 26 2 40 0;
#X connect 27 0 36 0;
#X connect 27 1 33 0;
#X connect 28 0 3 0;
#X connect 28 0 42 0;
#X connect 29 0 32 0;
#X connect 29 0 42 0;
#X connect 30 0 31 0;
#X connect 33 0 3 0;
#X connect 33 1 28 0;
#X connect 33 2 37 0;
#X connect 34 0 35 0;
#X connect 35 0 36 1;
#X connect 36 0 3 0;
#X connect 37 0 36 1;
#X connect 38 0 39 0;
#X connect 39 0 36 0;
#X connect 40 0 41 0;
#X connect 42 0 43 0;
#X connect 44 0 41 0;
#X connect 44 1 18 0;
#X connect 44 2 42 0;
#X restore 53 316 pd parse;
#X msg 84 248 read -c \$1;
#X obj 18 292 bng 15 250 50 0 empty empty empty 17 7 0 10 -262144 -1
-1;
#N canvas 626 85 538 656 populate 0;
#X obj 28 32 inlet;
#X obj 28 54 route bang;
#X obj 295 34 inlet;
#X obj 85 153 route G F X Y Z, f 18;
#X obj 85 205 f;
#X obj 117 205 f;
#X obj 149 205 f;
#X obj 181 205 f;
#X obj 213 205 f;
#X msg 241 41 -1;
#X obj 241 63 f;
#X obj 241 105 change;
#X obj 295 56 t f b;
#X obj 309 94 f;
#X obj 317 251 tabwrite \$0-x;
#X obj 317 281 tabwrite \$0-y;
#X obj 317 311 tabwrite \$0-length;
#X obj 208 384 f;
#X obj 189 411 -;
#X obj 189 352 t f f b;
#X obj 189 433 pow 2;
#X obj 158 384 f;
#X obj 139 411 -;
#X obj 139 352 t f f b;
#X obj 139 433 pow 2;
#X obj 139 482 +;
#X obj 139 504 sqrt;
#X floatatom 194 88 5 0 0 0 - - -, f 5;
#X floatatom 344 124 5 0 0 0 - - -, f 5;
#X msg 17 153 0;
#X obj 241 127 t b b b b b b;
#X obj 124 608 *;
#X obj 85 227 != 0;
#X obj 139 579 *;
#X floatatom 220 532 5 0 0 0 - - -, f 5;
#X obj 139 548 * 1000;
#X obj 139 526 / 40;
#X connect 0 0 1 0;
#X connect 1 0 9 0;
#X connect 1 0 29 0;
#X connect 1 1 3 0;
#X connect 2 0 12 0;
#X connect 3 0 4 1;
#X connect 3 1 5 1;
#X connect 3 2 6 1;
#X connect 3 3 7 1;
#X connect 3 4 8 1;
#X connect 4 0 32 0;
#X connect 6 0 14 0;
#X connect 6 0 23 0;
#X connect 7 0 15 0;
#X connect 7 0 19 0;
#X connect 8 0 33 0;
#X connect 9 0 10 0;
#X connect 10 0 11 0;
#X connect 10 0 13 1;
#X connect 10 0 27 0;
#X connect 11 0 30 0;
#X connect 12 0 10 0;
#X connect 12 1 13 0;
#X connect 13 0 14 1;
#X connect 13 0 15 1;
#X connect 13 0 16 1;
#X connect 13 0 28 0;
#X connect 17 0 18 1;
#X connect 18 0 20 0;
#X connect 19 0 18 0;
#X connect 19 1 17 1;
#X connect 19 2 17 0;
#X connect 20 0 25 1;
#X connect 21 0 22 1;
#X connect 22 0 24 0;
#X connect 23 0 22 0;
#X connect 23 1 21 1;
#X connect 23 2 21 0;
#X connect 24 0 25 0;
#X connect 25 0 26 0;
#X connect 26 0 34 0;
#X connect 26 0 36 0;
#X connect 29 0 4 0;
#X connect 29 0 8 0;
#X connect 29 0 7 0;
#X connect 29 0 6 0;
#X connect 29 0 5 0;
#X connect 30 2 4 0;
#X connect 30 3 8 0;
#X connect 30 4 6 0;
#X connect 30 5 7 0;
#X connect 31 0 16 0;
#X connect 32 0 31 0;
#X connect 33 0 31 1;
#X connect 35 0 33 1;
#X connect 36 0 35 0;
#X restore 37 363 pd populate;
#X obj 53 150 t b b s b b;
#X obj 68 293 s \$0-resize;
#X floatatom 120 363 5 0 0 0 - - -, f 5;
#X obj 320 133 cnv 15 352 70 empty empty empty 20 12 0 14 -233017 -66577
0;
#X obj 324 160 bng 15 250 50 0 \$0-sendImage \$0-getSend send\ image
17 5 0 10 -260818 -66577 -66577;
#X obj 478 160 bng 15 250 50 0 \$0-cancel empty cancel 17 5 0 10 -258699
-1 -1;
#X obj 411 160 tgl 15 0 \$0-pause empty pause 17 5 0 10 -262144 -1
-1 0 1;
#X obj 324 182 hsl 128 15 0 1 0 0 empty \$0-progress empty 140 5 0
10 -262144 -1 -1 12700 1;
#X obj 550 137 moonlib/mknob 40 100 0.1 10 1 0 empty empty speed 42
15 0 9 -262144 -1 -1 4950 1;
#X floatatom 596 161 5 0 0 0 - - -, f 5;
#X floatatom 460 182 6 0 0 1 progress - -, f 6;
#X obj 324 137 tgl 15 0 \$0-enable \$0-getEnable enable 17 5 0 10 -260818
-66577 -66577 0 1;
#X obj 325 215 * 100;
#X obj 411 137 bng 15 250 50 0 \$0-open empty open\ file 17 5 0 10
-262144 -1 -1;
#X obj 53 104 r \$0-open;
#X obj 15 14 inlet;
#X obj 15 80 s \$0-xMaxAngle;
#X obj 109 80 s \$0-yMaxAngle;
#X obj 203 80 s \$0-halfXMax;
#X obj 291 80 s \$0-halfYMax;
#X obj 15 36 route xMaxAngle yMaxAngle halfXMax halfYMax;
#X msg 701 51 1;
#X obj 701 29 loadbang;
#X obj 739 50 r \$0-halfXMax;
#X obj 739 72 t b f;
#X obj 701 114 /;
#X obj 701 136 s \$0-anglePerMM;
#N canvas 400 69 540 523 audio 0;
#X obj 159 20 r \$0-sendImage;
#X obj 259 20 r \$0-cancel;
#X obj 159 42 t b b;
#X msg 186 79 0;
#X obj 16 20 inlet;
#X obj 23 452 outlet~;
#X obj 227 452 outlet~;
#X obj 120 115 cup;
#X obj 120 137 moses;
#X obj 147 115 + 1;
#X obj 120 159 t f f f f;
#X obj 21 330 delay;
#X obj 171 185 tabread \$0-length;
#X obj 78 372 pack f f;
#X obj 166 372 pack f f;
#X obj 78 350 tabread \$0-x;
#X obj 166 350 tabread \$0-y;
#X obj 78 394 line~;
#X obj 166 394 line~;
#X msg 259 87 stop;
#X obj 93 41 bng 15 250 50 0 empty empty empty 17 7 0 10 -262144 -1
-1;
#X obj 111 17 bng 15 250 50 0 empty empty empty 17 7 0 10 -262144 -1
-1;
#X obj 19 140 /;
#X obj 19 162 s \$0-progress;
#X obj 222 212 r \$0-speed;
#X obj 171 237 /;
#X obj 21 304 f;
#X msg 21 278 bang;
#X floatatom 183 139 7 0 0 0 - - -, f 7;
#X connect 0 0 2 0;
#X connect 1 0 19 0;
#X connect 2 0 7 0;
#X connect 2 1 3 0;
#X connect 3 0 7 0;
#X connect 4 0 9 0;
#X connect 4 0 22 1;
#X connect 7 0 8 0;
#X connect 7 0 22 0;
#X connect 7 0 28 0;
#X connect 8 0 10 0;
#X connect 9 0 8 1;
#X connect 10 2 16 0;
#X connect 10 2 15 0;
#X connect 10 2 27 0;
#X connect 10 3 12 0;
#X connect 11 0 7 0;
#X connect 12 0 25 0;
#X connect 13 0 17 0;
#X connect 14 0 18 0;
#X connect 15 0 13 0;
#X connect 16 0 14 0;
#X connect 17 0 5 0;
#X connect 18 0 6 0;
#X connect 19 0 11 0;
#X connect 20 0 7 0;
#X connect 21 0 2 0;
#X connect 22 0 23 0;
#X connect 24 0 25 1;
#X connect 25 0 13 1;
#X connect 25 0 14 1;
#X connect 25 0 26 1;
#X connect 26 0 11 0;
#X connect 27 0 26 0;
#X restore 412 287 pd audio;
#X obj 333 556 outlet~;
#X obj 490 554 outlet~;
#X obj 457 338 *~;
#X obj 500 312 r \$0-anglePerMM;
#X obj 412 338 *~;
#X obj 67 541 monitoring;
#X obj 67 509 monitoring;
#X obj 412 398 *~;
#X obj 457 398 *~;
#X obj 507 370 r \$0-enable;
#X obj 633 337 loadbang;
#X obj 412 447 *~;
#X obj 457 447 *~;
#X msg 633 389 -1;
#X msg 673 389 1;
#X obj 165 363 s \$0-compute;
#X msg 165 340 1;
#X msg 596 222 set \$1;
#X obj 651 222 s \$0-speed;
#X connect 0 0 15 0;
#X connect 1 0 2 0;
#X connect 3 0 9 0;
#X connect 8 0 7 0;
#X connect 11 0 14 0;
#X connect 11 1 14 1;
#X connect 11 1 17 0;
#X connect 11 1 42 0;
#X connect 11 2 59 0;
#X connect 12 0 2 0;
#X connect 13 0 11 0;
#X connect 13 0 14 0;
#X connect 15 0 11 0;
#X connect 15 0 14 0;
#X connect 15 1 16 0;
#X connect 15 2 12 0;
#X connect 15 3 1 0;
#X connect 15 4 8 0;
#X connect 22 0 27 0;
#X connect 23 0 24 0;
#X connect 24 0 60 0;
#X connect 24 0 61 0;
#X connect 27 0 25 0;
#X connect 29 0 0 0;
#X connect 30 0 35 0;
#X connect 35 0 31 0;
#X connect 35 1 32 0;
#X connect 35 2 33 0;
#X connect 35 3 34 0;
#X connect 36 0 40 0;
#X connect 36 0 23 0;
#X connect 37 0 36 0;
#X connect 38 0 39 0;
#X connect 39 0 40 0;
#X connect 39 1 40 1;
#X connect 40 0 41 0;
#X connect 42 0 47 0;
#X connect 42 1 45 0;
#X connect 45 0 48 0;
#X connect 45 0 51 0;
#X connect 46 0 45 1;
#X connect 46 0 47 1;
#X connect 47 0 49 0;
#X connect 47 0 50 0;
#X connect 50 0 54 0;
#X connect 51 0 55 0;
#X connect 52 0 51 1;
#X connect 52 0 50 1;
#X connect 53 0 56 0;
#X connect 53 0 57 0;
#X connect 54 0 43 0;
#X connect 55 0 44 0;
#X connect 56 0 54 1;
#X connect 57 0 55 1;
#X connect 59 0 58 0;
#X connect 60 0 23 0;
#X coords 0 -1 1 1 360 78 2 316 129;
