#N canvas 35 58 1312 683 10;
#X obj 16 317 r \$0-openImage;
#N canvas 35 108 848 633 ratio 0;
#X obj 24 85 /;
#X floatatom 57 107 5 0 0 0 - - -, f 5;
#X text 95 107 ratio w/h;
#X obj 24 107 f;
#X obj 24 151 s \$0-ratio;
#X obj 136 8 r \$0-imgHeight;
#X obj 24 8 r \$0-imgWidth;
#X obj 24 30 change;
#X obj 136 30 change;
#X obj 210 71 s \$0-disableOutput;
#X obj 24 236 r \$0-setWidthMM;
#X obj 306 236 r \$0-ratio;
#X obj 126 236 r \$0-halfXMax;
#X obj 216 236 r \$0-halfYMax;
#X obj 24 342 s \$0-getHeightMM;
#X obj 706 236 r \$0-ratio;
#X obj 526 236 r \$0-halfYMax;
#X obj 616 236 r \$0-halfXMax;
#X obj 414 342 s \$0-getWidthMM;
#X obj 414 306 LaserCheckSize;
#X obj 24 306 LaserCheckSize;
#X obj 414 236 r \$0-setHeightMM;
#X obj 134 342 s \$0-getWidthMM;
#X obj 524 342 s \$0-getHeightMM;
#X obj 309 262 t b f;
#X obj 309 287 1;
#X obj 308 310 /;
#X connect 0 0 1 0;
#X connect 0 0 3 0;
#X connect 3 0 4 0;
#X connect 5 0 8 0;
#X connect 6 0 7 0;
#X connect 7 0 0 0;
#X connect 7 0 9 0;
#X connect 8 0 0 1;
#X connect 8 0 9 0;
#X connect 10 0 20 0;
#X connect 11 0 24 0;
#X connect 12 0 20 1;
#X connect 13 0 20 2;
#X connect 15 0 19 3;
#X connect 16 0 19 1;
#X connect 17 0 19 2;
#X connect 19 0 18 0;
#X connect 19 1 23 0;
#X connect 20 0 14 0;
#X connect 20 1 22 0;
#X connect 21 0 19 0;
#X connect 24 0 25 0;
#X connect 24 1 26 1;
#X connect 25 0 26 0;
#X connect 26 0 20 3;
#X coords 0 -1 1 1 126 28 2 51 101;
#X restore 597 354 pd ratio;
#N canvas 43 194 1257 547 data 0;
#X obj 22 367 pix_data;
#X text 508 45 Left-bottom to right top;
#X text 508 23 Coords from 0:0 to 1:1, f 29;
#X floatatom 67 394 5 0 0 0 - - -, f 5;
#X text 110 393 Grey value;
#X obj 67 415 * 255;
#X floatatom 67 437 5 0 0 0 - - -, f 5;
#X obj 12 22 inlet;
#X obj 21 489 outlet;
#X text 48 22 gemlist;
#X text 64 489 gemlist;
#X obj 330 22 inlet;
#X text 369 22 compute;
#X obj 239 483 outlet;
#X text 284 483 data;
#X obj 330 52 t b b b;
#X msg 239 453 z \$1;
#X msg 316 323 \; \$0-getCompute color 16;
#X obj 337 261 select;
#X msg 468 291 0;
#X obj 468 313 s \$0-invert;
#X msg 502 291 1;
#X obj 212 87 r \$0-xIncrement;
#X obj 310 87 r \$0-yIncrement;
#X obj 38 87 t b b;
#X obj 76 87 r \$0-zSize;
#X obj 144 87 r \$0-xSize;
#X obj 38 142 i;
#X msg 72 142 0;
#X obj 38 164 until;
#X obj 38 186 cup;
#X obj 58 238 mod;
#X obj 92 238 div;
#X obj 58 273 *;
#X obj 92 273 *;
#X obj 38 208 t b f;
#X floatatom 170 253 10 0 0 0 - - -, f 10;
#X floatatom 92 295 7 0 0 0 - - -, f 7;
#X floatatom 58 325 7 0 0 0 - - -, f 7;
#X floatatom 193 283 10 0 0 0 - - -, f 10;
#X floatatom 193 310 10 0 0 0 - - -, f 10;
#X obj 370 238 - 1;
#X connect 0 0 8 0;
#X connect 0 2 3 0;
#X connect 3 0 5 0;
#X connect 3 0 16 0;
#X connect 5 0 6 0;
#X connect 7 0 0 1;
#X connect 11 0 15 0;
#X connect 15 0 24 0;
#X connect 15 2 21 0;
#X connect 16 0 13 0;
#X connect 18 0 17 0;
#X connect 18 0 19 0;
#X connect 19 0 20 0;
#X connect 21 0 20 0;
#X connect 22 0 33 1;
#X connect 23 0 34 1;
#X connect 24 0 27 0;
#X connect 24 1 28 0;
#X connect 25 0 27 1;
#X connect 25 0 41 0;
#X connect 26 0 31 1;
#X connect 26 0 32 1;
#X connect 27 0 29 0;
#X connect 28 0 30 0;
#X connect 29 0 30 0;
#X connect 30 0 35 0;
#X connect 30 0 36 0;
#X connect 30 0 18 0;
#X connect 31 0 33 0;
#X connect 31 0 39 0;
#X connect 32 0 34 0;
#X connect 32 0 40 0;
#X connect 33 0 0 2;
#X connect 33 0 38 0;
#X connect 34 0 0 3;
#X connect 34 0 37 0;
#X connect 35 0 0 0;
#X connect 35 1 31 0;
#X connect 35 1 32 0;
#X connect 41 0 18 1;
#X coords 0 0 1 1 187 40 0;
#X restore 16 365 pd data;
#N canvas 29 172 1242 592 compute 0;
#X obj 405 129 s \$0-getHeightMM;
#X obj 509 129 s \$0-getWidthMM;
#X obj 11 15 inlet;
#N canvas 87 251 638 454 angleX 0;
#X obj 19 184 LaserComputeAngles;
#X obj 71 102 r \$0-setWidthMM;
#X obj 19 56 t b b b, f 40;
#X obj 45 79 r \$0-xSize;
#X obj 256 125 f;
#X obj 271 102 r \$0-xSize;
#X obj 19 20 inlet;
#X obj 124 148 r \$0-xMaxAngle;
#X obj 19 278 outlet;
#X msg 19 231 x \$1;
#X obj 97 125 r \$0-distance;
#X connect 0 0 9 0;
#X connect 1 0 0 2;
#X connect 2 0 0 0;
#X connect 2 2 4 0;
#X connect 3 0 0 1;
#X connect 5 0 4 1;
#X connect 6 0 2 0;
#X connect 7 0 0 4;
#X connect 9 0 8 0;
#X connect 10 0 0 3;
#X restore 273 229 pd angleX;
#N canvas 335 262 450 323 angleY 0;
#X obj 11 183 LaserComputeAngles;
#X obj 11 45 t b b b, f 40;
#X obj 248 114 f;
#X obj 11 9 inlet;
#X obj 63 91 r \$0-setHeightMM;
#X obj 263 91 r \$0-ySize;
#X obj 116 137 r \$0-yMaxAngle;
#X obj 37 68 r \$0-ySize;
#X obj 11 261 outlet;
#X msg 11 222 y \$1;
#X obj 89 114 r \$0-distance;
#X connect 0 0 9 0;
#X connect 1 0 0 0;
#X connect 1 2 2 0;
#X connect 3 0 1 0;
#X connect 4 0 0 2;
#X connect 5 0 2 1;
#X connect 6 0 0 4;
#X connect 7 0 0 1;
#X connect 9 0 8 0;
#X connect 10 0 0 3;
#X restore 211 229 pd angleY;
#X obj 46 456 outlet;
#X obj 544 289 r \$0-zSize;
#X obj 11 41 t b b b;
#X obj 30 72 delay 10;
#X obj 13 111 delay 20;
#X obj 289 451 outlet;
#X msg 66 415 enable 1;
#X msg 529 364 zSize \$1;
#X obj 529 320 i;
#X obj 449 320 i;
#X obj 369 320 i;
#X obj 384 289 r \$0-xSize;
#X obj 464 289 r \$0-ySize;
#X msg 449 364 ySize \$1;
#X msg 369 364 xSize \$1;
#X msg 915 364 clear;
#X obj 624 289 r \$0-xIncrement;
#X obj 734 289 r \$0-yIncrement;
#X msg 609 364 xIncrement \$1;
#X msg 719 364 yIncrement \$1;
#X obj 609 320 f;
#X obj 719 320 f;
#X obj 833 320 f;
#X obj 12 147 t b b b b b b b b b b b, f 148;
#X msg 833 364 dpi \$1;
#X obj 848 289 r \$0-dpi;
#X connect 2 0 7 0;
#X connect 3 0 10 0;
#X connect 4 0 10 0;
#X connect 6 0 13 1;
#X connect 7 0 9 0;
#X connect 7 1 8 0;
#X connect 7 2 1 0;
#X connect 8 0 0 0;
#X connect 9 0 28 0;
#X connect 11 0 10 0;
#X connect 12 0 10 0;
#X connect 13 0 12 0;
#X connect 14 0 18 0;
#X connect 15 0 19 0;
#X connect 16 0 15 1;
#X connect 17 0 14 1;
#X connect 18 0 10 0;
#X connect 19 0 10 0;
#X connect 20 0 10 0;
#X connect 21 0 25 1;
#X connect 22 0 26 1;
#X connect 23 0 10 0;
#X connect 24 0 10 0;
#X connect 25 0 23 0;
#X connect 26 0 24 0;
#X connect 27 0 29 0;
#X connect 28 0 11 0;
#X connect 28 1 5 0;
#X connect 28 2 4 0;
#X connect 28 3 3 0;
#X connect 28 4 15 0;
#X connect 28 5 14 0;
#X connect 28 6 13 0;
#X connect 28 7 25 0;
#X connect 28 8 26 0;
#X connect 28 9 27 0;
#X connect 28 10 20 0;
#X connect 29 0 10 0;
#X connect 30 0 27 1;
#X restore 196 341 pd compute;
#X obj 284 287 r \$0-disableOutput;
#N canvas 118 147 809 586 image 0;
#X obj 232 75 openpanel;
#X msg 232 98 open \$1;
#X obj 162 143 pix_image;
#X obj 162 51 gemhead;
#X obj 181 169 pix_info;
#X msg 450 121 destroy;
#X obj 162 263 pix_2grey;
#X obj 271 423 pix_duotone;
#X msg 292 329 \$1 \$1 \$1;
#X obj 294 98 s \$0-fileName;
#X obj 252 143 gemwin;
#X obj 209 191 s \$0-imgHeight;
#X obj 195 213 s \$0-imgWidth;
#X obj 242 351 spigot;
#X obj 292 263 r \$0-threshold;
#X obj 252 241 r \$0-enableThreshold;
#X obj 292 285 f;
#X obj 252 263 t f b;
#X obj 232 52 t b b;
#X msg 252 121 reset \, dimen 600 600 \, create \, 1;
#X obj 454 73 tgl 15 0 empty \$0-render empty 17 7 0 10 -262144 -1
-1 0 1;
#X obj 454 93 sel 1;
#X obj 232 14 inlet;
#X obj 232 522 outlet;
#X msg 22 41 0;
#X obj 22 63 s \$0-invert;
#X obj 22 19 loadbang;
#X obj 292 307 / 100;
#X obj 365 176 s \$0-getRender;
#X msg 363 153 1;
#X obj 162 240 pix_invert;
#X obj 62 123 tgl 15 0 empty \$0-invert empty 17 7 0 10 -262144 -1
-1 0 1;
#X obj 133 445 pix_draw;
#X obj 65 160 t b f;
#X connect 0 0 1 0;
#X connect 0 0 9 0;
#X connect 1 0 2 0;
#X connect 1 0 19 0;
#X connect 1 0 29 0;
#X connect 2 0 4 0;
#X connect 2 0 30 0;
#X connect 3 0 2 0;
#X connect 4 1 12 0;
#X connect 4 2 11 0;
#X connect 5 0 10 0;
#X connect 6 0 13 0;
#X connect 6 0 23 0;
#X connect 6 0 32 0;
#X connect 8 0 7 1;
#X connect 13 0 7 0;
#X connect 14 0 16 0;
#X connect 15 0 17 0;
#X connect 16 0 27 0;
#X connect 17 0 13 1;
#X connect 17 1 16 0;
#X connect 18 0 0 0;
#X connect 18 1 5 0;
#X connect 19 0 10 0;
#X connect 20 0 21 0;
#X connect 21 0 19 0;
#X connect 21 1 5 0;
#X connect 22 0 18 0;
#X connect 24 0 25 0;
#X connect 26 0 24 0;
#X connect 27 0 8 0;
#X connect 29 0 28 0;
#X connect 30 0 6 0;
#X connect 31 0 33 0;
#X connect 33 0 3 0;
#X connect 33 1 30 0;
#X restore 16 341 pd image;
#N canvas 117 311 810 352 openimage 0;
#X obj 23 19 cnv 20 352 80 empty empty empty 20 12 0 14 -233017 -66577
0;
#X obj 27 23 bng 15 250 50 0 \$0-openImage empty empty 17 7 0 10 -262144
-1 -1;
#X floatatom 27 61 7 0 0 1 - #0-imgWidth -, f 7;
#X floatatom 27 81 7 0 0 0 - #0-imgHeight -, f 7;
#X text 46 23 open image;
#X symbolatom 27 42 55 0 0 0 - #0-fileName -, f 55;
#X text 84 61 width \, pix;
#X text 84 81 heigth \, pix;
#X obj 235 61 tgl 15 0 \$0-render \$0-getRender picture\ rendering
17 5 0 10 -24198 -66577 -66577 0 1;
#X obj 446 24 r \$0-render;
#X obj 446 46 sel 1;
#X msg 479 68 14;
#X msg 447 89 \; \$0-getRender color \$1 2 2;
#X msg 446 68 16;
#X connect 9 0 10 0;
#X connect 10 0 13 0;
#X connect 10 1 11 0;
#X connect 11 0 12 0;
#X connect 13 0 12 0;
#X coords 0 -1 1 1 354 82 2 22 18;
#X restore 600 35 pd openimage;
#N canvas 252 239 958 525 imagesize 0;
#X obj 394 205 cnv 20 352 70 empty empty empty 20 12 0 14 -233017 -66577
0;
#X obj 561 209 moonlib/mknob 40 1001 0 100 0 0 empty \$0-getThreshold
empty -2 -6 0 8 -262144 -1 -1 50000 1;
#X floatatom 398 209 7 0 0 0 - #0-getWidthMM #0-setWidthMM, f 7;
#X floatatom 398 229 7 0 0 0 - #0-getHeightMM #0-setHeightMM, f 7
;
#X text 455 209 width \, mm;
#X text 455 229 height \, mm;
#X obj 398 249 bng 15 250 50 0 \$0-compute \$0-getCompute empty 17
5 0 10 -260818 -1 -262144;
#X text 417 249 compute;
#X floatatom 606 233 5 0 255 0 - - #0-threshold, f 5;
#X obj 606 209 tgl 15 0 \$0-enableThreshold \$0-getEnableThreshold
empty 17 7 0 10 -262144 -1 -1 0 1;
#X text 561 252 threshold;
#X obj 761 294 r \$0-threshold;
#X obj 791 315 r \$0-enableThreshold;
#X obj 761 446 s \$0-disableOutput;
#X obj 36 60 s \$0-getThreshold;
#X msg 161 38 0;
#X obj 161 60 s \$0-getEnableThreshold;
#X obj 36 16 loadbang;
#X msg 762 232 set \$1;
#X obj 762 210 r \$0-threshold;
#X obj 762 254 s \$0-getThreshold;
#X obj 791 336 r \$0-setWidthMM;
#X obj 791 357 r \$0-setHeightMM;
#X msg 36 38 50;
#X msg 322 38 25.4;
#X text 355 38 mm / inch;
#X obj 322 60 s \$0-mmPerInch;
#X obj 791 378 r \$0-dpi;
#X connect 1 0 8 0;
#X connect 11 0 13 0;
#X connect 12 0 13 0;
#X connect 15 0 16 0;
#X connect 17 0 23 0;
#X connect 17 0 15 0;
#X connect 17 0 24 0;
#X connect 18 0 20 0;
#X connect 19 0 18 0;
#X connect 21 0 13 0;
#X connect 22 0 13 0;
#X connect 23 0 14 0;
#X connect 24 0 26 0;
#X connect 27 0 13 0;
#X coords 0 -1 1 1 354 72 2 393 204;
#X restore 600 120 pd imagesize;
#N canvas 238 160 976 581 coeffs 0;
#X floatatom 272 283 11 0 0 0 - - -, f 11;
#X floatatom 426 283 14 0 0 0 - - -, f 14;
#X obj 80 100 s \$0-xIncrement;
#X obj 10 14 r \$0-setWidthMM;
#X text 346 283 width \, pix;
#X text 522 283 width increment;
#X floatatom 272 303 11 0 0 0 - - -, f 11;
#X floatatom 426 303 14 0 0 0 - - -, f 14;
#X text 346 303 height \, pix;
#X text 522 303 height increment;
#X obj 10 100 s \$0-xSize;
#X obj 30 329 r \$0-xSize;
#X obj 104 329 r \$0-ySize;
#X obj 30 382 *;
#X obj 40 356 t b f;
#X floatatom 272 323 11 0 0 0 - - -, f 11;
#X text 346 323 size \, pix;
#N canvas 100 136 497 537 mm2pix 0;
#X obj 85 88 inlet;
#X obj 85 279 outlet;
#X obj 155 279 outlet;
#X obj 85 140 f;
#X obj 85 162 / 25.4;
#X obj 85 184 *;
#X obj 124 88 r \$0-mmPerInch;
#X text 202 279 increment;
#X text 28 279 size pix;
#X text 36 88 size mm;
#X obj 148 196 t b f;
#X obj 148 218 1;
#X obj 148 240 /;
#X obj 217 88 r \$0-dpi;
#X connect 0 0 3 0;
#X connect 3 0 4 0;
#X connect 4 0 5 0;
#X connect 5 0 1 0;
#X connect 5 0 10 0;
#X connect 6 0 4 1;
#X connect 10 0 11 0;
#X connect 10 1 12 1;
#X connect 11 0 12 0;
#X connect 12 0 2 0;
#X connect 13 0 5 1;
#X restore 10 58 pd mm2pix;
#N canvas 102 188 497 537 pix2mm 0;
#X obj 85 88 inlet;
#X obj 85 279 outlet;
#X obj 155 279 outlet;
#X obj 85 140 f;
#X obj 203 88 r \$0-mmPerInch;
#X text 202 279 increment;
#X text 26 88 size pix;
#X text 28 279 size mm;
#X obj 85 162 /;
#X obj 85 184 * 25.4;
#X obj 154 210 t b f;
#X obj 154 232 1;
#X obj 154 254 /;
#X obj 126 88 r \$0-dpi;
#X connect 0 0 3 0;
#X connect 3 0 8 0;
#X connect 3 0 10 0;
#X connect 4 0 9 1;
#X connect 8 0 9 0;
#X connect 9 0 1 0;
#X connect 10 0 11 0;
#X connect 10 1 12 1;
#X connect 11 0 12 0;
#X connect 12 0 2 0;
#X connect 13 0 8 1;
#X restore 395 58 pd pix2mm;
#N canvas 611 150 497 560 mm2pix 0;
#X obj 85 88 inlet;
#X obj 85 279 outlet;
#X obj 155 279 outlet;
#X obj 85 140 f;
#X obj 85 162 / 25.4;
#X obj 85 184 *;
#X obj 124 88 r \$0-mmPerInch;
#X text 202 279 increment;
#X text 28 279 size pix;
#X text 36 88 size mm;
#X obj 155 211 t b f;
#X obj 155 233 1;
#X obj 155 255 /;
#X obj 217 88 r \$0-dpi;
#X connect 0 0 3 0;
#X connect 3 0 4 0;
#X connect 4 0 5 0;
#X connect 5 0 1 0;
#X connect 5 0 10 0;
#X connect 6 0 4 1;
#X connect 10 0 11 0;
#X connect 10 1 12 1;
#X connect 11 0 12 0;
#X connect 12 0 2 0;
#X connect 13 0 5 1;
#X restore 200 58 pd mm2pix;
#X obj 200 14 r \$0-setHeightMM;
#X obj 200 100 s \$0-ySize;
#X obj 270 100 s \$0-yIncrement;
#X obj 395 14 r \$0-imgWidth;
#X obj 395 36 change;
#X obj 395 102 s \$0-getWidthMM;
#X obj 495 102 s \$0-xOIncrement;
#N canvas 102 188 497 537 pix2mm 0;
#X obj 85 88 inlet;
#X obj 85 279 outlet;
#X obj 155 279 outlet;
#X obj 85 140 f;
#X obj 203 88 r \$0-mmPerInch;
#X text 202 279 increment;
#X text 26 88 size pix;
#X text 28 279 size mm;
#X obj 85 162 /;
#X obj 85 184 * 25.4;
#X obj 155 213 t b f;
#X obj 155 235 1;
#X obj 155 257 /;
#X obj 126 88 r \$0-dpi;
#X connect 0 0 3 0;
#X connect 3 0 8 0;
#X connect 3 0 10 0;
#X connect 4 0 9 1;
#X connect 8 0 9 0;
#X connect 9 0 1 0;
#X connect 10 0 11 0;
#X connect 10 1 12 1;
#X connect 11 0 12 0;
#X connect 12 0 2 0;
#X connect 13 0 8 1;
#X restore 615 58 pd pix2mm;
#X obj 615 36 change;
#X obj 615 14 r \$0-imgHeight;
#X obj 615 102 s \$0-getHeightMM;
#X obj 725 102 s \$0-yOIncrement;
#X obj 30 404 s \$0-zSize;
#X text 272 260 Originale;
#X floatatom 272 373 11 0 0 0 - - -, f 11;
#X floatatom 426 373 14 0 0 0 - - -, f 14;
#X text 346 373 width \, pix;
#X text 522 373 width increment;
#X floatatom 272 393 11 0 0 0 - - -, f 11;
#X floatatom 426 393 14 0 0 0 - - -, f 14;
#X text 346 393 height \, pix;
#X text 522 393 height increment;
#X floatatom 272 413 11 0 0 0 - - -, f 11;
#X text 346 413 size \, pix;
#X text 272 350 Projetée;
#X obj 662 321 r \$0-xIncrement;
#X obj 662 342 r \$0-yIncrement;
#X obj 662 231 r \$0-xOIncrement;
#X obj 662 252 r \$0-yOIncrement;
#X obj 519 195 *;
#X obj 529 169 t b f;
#X obj 519 217 s \$0-zOSize;
#X msg 395 80 set \$1;
#X msg 615 80 set \$1;
#X obj 10 79 i;
#X obj 200 79 i;
#X connect 3 0 17 0;
#X connect 11 0 13 0;
#X connect 11 0 34 0;
#X connect 12 0 14 0;
#X connect 12 0 38 0;
#X connect 13 0 32 0;
#X connect 13 0 42 0;
#X connect 14 0 13 0;
#X connect 14 1 13 1;
#X connect 17 0 54 0;
#X connect 17 1 2 0;
#X connect 18 0 52 0;
#X connect 18 1 26 0;
#X connect 19 0 55 0;
#X connect 19 1 22 0;
#X connect 20 0 19 0;
#X connect 23 0 24 0;
#X connect 24 0 18 0;
#X connect 24 0 49 0;
#X connect 24 0 0 0;
#X connect 27 0 53 0;
#X connect 27 1 31 0;
#X connect 28 0 27 0;
#X connect 28 0 50 0;
#X connect 28 0 6 0;
#X connect 29 0 28 0;
#X connect 45 0 35 0;
#X connect 46 0 39 0;
#X connect 47 0 1 0;
#X connect 48 0 7 0;
#X connect 49 0 51 0;
#X connect 49 0 15 0;
#X connect 50 0 49 0;
#X connect 50 1 49 1;
#X connect 52 0 25 0;
#X connect 53 0 30 0;
#X connect 54 0 10 0;
#X connect 55 0 21 0;
#X coords 0 -1 1 1 358 194 1 267 240;
#X restore 597 384 pd coeffs;
#X obj 196 310 r \$0-compute;
#X msg 295 335 \; \$0-getCompute color 14 \;;
#X msg 284 391 enable 0;
#X obj 114 569 outlet;
#X obj 32 17 inlet;
#X obj 32 39 route xMaxAngle yMaxAngle halfXMax halfYMax dpi distance
;
#X obj 14 83 s \$0-xMaxAngle;
#X obj 108 83 s \$0-yMaxAngle;
#X obj 202 83 s \$0-halfXMax;
#X obj 290 83 s \$0-halfYMax;
#X obj 378 83 s \$0-dpi;
#X obj 436 83 s \$0-distance;
#X connect 0 0 5 0;
#X connect 2 1 12 0;
#X connect 3 0 2 1;
#X connect 3 1 12 0;
#X connect 4 0 11 0;
#X connect 4 0 10 0;
#X connect 5 0 2 0;
#X connect 9 0 3 0;
#X connect 11 0 12 0;
#X connect 13 0 14 0;
#X connect 14 0 15 0;
#X connect 14 1 16 0;
#X connect 14 2 17 0;
#X connect 14 3 18 0;
#X connect 14 4 19 0;
#X connect 14 5 20 0;
#X coords 0 -1 1 1 360 163 2 597 32;
