#N canvas 78 56 1085 685 10;
#X obj 391 96 cnv 15 352 90 empty empty empty 20 12 0 14 -233017 -66577
0;
#X obj 548 143 cnv 15 15 15 empty \$0-tcpconnect empty 20 12 0 14 -260818
-262144 0;
#X obj 548 122 cnv 15 15 15 empty \$0-udpconnect empty 20 12 0 14 -260818
-262144 0;
#X symbolatom 398 122 13 0 0 0 - - -, f 13;
#X obj 415 4 loadbang;
#X msg 74 336 connect \$1 3000;
#X msg 480 336 connect \$1 12520;
#X obj 14 18 import lib-mrpeach;
#X obj 440 394 mrpeach/tcpsend;
#X obj 34 394 mrpeach/udpsend~ 2 2048;
#X msg 385 336 disconnect;
#X text 420 101 connect to laser;
#X obj 34 48 inlet~;
#X obj 109 48 inlet~;
#X obj 617 48 inlet;
#X msg 34 477 \; \$0-udpconnect color \$1 \;;
#X msg 440 477 \; \$0-tcpconnect color \$1 \;;
#X obj 34 417 sel 1;
#X msg 66 442 14;
#X msg 34 442 16;
#X obj 440 417 sel 1;
#X msg 440 442 16;
#X msg 472 442 14;
#X text 570 122 UDP (data streaming);
#X text 570 143 TCP (control);
#X obj 617 334 mrpeach/packOSC;
#X obj 617 312 list trim;
#X obj 617 290 list prepend send;
#X obj 222 235 symbol;
#X obj 415 28 t b b;
#X msg 442 52 set 192.168.1.20;
#X obj 398 102 bng 15 250 50 0 empty \$0-laserconnect empty 17 7 0
10 -260818 -1 -262144;
#X obj 255 114 tgl 15 0 empty empty empty 17 7 0 10 -262144 -1 -1 0
1;
#X obj 222 184 spigot;
#X obj 255 136 == 0;
#X obj 272 184 spigot;
#X msg 255 90 0;
#X obj 338 510 &;
#X obj 360 478 f;
#X obj 322 478 f;
#X obj 368 440 t b f;
#X obj 320 438 t f b;
#X obj 322 383 loadbang;
#X msg 322 405 0;
#X obj 338 532 sel 1;
#X msg 338 560 16;
#X msg 370 560 14;
#X msg 338 595 \; \$0-laserconnect color \$1 \;;
#X obj 255 554 s \$0-connect;
#X obj 170 90 r \$0-connect;
#X obj 398 164 bng 15 250 50 0 empty \$0-laserdsp empty 17 7 0 10 -260818
-66577 -66577;
#X obj 393 236 spigot;
#X obj 393 258 tgl 15 0 empty empty empty 17 7 0 10 -262144 -1 -1 0
1;
#X msg 393 279 /dsp \$1;
#X msg 464 272 /laser \$1;
#X obj 781 186 mrpeach/tcpreceive 25347;
#X obj 781 208 mrpeach/unpackOSC;
#X msg 781 449 16;
#X msg 813 449 14;
#X msg 336 240 0;
#X symbolatom 398 142 13 0 0 0 - - -, f 13;
#X text 478 122 IP laser;
#X text 478 142 IP local;
#X msg 475 74 set 192.168.1.33;
#X obj 474 541 symbol;
#X msg 474 563 /ip \$1;
#X obj 303 264 t b b;
#X msg 342 296 /cancel;
#X obj 781 411 sel 1;
#X obj 53 651 outlet~;
#X obj 177 650 outlet~;
#X text 420 164 dsp;
#X obj 477 164 hradio 15 0 0 3 empty \$0-laser Laser\ (off\ /\ auto\ /\ on)
50 5 0 10 -260818 -66577 -66577 0;
#X msg 466 29 0;
#X obj 863 281 route 0 1 2;
#X msg 781 484 \; \$0-laserdsp color \$1 2 2 \;;
#X msg 863 354 \; \$0-laser color \$1 2 2 \;;
#X msg 863 319 14;
#X msg 895 319 16;
#X obj 781 230 mrpeach/routeOSC /dsp /laser /id;
#X connect 3 0 28 1;
#X connect 4 0 29 0;
#X connect 4 0 73 0;
#X connect 5 0 9 0;
#X connect 6 0 8 0;
#X connect 8 0 20 0;
#X connect 8 0 40 0;
#X connect 9 0 17 0;
#X connect 9 0 41 0;
#X connect 10 0 9 0;
#X connect 10 0 8 0;
#X connect 12 0 9 0;
#X connect 12 0 69 0;
#X connect 13 0 9 1;
#X connect 13 0 70 0;
#X connect 14 0 27 0;
#X connect 17 0 19 0;
#X connect 17 1 18 0;
#X connect 18 0 15 0;
#X connect 19 0 15 0;
#X connect 20 0 21 0;
#X connect 20 0 64 0;
#X connect 20 1 22 0;
#X connect 21 0 16 0;
#X connect 22 0 16 0;
#X connect 25 0 8 0;
#X connect 26 0 25 0;
#X connect 27 0 26 0;
#X connect 28 0 6 0;
#X connect 28 0 5 0;
#X connect 29 0 3 0;
#X connect 29 0 36 0;
#X connect 29 0 60 0;
#X connect 29 1 30 0;
#X connect 29 1 63 0;
#X connect 30 0 3 0;
#X connect 31 0 33 0;
#X connect 31 0 35 0;
#X connect 32 0 34 0;
#X connect 32 0 35 1;
#X connect 32 0 51 1;
#X connect 33 0 28 0;
#X connect 34 0 33 1;
#X connect 35 0 59 0;
#X connect 35 0 66 0;
#X connect 36 0 32 0;
#X connect 37 0 44 0;
#X connect 37 0 48 0;
#X connect 38 0 37 1;
#X connect 39 0 37 0;
#X connect 40 0 39 0;
#X connect 40 1 38 1;
#X connect 41 0 39 0;
#X connect 41 1 38 0;
#X connect 42 0 43 0;
#X connect 43 0 39 1;
#X connect 43 0 38 1;
#X connect 44 0 45 0;
#X connect 44 1 46 0;
#X connect 45 0 47 0;
#X connect 46 0 47 0;
#X connect 49 0 32 0;
#X connect 50 0 51 0;
#X connect 51 0 52 0;
#X connect 52 0 53 0;
#X connect 53 0 27 0;
#X connect 54 0 27 0;
#X connect 55 0 56 0;
#X connect 56 0 79 0;
#X connect 57 0 75 0;
#X connect 58 0 75 0;
#X connect 59 0 52 0;
#X connect 60 0 64 0;
#X connect 63 0 60 0;
#X connect 64 0 65 0;
#X connect 65 0 27 0;
#X connect 66 0 10 0;
#X connect 66 1 67 0;
#X connect 67 0 27 0;
#X connect 68 0 57 0;
#X connect 68 1 58 0;
#X connect 72 0 54 0;
#X connect 73 0 72 0;
#X connect 74 0 77 0;
#X connect 74 1 78 0;
#X connect 74 2 77 0;
#X connect 77 0 76 0;
#X connect 78 0 76 0;
#X connect 79 0 68 0;
#X connect 79 1 74 0;
#X coords 0 -1 1 1 360 98 2 387 92;
