#N canvas 21 168 1175 510 10;
#X obj 17 38 inlet;
#X text 17 10 bang;
#X obj 207 38 inlet;
#X text 207 10 size \, mm;
#X obj 17 104 f;
#X obj 17 126 until;
#X obj 316 38 inlet;
#X text 316 10 distance;
#X obj 17 305 atan2;
#X obj 17 396 outlet;
#X obj 17 60 t b b;
#X obj 17 160 cup;
#X msg 62 126 0;
#X obj 17 201 expr ( $f1 - ( $f2 / 2 ) );
#X obj 110 38 inlet;
#X text 110 10 size \, pix;
#X text 225 201 (index - (size / 2) (pixels);
#X obj 150 120 /;
#X obj 150 86 t b f;
#X obj 17 253 /;
#X text 80 305 Angle in radians;
#X obj 409 38 inlet;
#X text 409 10 max angle;
#X obj 17 347 /;
#X text 77 347 Angle mapped from -1 to 1 (max audio amplitude);
#X connect 0 0 10 0;
#X connect 2 0 18 0;
#X connect 4 0 5 0;
#X connect 5 0 11 0;
#X connect 6 0 8 1;
#X connect 8 0 23 0;
#X connect 10 0 4 0;
#X connect 10 1 12 0;
#X connect 11 0 13 0;
#X connect 12 0 11 0;
#X connect 13 0 19 0;
#X connect 14 0 4 1;
#X connect 14 0 17 0;
#X connect 14 0 13 1;
#X connect 17 0 19 1;
#X connect 18 0 17 0;
#X connect 18 1 17 1;
#X connect 19 0 8 0;
#X connect 21 0 23 1;
#X connect 23 0 9 0;
#X coords 0 0 1 1 85 60 0;
