#N canvas 104 77 1237 664 10;
#X msg 936 126 destroy;
#X obj 897 192 gemwin;
#X obj 45 273 cnv 15 423 120 empty empty empty 20 12 0 14 -233017 -66577
0;
#X obj 275 277 moonlib/mknob 40 100 0 2 0 0 empty empty speed 42 15
0 9 -262144 -1 -1 1237 1;
#X floatatom 321 301 5 0 0 0 - - -, f 5;
#X obj 49 277 tgl 15 0 \$0-setEnable \$0-getEnable enable 17 5 0 10
-260818 -66577 -66577 0 1;
#N canvas 190 136 618 483 misc 0;
#X obj 12 3 sel 1;
#X msg 49 25 14;
#X msg 12 25 16;
#X obj 218 47 r \$0-halfXMax;
#X obj 210 91 f;
#X obj 210 114 /;
#X obj 218 69 t b f;
#X floatatom 270 158 9 0 0 0 - - -, f 9;
#X msg 210 25 1;
#X obj 310 91 f;
#X obj 310 114 /;
#X obj 318 69 t b f;
#X floatatom 370 158 9 0 0 0 - - -, f 9;
#X msg 310 25 1;
#X obj 318 47 r \$0-halfYMax;
#X obj 210 136 s \$0-xAnglePerMM;
#X obj 310 136 s \$0-yAnglePerMM;
#X obj 210 -19 loadbang;
#X obj 12 -19 r \$0-setEnable;
#X msg 12 47 \; \$0-getEnable color \$1 2 2;
#X connect 0 0 2 0;
#X connect 0 1 1 0;
#X connect 1 0 19 0;
#X connect 2 0 19 0;
#X connect 3 0 6 0;
#X connect 4 0 5 0;
#X connect 5 0 7 0;
#X connect 5 0 15 0;
#X connect 6 0 4 0;
#X connect 6 1 5 1;
#X connect 8 0 4 0;
#X connect 9 0 10 0;
#X connect 10 0 12 0;
#X connect 10 0 16 0;
#X connect 11 0 9 0;
#X connect 11 1 10 1;
#X connect 13 0 9 0;
#X connect 14 0 11 0;
#X connect 17 0 8 0;
#X connect 17 0 13 0;
#X connect 18 0 0 0;
#X restore 1108 14 pd misc;
#X obj 20 17 inlet;
#X obj 20 39 route xMaxAngle yMaxAngle halfXMax halfYMax dpi distance
;
#X obj 20 83 s \$0-xMaxAngle;
#X obj 114 83 s \$0-yMaxAngle;
#X obj 208 83 s \$0-halfXMax;
#X obj 296 83 s \$0-halfYMax;
#X obj 384 83 s \$0-dpi;
#X obj 442 83 s \$0-distance;
#X obj 578 13 inlet;
#X text 616 13 Moka;
#X obj 578 35 mrpeach/routeOSC /key/pos;
#X obj 578 97 unpack f f f;
#X obj 612 146 - 4;
#X obj 612 168 + 0.5;
#X obj 657 146 - 4;
#X obj 657 168 + 0.5;
#X obj 612 190 * 2;
#X obj 725 92 s MokaIn;
#X msg 725 66 /led/set/one \$1 \$2 \$3;
#X obj 578 238 pack f f f;
#X obj 725 180 ParticlesOrbitPoint;
#X obj 725 210 ParticlesOrbitPoint;
#X obj 725 240 ParticlesOrbitPoint;
#X obj 725 270 ParticlesOrbitPoint;
#N canvas 84 55 496 455 parthead 0;
#X obj 43 74 gemhead;
#X floatatom 113 73 5 0 0 0 - - -, f 5;
#X msg 113 94 speed \$1;
#X obj 43 186 part_gravity;
#X obj 230 13 loadbang;
#X obj 43 136 part_head 1;
#X msg 124 217 0 0 0 0 0 0;
#X msg 112 164 0 0 0;
#X obj 43 340 part_size;
#X floatatom 94 300 5 0 0 0 - - -, f 5;
#X obj 43 407 outlet;
#X obj 43 258 part_source;
#X msg 113 51 0.5;
#X msg 70 217 1;
#X connect 0 0 5 0;
#X connect 1 0 2 0;
#X connect 2 0 5 0;
#X connect 3 0 11 0;
#X connect 4 0 7 0;
#X connect 4 0 6 0;
#X connect 4 0 12 0;
#X connect 4 0 13 0;
#X connect 5 0 3 0;
#X connect 6 0 11 3;
#X connect 7 0 3 1;
#X connect 8 0 10 0;
#X connect 9 0 8 1;
#X connect 11 0 8 0;
#X connect 12 0 1 0;
#X connect 13 0 11 1;
#X restore 725 145 pd parthead;
#X msg 812 146 0;
#X obj 812 112 loadbang;
#X obj 725 300 ParticlesOrbitPoint;
#X obj 725 330 ParticlesOrbitPoint;
#X obj 725 360 ParticlesOrbitPoint;
#X obj 725 390 ParticlesOrbitPoint;
#N canvas 378 135 450 323 parttail 0;
#X obj 13 17 inlet;
#X obj 13 176 part_info;
#X obj 262 156 part_draw;
#X msg 281 123 draw point;
#X obj 41 225 unpack f f f;
#X floatatom 40 251 5 0 0 0 - - -, f 5;
#X floatatom 76 251 5 0 0 0 - - -, f 5;
#X floatatom 112 251 5 0 0 0 - - -, f 5;
#X msg 360 123 draw line;
#X obj 13 137 part_damp 0.1 0.1 0.1;
#X msg 136 102 \$1 \$1 \$1;
#X obj 136 17 inlet;
#X obj 290 69 loadbang;
#X obj 136 39 select 0;
#X msg 181 61 1;
#X obj 228 229 part_render;
#X obj 228 291 sphere;
#X msg 243 260 0.2;
#X msg 275 260 20;
#X obj 13 89 scale;
#X msg 27 41 0.25 0.25 0.25;
#X msg 41 65 1 1 1;
#X floatatom 4 251 5 0 0 0 - - -, f 5;
#X obj 69 16 loadbang;
#X obj 41 345 outlet;
#X obj 88 345 outlet;
#X msg 136 61 0.3;
#X connect 0 0 19 0;
#X connect 1 2 4 0;
#X connect 3 0 2 0;
#X connect 4 0 5 0;
#X connect 4 0 24 0;
#X connect 4 1 6 0;
#X connect 4 1 25 0;
#X connect 4 2 7 0;
#X connect 8 0 2 0;
#X connect 9 0 1 0;
#X connect 9 0 2 0;
#X connect 10 0 9 1;
#X connect 11 0 13 0;
#X connect 12 0 8 0;
#X connect 12 0 17 0;
#X connect 12 0 18 0;
#X connect 13 0 26 0;
#X connect 13 1 14 0;
#X connect 14 0 10 0;
#X connect 14 0 22 0;
#X connect 15 0 16 0;
#X connect 17 0 16 1;
#X connect 18 0 16 2;
#X connect 19 0 9 0;
#X connect 20 0 19 1;
#X connect 21 0 19 2;
#X connect 23 0 20 0;
#X connect 23 0 21 0;
#X connect 26 0 10 0;
#X connect 26 0 22 0;
#X coords 0 -1 1 1 153 44 1 1 229;
#X restore 725 429 pd parttail;
#X obj 657 190 * -2;
#X obj 275 216 loadbang;
#X msg 275 238 0.25;
#X floatatom 125 277 5 0 0 0 - - -, f 5;
#X floatatom 125 298 5 0 0 0 - - -, f 5;
#X text 163 277 width \, mm;
#X text 163 298 height \, mm;
#X obj 897 15 r \$0-setEnable;
#X obj 897 37 sel 1;
#X obj 119 489 *;
#X obj 146 430 r \$0-xAnglePerMM;
#X obj 146 452 t b f;
#X obj 119 430 * 2;
#X obj 119 520 /;
#X floatatom 359 455 5 0 0 0 - - -, f 5;
#X obj 119 542 *~;
#X obj 119 629 outlet~;
#X obj 119 572 *~;
#X obj 259 489 *;
#X obj 286 452 t b f;
#X obj 259 430 * 2;
#X obj 259 520 /;
#X obj 259 542 *~;
#X obj 259 629 outlet~;
#X obj 259 572 *~;
#X obj 305 543 r \$0-setEnable;
#X obj 495 347 loadbang;
#X obj 286 430 r \$0-yAnglePerMM;
#X msg 495 369 100;
#X obj 119 594 *~ -1;
#X obj 259 594 *~ 1;
#X obj 567 510 line~;
#X obj 627 510 line~;
#X obj 359 476 t b f;
#X msg 896 84 reset \, dimen 200 200 \, create \, 1 \, frame 50, f
32;
#X msg 627 488 \$1 20;
#X msg 567 488 \$1 20;
#X connect 0 0 1 0;
#X connect 3 0 4 0;
#X connect 7 0 8 0;
#X connect 8 0 9 0;
#X connect 8 1 10 0;
#X connect 8 2 11 0;
#X connect 8 3 12 0;
#X connect 8 4 13 0;
#X connect 8 5 14 0;
#X connect 15 0 17 0;
#X connect 17 0 18 0;
#X connect 17 0 25 0;
#X connect 18 0 26 0;
#X connect 18 1 19 0;
#X connect 18 2 21 0;
#X connect 19 0 20 0;
#X connect 20 0 23 0;
#X connect 21 0 22 0;
#X connect 22 0 39 0;
#X connect 23 0 26 1;
#X connect 25 0 24 0;
#X connect 26 0 27 1;
#X connect 27 0 28 0;
#X connect 27 1 28 1;
#X connect 27 2 28 2;
#X connect 28 0 29 0;
#X connect 28 1 29 1;
#X connect 28 2 29 2;
#X connect 29 0 30 0;
#X connect 29 1 30 1;
#X connect 29 2 30 2;
#X connect 30 0 34 0;
#X connect 30 1 34 1;
#X connect 30 2 34 2;
#X connect 31 0 27 0;
#X connect 32 0 27 2;
#X connect 33 0 32 0;
#X connect 34 0 35 0;
#X connect 34 1 35 1;
#X connect 34 2 35 2;
#X connect 35 0 36 0;
#X connect 35 1 36 1;
#X connect 35 2 36 2;
#X connect 36 0 37 0;
#X connect 36 1 37 1;
#X connect 36 2 37 2;
#X connect 37 0 38 0;
#X connect 37 2 38 1;
#X connect 38 0 75 0;
#X connect 38 1 74 0;
#X connect 39 0 26 2;
#X connect 40 0 41 0;
#X connect 41 0 3 0;
#X connect 42 0 51 0;
#X connect 43 0 59 0;
#X connect 46 0 47 0;
#X connect 47 0 73 0;
#X connect 47 1 0 0;
#X connect 48 0 52 0;
#X connect 49 0 50 0;
#X connect 50 0 48 0;
#X connect 50 1 48 1;
#X connect 51 0 48 0;
#X connect 52 0 54 0;
#X connect 53 0 72 0;
#X connect 54 0 56 0;
#X connect 56 0 68 0;
#X connect 57 0 60 0;
#X connect 58 0 57 0;
#X connect 58 1 57 1;
#X connect 59 0 57 0;
#X connect 60 0 61 0;
#X connect 61 0 63 0;
#X connect 63 0 69 0;
#X connect 64 0 63 1;
#X connect 64 0 56 1;
#X connect 65 0 67 0;
#X connect 66 0 58 0;
#X connect 67 0 53 0;
#X connect 68 0 55 0;
#X connect 69 0 62 0;
#X connect 70 0 54 1;
#X connect 71 0 61 1;
#X connect 72 0 52 0;
#X connect 72 0 60 0;
#X connect 72 1 52 1;
#X connect 72 1 60 1;
#X connect 73 0 1 0;
#X connect 74 0 71 0;
#X connect 75 0 70 0;
#X coords 0 -1 1 1 430 132 2 42 270;
