#N canvas 19 38 1288 703 10;
#X obj 44 306 LaserCircle;
#X obj 139 306 LaserCircle;
#X obj 234 306 LaserCircle;
#X obj 329 306 LaserCircle;
#X obj 424 306 LaserCircle;
#X obj 519 306 LaserCircle;
#X obj 614 306 LaserCircle;
#X obj 709 306 LaserCircle;
#X obj 777 648 outlet~;
#X obj 841 648 outlet~;
#X obj 45 234 cnv 20 759 68 empty empty empty 20 12 0 14 -233017 -66577
0;
#X floatatom 257 242 7 0 0 1 diameter - -, f 7;
#X floatatom 365 242 7 0 0 1 frequency - -, f 7;
#X obj 129 242 tgl 15 0 \$0-enable \$0-getEnable enable 17 5 0 10 -260818
-66577 -66577 0 1;
#X obj 18 18 inlet;
#X obj 18 84 s \$0-xMaxAngle;
#X obj 112 84 s \$0-yMaxAngle;
#X obj 206 84 s \$0-halfXMax;
#X obj 294 84 s \$0-halfYMax;
#X obj 18 40 route xMaxAngle yMaxAngle halfXMax halfYMax;
#N canvas 0 0 450 300 misc 0;
#X obj 17 48 sel 1;
#X msg 17 70 16;
#X msg 46 70 14;
#X msg 17 92 \; \$0-getEnable color \$1 2 2;
#X obj 17 18 r \$0-enable;
#X connect 0 0 1 0;
#X connect 0 1 2 0;
#X connect 1 0 3 0;
#X connect 2 0 3 0;
#X connect 4 0 0 0;
#X restore 819 37 pd misc;
#X obj 777 615 *~;
#X obj 841 617 *~;
#X obj 414 35 loadbang;
#X msg 414 58 0;
#X obj 777 555 *~;
#X obj 841 557 *~;
#X obj 872 587 r \$0-enable;
#X msg 897 387 1;
#X obj 897 365 loadbang;
#X obj 935 386 r \$0-halfXMax;
#X obj 935 408 t b f;
#X obj 897 450 /;
#X text 51 240 sinesum;
#X obj 897 472 t b f;
#X obj 877 504 *;
#X obj 877 526 / 2;
#X obj 196 242 bng 15 250 50 0 empty empty send 17 5 0 10 -262144 -1
-1;
#X obj 72 179 sig~;
#X msg 72 157 0;
#X obj 474 242 moonlib/mknob 35 200 0 0.5 0 0 empty \$0-phase empty
-2 -6 0 8 -262144 -1 -1 9950 1;
#X msg 474 218 0.25;
#X floatatom 474 282 5 0 0 0 - - -, f 5;
#X obj 517 282 bng 15 250 50 0 empty empty empty 17 7 0 10 -262144
-1 -1;
#X obj 564 242 moonlib/mknob 35 200 -0.5 0.5 0 0 empty \$0-rotate empty
-2 -6 0 8 -262144 -1 -1 9950 1;
#X floatatom 564 282 5 0 0 0 - - -, f 5;
#X obj 607 282 bng 15 250 50 0 empty empty empty 17 7 0 10 -262144
-1 -1;
#X msg 564 218 0;
#X text 603 242 rotate;
#X msg 935 311 set \$1;
#X obj 935 333 s \$0-phase;
#X msg 1038 311 set \$1;
#X obj 1038 333 s \$0-rotate;
#X text 513 242 dephase;
#X connect 0 0 1 0;
#X connect 0 1 1 1;
#X connect 0 2 1 2;
#X connect 0 2 2 2;
#X connect 0 2 7 2;
#X connect 0 2 6 2;
#X connect 0 2 5 2;
#X connect 0 2 4 2;
#X connect 0 2 3 2;
#X connect 1 0 2 0;
#X connect 1 1 2 1;
#X connect 2 0 3 0;
#X connect 2 1 3 1;
#X connect 3 0 4 0;
#X connect 3 1 4 1;
#X connect 4 0 5 0;
#X connect 4 1 5 1;
#X connect 5 0 6 0;
#X connect 5 1 6 1;
#X connect 6 0 7 0;
#X connect 6 1 7 1;
#X connect 7 0 25 0;
#X connect 7 1 26 0;
#X connect 11 0 35 0;
#X connect 12 0 0 6;
#X connect 14 0 19 0;
#X connect 19 0 15 0;
#X connect 19 1 16 0;
#X connect 19 2 17 0;
#X connect 19 3 18 0;
#X connect 21 0 8 0;
#X connect 22 0 9 0;
#X connect 23 0 24 0;
#X connect 23 0 41 0;
#X connect 23 0 47 0;
#X connect 24 0 13 0;
#X connect 24 0 39 0;
#X connect 25 0 21 0;
#X connect 26 0 22 0;
#X connect 27 0 21 1;
#X connect 27 0 22 1;
#X connect 28 0 32 0;
#X connect 29 0 28 0;
#X connect 30 0 31 0;
#X connect 31 0 32 0;
#X connect 31 1 32 1;
#X connect 32 0 34 0;
#X connect 34 0 35 0;
#X connect 34 1 35 1;
#X connect 35 0 36 0;
#X connect 36 0 25 1;
#X connect 36 0 26 1;
#X connect 37 0 0 3;
#X connect 38 0 0 0;
#X connect 38 0 0 1;
#X connect 39 0 38 0;
#X connect 40 0 42 0;
#X connect 41 0 40 0;
#X connect 42 0 49 0;
#X connect 42 0 0 4;
#X connect 42 0 7 4;
#X connect 42 0 6 4;
#X connect 42 0 5 4;
#X connect 42 0 4 4;
#X connect 42 0 3 4;
#X connect 42 0 2 4;
#X connect 42 0 1 4;
#X connect 43 0 41 0;
#X connect 44 0 45 0;
#X connect 45 0 51 0;
#X connect 45 0 0 5;
#X connect 45 0 7 5;
#X connect 45 0 6 5;
#X connect 45 0 5 5;
#X connect 45 0 4 5;
#X connect 45 0 3 5;
#X connect 45 0 2 5;
#X connect 45 0 1 5;
#X connect 46 0 47 0;
#X connect 47 0 44 0;
#X connect 49 0 50 0;
#X connect 51 0 52 0;
#X coords 0 -1 1 1 768 244 2 41 230;
