#N canvas 192 117 939 624 10;
#X obj 633 124 cnv 15 88 156 empty empty empty 20 12 0 14 -233017 -66577
0;
#X obj 60 321 phasor~;
#X obj 60 423 cos~;
#X obj 613 34 inlet;
#X text 651 34 freq;
#X obj 45 34 inlet~;
#X text 89 34 signal;
#X obj 45 515 +~;
#X obj 45 547 outlet~;
#X floatatom 636 127 5 0 0 1 freq. - -, f 5;
#X floatatom 636 150 5 0 0 1 amp. - -, f 5;
#X obj 636 173 tgl 15 0 empty empty r 17 5 0 10 -262144 -1 -1 0 1;
#X obj 538 193 *;
#X obj 295 330 expr 1 / $f1;
#X obj 60 455 *~;
#X obj 629 55 loadbang;
#X obj 538 285 *;
#X msg 629 84 0;
#X obj 636 261 tgl 15 0 empty empty en 17 5 0 10 -262144 -1 -1 1 1
;
#X obj 573 209 sel 1;
#X msg 602 231 1;
#X msg 572 231 -1;
#X obj 60 487 *~;
#X obj 334 34 inlet;
#X text 372 34 init;
#X msg 334 106 0;
#X obj 150 423 cos~;
#X obj 135 34 inlet~;
#X text 179 34 signal;
#X obj 135 515 +~;
#X obj 135 547 outlet~;
#X obj 150 455 *~;
#X obj 150 487 *~;
#X obj 636 193 tgl 15 0 empty empty s 17 5 0 10 -262144 -1 -1 0 1;
#X obj 698 405 *;
#X obj 733 319 sel 1;
#X msg 762 341 1;
#X msg 732 341 -1;
#X obj 435 443 tgl 15 0 empty empty empty 17 7 0 10 -262144 -1 -1 0
1;
#X obj 435 463 metro 1;
#X obj 435 485 snapshot~;
#X obj 435 507 hsl 128 15 -1 1 0 0 empty empty empty -2 -8 0 10 -262144
-1 -1 0 1;
#X msg 661 84 1;
#X obj 575 485 snapshot~;
#X obj 575 507 hsl 128 15 -1 1 0 0 empty empty empty -2 -8 0 10 -262144
-1 -1 0 1;
#X obj 538 156 t b f;
#X obj 572 263 t b f;
#X obj 732 373 t b f;
#X obj 422 34 inlet;
#X text 462 34 phase;
#X obj 150 341 +~;
#X obj 150 381 +~;
#X obj 60 381 +~;
#X obj 512 33 inlet;
#X text 552 33 rotate;
#X obj 422 119 line~;
#X obj 472 119 line~;
#X msg 422 86 \$1 200;
#X msg 472 86 \$1 200;
#X obj 225 34 inlet~;
#X text 269 33 phase;
#X obj 219 547 outlet~;
#X obj 676 173 moonlib/mknob 35 200 0 1 0 0 empty \$0-phase empty -2
-6 0 8 -262144 -1 -1 0 1;
#X floatatom 676 213 5 0 0 0 - - -, f 5;
#X obj 636 214 bng 15 250 50 0 empty empty empty 17 7 0 10 -262144
-1 -1;
#X msg 693 84 0;
#X msg 736 251 set \$1;
#X obj 736 273 s \$0-phase;
#X obj 160 179 +~;
#X obj 160 139 *~;
#X obj 440 264 line~;
#X obj 160 221 *~;
#X msg 440 231 \$1 100;
#X connect 1 0 50 0;
#X connect 1 0 52 0;
#X connect 1 0 61 0;
#X connect 2 0 14 0;
#X connect 2 0 40 0;
#X connect 3 0 45 0;
#X connect 5 0 7 0;
#X connect 7 0 8 0;
#X connect 9 0 12 0;
#X connect 9 0 69 1;
#X connect 10 0 13 0;
#X connect 11 0 19 0;
#X connect 12 0 16 0;
#X connect 13 0 14 1;
#X connect 13 0 31 1;
#X connect 14 0 22 0;
#X connect 15 0 17 0;
#X connect 15 0 42 0;
#X connect 15 0 65 0;
#X connect 16 0 1 0;
#X connect 17 0 11 0;
#X connect 17 0 33 0;
#X connect 18 0 34 0;
#X connect 19 0 21 0;
#X connect 19 1 20 0;
#X connect 20 0 46 0;
#X connect 20 0 71 1;
#X connect 21 0 46 0;
#X connect 21 0 71 1;
#X connect 22 0 7 1;
#X connect 23 0 25 0;
#X connect 25 0 1 1;
#X connect 26 0 31 0;
#X connect 26 0 43 0;
#X connect 27 0 29 0;
#X connect 29 0 30 0;
#X connect 31 0 32 0;
#X connect 32 0 29 1;
#X connect 33 0 35 0;
#X connect 34 0 22 1;
#X connect 34 0 32 1;
#X connect 35 0 37 0;
#X connect 35 1 36 0;
#X connect 36 0 47 0;
#X connect 37 0 47 0;
#X connect 38 0 39 0;
#X connect 39 0 40 0;
#X connect 39 0 43 0;
#X connect 40 0 41 0;
#X connect 42 0 10 0;
#X connect 42 0 9 0;
#X connect 43 0 44 0;
#X connect 45 0 12 0;
#X connect 45 1 12 1;
#X connect 46 0 16 0;
#X connect 46 1 16 1;
#X connect 47 0 34 0;
#X connect 47 1 34 1;
#X connect 48 0 57 0;
#X connect 50 0 51 0;
#X connect 51 0 26 0;
#X connect 52 0 2 0;
#X connect 53 0 58 0;
#X connect 55 0 50 1;
#X connect 56 0 52 1;
#X connect 56 0 51 1;
#X connect 57 0 55 0;
#X connect 58 0 56 0;
#X connect 59 0 69 0;
#X connect 62 0 63 0;
#X connect 63 0 66 0;
#X connect 63 0 72 0;
#X connect 64 0 65 0;
#X connect 65 0 62 0;
#X connect 66 0 67 0;
#X connect 68 0 71 0;
#X connect 69 0 68 0;
#X connect 70 0 68 1;
#X connect 71 0 52 0;
#X connect 71 0 50 0;
#X connect 72 0 70 0;
#X coords 0 -1 1 1 96 164 2 629 120;
