#N canvas 131 153 970 588 10;
#X obj 488 344 cnv 15 352 66 empty empty empty 20 12 0 14 -233017 -66577
0;
#X floatatom 650 349 5 0 0 1 dpi #0-getDPI #0-setDPI, f 5;
#X floatatom 707 349 6 0 0 1 distance #0-getDistance #0-setDistance
, f 6;
#X obj 12 12 loadbang;
#X msg 12 34 300;
#X obj 12 56 s \$0-getDPI;
#X obj 726 46 deg2rad;
#X obj 726 78 s \$0-xMaxAngle;
#X obj 826 46 deg2rad;
#X obj 826 78 s \$0-yMaxAngle;
#X floatatom 709 369 5 0 0 0 - - #0-setXMax, f 5;
#X floatatom 709 389 5 0 0 0 - - #0-setYMax, f 5;
#X text 747 369 max angle x;
#X text 747 389 max angle y;
#X obj 726 14 r \$0-setXMax;
#X obj 826 14 r \$0-setYMax;
#X obj 12 107 r \$0-setDistance;
#X obj 24 128 r \$0-xMaxAngle;
#X obj 24 150 tan;
#X obj 24 172 t b f;
#X obj 12 212 *;
#X obj 242 107 r \$0-setDistance;
#X obj 254 150 tan;
#X obj 254 172 t b f;
#X obj 242 212 *;
#X obj 254 128 r \$0-yMaxAngle;
#X floatatom 133 244 6 0 0 0 - - -, f 6;
#X floatatom 363 244 6 0 0 0 - - -, f 6;
#X obj 42 244 s \$0-halfXMax;
#X obj 272 244 s \$0-halfYMax;
#X obj 133 265 * 2;
#X obj 363 265 * 2;
#X floatatom 493 369 6 0 0 0 - - -, f 6;
#X text 536 369 max width \, mm;
#X floatatom 493 389 6 0 0 0 - - -, f 6;
#X text 536 389 max height \, mm;
#X text 493 348 global settings;
#X obj 22 539 outlet;
#X obj 250 447 r \$0-xMaxAngle;
#X msg 250 469 xMaxAngle \$1;
#X obj 352 447 r \$0-yMaxAngle;
#X msg 352 469 yMaxAngle \$1;
#X obj 454 447 r \$0-halfXMax;
#X obj 550 447 r \$0-halfYMax;
#X msg 646 469 dpi \$1;
#X msg 454 469 halfXMax \$1;
#X msg 550 469 halfYMax \$1;
#X obj 730 447 r \$0-getDistance;
#X msg 730 469 distance \$1;
#X obj 101 56 s \$0-getDistance;
#X text 305 12 y max angle;
#X text 205 12 x max angle;
#X obj 133 287 i;
#X obj 363 287 i;
#X obj 646 447 r \$0-setDPI;
#X msg 306 34 10;
#X msg 206 34 10;
#X msg 101 34 1000;
#X obj 12 274 expr 1 / $f1;
#X obj 12 296 s \$0-xAnglePerMM;
#X obj 242 274 expr 1 / $f1;
#X obj 22 447 r \$0-xAnglePerMM;
#X obj 136 447 r \$0-yAnglePerMM;
#X msg 136 469 yAnglePerMM \$1;
#X msg 22 469 xAnglePerMM \$1;
#X obj 242 296 s \$0-yAnglePerMM;
#X connect 3 0 4 0;
#X connect 3 0 57 0;
#X connect 3 0 56 0;
#X connect 3 0 55 0;
#X connect 4 0 5 0;
#X connect 6 0 7 0;
#X connect 8 0 9 0;
#X connect 14 0 6 0;
#X connect 15 0 8 0;
#X connect 16 0 20 0;
#X connect 17 0 18 0;
#X connect 18 0 19 0;
#X connect 19 0 20 0;
#X connect 19 1 20 1;
#X connect 20 0 26 0;
#X connect 20 0 28 0;
#X connect 20 0 58 0;
#X connect 21 0 24 0;
#X connect 22 0 23 0;
#X connect 23 0 24 0;
#X connect 23 1 24 1;
#X connect 24 0 27 0;
#X connect 24 0 29 0;
#X connect 24 0 60 0;
#X connect 25 0 22 0;
#X connect 26 0 30 0;
#X connect 27 0 31 0;
#X connect 30 0 52 0;
#X connect 31 0 53 0;
#X connect 38 0 39 0;
#X connect 39 0 37 0;
#X connect 40 0 41 0;
#X connect 41 0 37 0;
#X connect 42 0 45 0;
#X connect 43 0 46 0;
#X connect 44 0 37 0;
#X connect 45 0 37 0;
#X connect 46 0 37 0;
#X connect 47 0 48 0;
#X connect 48 0 37 0;
#X connect 52 0 32 0;
#X connect 53 0 34 0;
#X connect 54 0 44 0;
#X connect 55 0 11 0;
#X connect 56 0 10 0;
#X connect 57 0 49 0;
#X connect 58 0 59 0;
#X connect 60 0 65 0;
#X connect 61 0 64 0;
#X connect 62 0 63 0;
#X connect 63 0 37 0;
#X connect 64 0 37 0;
#X coords 0 -1 1 1 360 74 2 484 340;
