#N canvas 25 35 1312 706 10;
#X obj 16 317 r \$0-openImage;
#N canvas 241 65 848 656 ratio 0;
#X obj 24 105 /;
#X floatatom 57 127 5 0 0 0 - - -, f 5;
#X text 95 127 ratio w/h;
#X obj 24 127 f;
#X obj 24 171 s \$0-ratio;
#X obj 136 8 r \$0-imgHeight;
#X obj 24 8 r \$0-imgWidth;
#X obj 24 30 change;
#X obj 136 30 change;
#X obj 232 71 s \$0-disableOutput;
#X obj 24 236 r \$0-setWidthMM;
#X obj 306 236 r \$0-ratio;
#X obj 126 236 r \$0-halfXMax;
#X obj 216 236 r \$0-halfYMax;
#X obj 24 342 s \$0-getHeightMM;
#X obj 706 236 r \$0-ratio;
#X obj 526 236 r \$0-halfYMax;
#X obj 616 236 r \$0-halfXMax;
#X obj 414 342 s \$0-getWidthMM;
#X obj 414 306 LaserCheckSize;
#X obj 24 306 LaserCheckSize;
#X obj 414 236 r \$0-setHeightMM;
#X obj 134 342 s \$0-getWidthMM;
#X obj 524 342 s \$0-getHeightMM;
#X obj 309 262 t b f;
#X obj 309 287 1;
#X obj 308 310 /;
#X obj 136 52 t b f;
#X floatatom 185 93 5 0 0 0 - - -, f 5;
#X floatatom 114 93 5 0 0 0 - - -, f 5;
#X connect 0 0 1 0;
#X connect 0 0 3 0;
#X connect 3 0 4 0;
#X connect 5 0 8 0;
#X connect 6 0 7 0;
#X connect 7 0 0 0;
#X connect 7 0 9 0;
#X connect 7 0 29 0;
#X connect 8 0 9 0;
#X connect 8 0 27 0;
#X connect 8 0 28 0;
#X connect 10 0 20 0;
#X connect 11 0 24 0;
#X connect 12 0 20 1;
#X connect 13 0 20 2;
#X connect 15 0 19 3;
#X connect 16 0 19 1;
#X connect 17 0 19 2;
#X connect 19 0 18 0;
#X connect 19 1 23 0;
#X connect 20 0 14 0;
#X connect 20 1 22 0;
#X connect 21 0 19 0;
#X connect 24 0 25 0;
#X connect 24 1 26 1;
#X connect 25 0 26 0;
#X connect 26 0 20 3;
#X connect 27 0 0 0;
#X connect 27 1 0 1;
#X coords 0 -1 1 1 126 28 2 51 120;
#X restore 797 354 pd ratio;
#N canvas 29 172 1242 592 compute 0;
#X obj 75 111 s \$0-getHeightMM;
#X obj 86 72 s \$0-getWidthMM;
#X obj 11 15 inlet;
#X obj 46 456 outlet;
#X obj 544 289 r \$0-zSize;
#X obj 11 41 t b b b;
#X obj 30 72 delay 10;
#X obj 13 111 delay 20;
#X obj 289 451 outlet;
#X msg 529 364 zSize \$1;
#X obj 529 320 i;
#X obj 449 320 i;
#X obj 369 320 i;
#X obj 384 289 r \$0-xSize;
#X obj 464 289 r \$0-ySize;
#X msg 449 364 ySize \$1;
#X msg 369 364 xSize \$1;
#X msg 695 364 clear;
#X obj 613 320 f;
#X msg 613 364 dpi \$1;
#X obj 628 289 r \$0-dpi;
#X obj 12 147 t b b b b b b b b b, f 115;
#X connect 2 0 5 0;
#X connect 4 0 10 1;
#X connect 5 0 7 0;
#X connect 5 1 6 0;
#X connect 5 2 1 0;
#X connect 6 0 0 0;
#X connect 7 0 21 0;
#X connect 9 0 8 0;
#X connect 10 0 9 0;
#X connect 11 0 15 0;
#X connect 12 0 16 0;
#X connect 13 0 12 1;
#X connect 14 0 11 1;
#X connect 15 0 8 0;
#X connect 16 0 8 0;
#X connect 17 0 8 0;
#X connect 18 0 19 0;
#X connect 19 0 8 0;
#X connect 20 0 18 1;
#X connect 21 1 3 0;
#X connect 21 4 12 0;
#X connect 21 5 11 0;
#X connect 21 6 10 0;
#X connect 21 7 18 0;
#X connect 21 8 17 0;
#X restore 196 341 pd compute;
#X obj 261 412 r \$0-disableOutput;
#N canvas 8 86 809 632 image 0;
#X obj 232 75 openpanel;
#X msg 232 98 open \$1;
#X obj 162 143 pix_image;
#X obj 162 51 gemhead;
#X obj 181 169 pix_info;
#X msg 450 121 destroy;
#X obj 162 343 pix_2grey;
#X obj 271 438 pix_duotone;
#X msg 292 409 \$1 \$1 \$1;
#X obj 294 98 s \$0-fileName;
#X obj 252 143 gemwin;
#X obj 209 191 s \$0-imgHeight;
#X obj 195 213 s \$0-imgWidth;
#X obj 219 387 spigot;
#X obj 292 343 r \$0-threshold;
#X obj 252 321 r \$0-enableThreshold;
#X obj 292 365 f;
#X obj 252 343 t f b;
#X obj 232 52 t b b;
#X obj 454 73 tgl 15 0 empty \$0-render empty 17 7 0 10 -262144 -1
-1 0 1;
#X obj 454 93 sel 1;
#X obj 232 14 inlet;
#X obj 74 470 outlet;
#X msg 22 41 0;
#X obj 22 63 s \$0-invert;
#X obj 22 19 loadbang;
#X obj 292 387 / 100;
#X obj 365 176 s \$0-getRender;
#X msg 363 153 1;
#X obj 162 320 pix_invert;
#X obj 62 123 tgl 15 0 empty \$0-invert empty 17 7 0 10 -262144 -1
-1 0 1;
#X obj 162 438 pix_draw;
#X obj 65 160 t b f;
#X floatatom 308 192 5 0 0 0 - - -, f 5;
#X floatatom 308 214 5 0 0 0 - - -, f 5;
#X obj 539 167 loadbang;
#X obj 595 123 r \$0-ratio;
#X obj 595 145 moses 1;
#X obj 665 223 f;
#X msg 252 121 reset \, dimen 480 480 \, create \, 1;
#X msg 539 189 480;
#X obj 665 245 t f f;
#X obj 665 189 t b f;
#X obj 665 295 pack f f;
#X msg 595 339 dimen \$1 \$2;
#X obj 595 361 s \$0-resize;
#X obj 595 223 f;
#X obj 595 245 t f f;
#X obj 595 189 t b f;
#X obj 595 295 pack f f;
#X obj 162 297 pix_resize;
#X obj 171 267 r \$0-resize;
#X obj 692 270 /;
#X obj 595 270 *;
#X connect 0 0 1 0;
#X connect 0 0 9 0;
#X connect 1 0 2 0;
#X connect 1 0 39 0;
#X connect 1 0 28 0;
#X connect 2 0 4 0;
#X connect 2 0 50 0;
#X connect 3 0 2 0;
#X connect 4 1 12 0;
#X connect 4 1 34 0;
#X connect 4 2 11 0;
#X connect 4 2 33 0;
#X connect 5 0 10 0;
#X connect 6 0 13 0;
#X connect 6 0 22 0;
#X connect 6 0 31 0;
#X connect 8 0 7 1;
#X connect 13 0 7 0;
#X connect 14 0 16 0;
#X connect 15 0 17 0;
#X connect 16 0 26 0;
#X connect 17 0 13 1;
#X connect 17 1 16 0;
#X connect 18 0 0 0;
#X connect 18 1 5 0;
#X connect 19 0 20 0;
#X connect 20 0 39 0;
#X connect 20 1 5 0;
#X connect 21 0 18 0;
#X connect 23 0 24 0;
#X connect 25 0 23 0;
#X connect 26 0 8 0;
#X connect 28 0 27 0;
#X connect 29 0 6 0;
#X connect 30 0 32 0;
#X connect 32 0 3 0;
#X connect 32 1 29 0;
#X connect 35 0 40 0;
#X connect 36 0 37 0;
#X connect 37 0 48 0;
#X connect 37 1 42 0;
#X connect 38 0 41 0;
#X connect 39 0 10 0;
#X connect 40 0 38 1;
#X connect 40 0 46 1;
#X connect 41 0 43 0;
#X connect 41 1 52 0;
#X connect 42 0 38 0;
#X connect 42 1 52 1;
#X connect 43 0 44 0;
#X connect 44 0 45 0;
#X connect 46 0 47 0;
#X connect 47 0 53 0;
#X connect 47 1 49 1;
#X connect 48 0 46 0;
#X connect 48 1 53 1;
#X connect 49 0 44 0;
#X connect 50 0 29 0;
#X connect 51 0 50 0;
#X connect 52 0 43 1;
#X connect 53 0 49 0;
#X restore 16 341 pd image;
#N canvas 117 311 810 352 openimage 0;
#X obj 23 19 cnv 20 352 80 empty empty empty 20 12 0 14 -233017 -66577
0;
#X obj 27 23 bng 15 250 50 0 \$0-openImage empty empty 17 7 0 10 -262144
-1 -1;
#X floatatom 27 61 7 0 0 1 - #0-imgWidth -, f 7;
#X floatatom 27 81 7 0 0 0 - #0-imgHeight -, f 7;
#X text 46 23 open image;
#X symbolatom 27 42 55 0 0 0 - #0-fileName -, f 55;
#X text 84 61 width \, pix;
#X text 84 81 heigth \, pix;
#X obj 235 61 tgl 15 0 \$0-render \$0-getRender picture\ rendering
17 5 0 10 -260818 -66577 -66577 0 1;
#X obj 446 24 r \$0-render;
#X obj 446 46 sel 1;
#X msg 479 68 14;
#X msg 447 89 \; \$0-getRender color \$1 2 2;
#X msg 446 68 16;
#X connect 9 0 10 0;
#X connect 10 0 13 0;
#X connect 10 1 11 0;
#X connect 11 0 12 0;
#X connect 13 0 12 0;
#X coords 0 -1 1 1 354 82 2 22 18;
#X restore 800 35 pd openimage;
#N canvas 158 125 958 571 imagesize 0;
#X obj 394 205 cnv 20 352 70 empty empty empty 20 12 0 14 -233017 -66577
0;
#X obj 661 209 moonlib/mknob 40 1001 0 100 0 0 empty \$0-getThreshold
empty -2 -6 0 8 -262144 -1 -1 50000 1;
#X floatatom 398 209 7 0 0 0 - #0-getWidthMM #0-setWidthMM, f 7;
#X floatatom 398 229 7 0 0 0 - #0-getHeightMM #0-setHeightMM, f 7
;
#X text 445 209 width \, mm;
#X text 445 229 height \, mm;
#X obj 398 249 bng 15 250 50 0 \$0-compute \$0-getCompute empty 17
5 0 10 -260818 -1 -262144;
#X text 417 249 compute;
#X floatatom 706 233 5 0 255 0 - - #0-threshold, f 5;
#X obj 706 209 tgl 15 0 \$0-enableThreshold \$0-getEnableThreshold
empty 17 7 0 10 -262144 -1 -1 0 1;
#X text 661 252 threshold;
#X obj 767 127 r \$0-threshold;
#X obj 797 148 r \$0-enableThreshold;
#X obj 767 279 s \$0-disableOutput;
#X obj 166 70 s \$0-getThreshold;
#X msg 291 48 0;
#X obj 291 70 s \$0-getEnableThreshold;
#X obj 36 16 loadbang;
#X msg 768 65 set \$1;
#X obj 768 43 r \$0-threshold;
#X obj 768 87 s \$0-getThreshold;
#X obj 797 169 r \$0-setWidthMM;
#X obj 797 190 r \$0-setHeightMM;
#X msg 166 48 50;
#X msg 452 48 25.4;
#X text 485 48 mm / inch;
#X obj 452 70 s \$0-mmPerInch;
#X obj 797 211 r \$0-dpi;
#X obj 581 209 moonlib/mknob 40 181 -90 90 0 0 empty \$0-getAngle empty
-2 -6 0 8 -262144 -1 -1 9000 1;
#X floatatom 626 233 5 0 255 0 - - -, f 5;
#X text 581 252 angle;
#X msg 36 48 0;
#X obj 36 70 s \$0-getAngle;
#X floatatom 519 209 5 1 30 1 step - #0-step, f 5;
#X msg 626 324 set \$1;
#X obj 626 346 s \$0-getAngle;
#X obj 716 324 deg2rad;
#X obj 716 346 s \$0-angle;
#X msg 548 48 1;
#X obj 797 232 r \$0-angle;
#X floatatom 467 249 10 0 0 1 progress #0-progress -, f 10;
#X obj 444 324 r \$0-step;
#X floatatom 519 229 5 0 0 1 mm #0-stepMM -, f 5;
#X obj 444 368 *;
#X obj 444 445 /;
#X obj 444 467 s \$0-stepMM;
#X obj 459 346 r \$0-mmPerInch;
#X obj 459 390 r \$0-dpi;
#X obj 459 412 t b f;
#X connect 1 0 8 0;
#X connect 11 0 13 0;
#X connect 12 0 13 0;
#X connect 15 0 16 0;
#X connect 17 0 23 0;
#X connect 17 0 15 0;
#X connect 17 0 24 0;
#X connect 17 0 31 0;
#X connect 17 0 38 0;
#X connect 18 0 20 0;
#X connect 19 0 18 0;
#X connect 21 0 13 0;
#X connect 22 0 13 0;
#X connect 23 0 14 0;
#X connect 24 0 26 0;
#X connect 27 0 13 0;
#X connect 28 0 29 0;
#X connect 29 0 34 0;
#X connect 29 0 36 0;
#X connect 31 0 32 0;
#X connect 34 0 35 0;
#X connect 36 0 37 0;
#X connect 38 0 33 0;
#X connect 39 0 13 0;
#X connect 41 0 43 0;
#X connect 43 0 44 0;
#X connect 44 0 45 0;
#X connect 46 0 43 1;
#X connect 47 0 48 0;
#X connect 48 0 44 0;
#X connect 48 1 44 1;
#X coords 0 -1 1 1 354 72 2 393 204;
#X restore 800 120 pd imagesize;
#N canvas 238 160 976 581 coeffs 0;
#X floatatom 272 283 11 0 0 0 - - -, f 11;
#X floatatom 426 283 14 0 0 0 - - -, f 14;
#X obj 80 100 s \$0-xIncrement;
#X obj 10 14 r \$0-setWidthMM;
#X text 346 283 width \, pix;
#X text 522 283 width increment;
#X floatatom 272 303 11 0 0 0 - - -, f 11;
#X floatatom 426 303 14 0 0 0 - - -, f 14;
#X text 346 303 height \, pix;
#X text 522 303 height increment;
#X obj 10 100 s \$0-xSize;
#X obj 30 329 r \$0-xSize;
#X obj 104 329 r \$0-ySize;
#X obj 30 382 *;
#X obj 40 356 t b f;
#X floatatom 272 323 11 0 0 0 - - -, f 11;
#X text 346 323 size \, pix;
#N canvas 100 136 497 537 mm2pix 0;
#X obj 85 88 inlet;
#X obj 85 279 outlet;
#X obj 155 279 outlet;
#X obj 85 140 f;
#X obj 85 162 / 25.4;
#X obj 85 184 *;
#X obj 124 88 r \$0-mmPerInch;
#X text 202 279 increment;
#X text 28 279 size pix;
#X text 36 88 size mm;
#X obj 148 196 t b f;
#X obj 148 218 1;
#X obj 148 240 /;
#X obj 217 88 r \$0-dpi;
#X connect 0 0 3 0;
#X connect 3 0 4 0;
#X connect 4 0 5 0;
#X connect 5 0 1 0;
#X connect 5 0 10 0;
#X connect 6 0 4 1;
#X connect 10 0 11 0;
#X connect 10 1 12 1;
#X connect 11 0 12 0;
#X connect 12 0 2 0;
#X connect 13 0 5 1;
#X restore 10 58 pd mm2pix;
#N canvas 102 188 497 537 pix2mm 0;
#X obj 85 88 inlet;
#X obj 85 279 outlet;
#X obj 155 279 outlet;
#X obj 85 140 f;
#X obj 203 88 r \$0-mmPerInch;
#X text 202 279 increment;
#X text 26 88 size pix;
#X text 28 279 size mm;
#X obj 85 162 /;
#X obj 85 184 * 25.4;
#X obj 154 210 t b f;
#X obj 154 232 1;
#X obj 154 254 /;
#X obj 126 88 r \$0-dpi;
#X connect 0 0 3 0;
#X connect 3 0 8 0;
#X connect 3 0 10 0;
#X connect 4 0 9 1;
#X connect 8 0 9 0;
#X connect 9 0 1 0;
#X connect 10 0 11 0;
#X connect 10 1 12 1;
#X connect 11 0 12 0;
#X connect 12 0 2 0;
#X connect 13 0 8 1;
#X restore 395 58 pd pix2mm;
#N canvas 611 150 497 560 mm2pix 0;
#X obj 85 88 inlet;
#X obj 85 279 outlet;
#X obj 155 279 outlet;
#X obj 85 140 f;
#X obj 85 162 / 25.4;
#X obj 85 184 *;
#X obj 124 88 r \$0-mmPerInch;
#X text 202 279 increment;
#X text 28 279 size pix;
#X text 36 88 size mm;
#X obj 155 211 t b f;
#X obj 155 233 1;
#X obj 155 255 /;
#X obj 217 88 r \$0-dpi;
#X connect 0 0 3 0;
#X connect 3 0 4 0;
#X connect 4 0 5 0;
#X connect 5 0 1 0;
#X connect 5 0 10 0;
#X connect 6 0 4 1;
#X connect 10 0 11 0;
#X connect 10 1 12 1;
#X connect 11 0 12 0;
#X connect 12 0 2 0;
#X connect 13 0 5 1;
#X restore 200 58 pd mm2pix;
#X obj 200 14 r \$0-setHeightMM;
#X obj 200 100 s \$0-ySize;
#X obj 270 100 s \$0-yIncrement;
#X obj 395 14 r \$0-imgWidth;
#X obj 395 36 change;
#X obj 395 102 s \$0-getWidthMM;
#X obj 495 102 s \$0-xOIncrement;
#N canvas 102 188 497 537 pix2mm 0;
#X obj 85 88 inlet;
#X obj 85 279 outlet;
#X obj 155 279 outlet;
#X obj 85 140 f;
#X obj 203 88 r \$0-mmPerInch;
#X text 202 279 increment;
#X text 26 88 size pix;
#X text 28 279 size mm;
#X obj 85 162 /;
#X obj 85 184 * 25.4;
#X obj 155 213 t b f;
#X obj 155 235 1;
#X obj 155 257 /;
#X obj 126 88 r \$0-dpi;
#X connect 0 0 3 0;
#X connect 3 0 8 0;
#X connect 3 0 10 0;
#X connect 4 0 9 1;
#X connect 8 0 9 0;
#X connect 9 0 1 0;
#X connect 10 0 11 0;
#X connect 10 1 12 1;
#X connect 11 0 12 0;
#X connect 12 0 2 0;
#X connect 13 0 8 1;
#X restore 615 58 pd pix2mm;
#X obj 615 36 change;
#X obj 615 14 r \$0-imgHeight;
#X obj 615 102 s \$0-getHeightMM;
#X obj 725 102 s \$0-yOIncrement;
#X obj 30 404 s \$0-zSize;
#X text 272 260 Originale;
#X floatatom 272 373 11 0 0 0 - - -, f 11;
#X floatatom 426 373 14 0 0 0 - - -, f 14;
#X text 346 373 width \, pix;
#X text 522 373 width increment;
#X floatatom 272 393 11 0 0 0 - - -, f 11;
#X floatatom 426 393 14 0 0 0 - - -, f 14;
#X text 346 393 height \, pix;
#X text 522 393 height increment;
#X floatatom 272 413 11 0 0 0 - - -, f 11;
#X text 346 413 size \, pix;
#X text 272 350 Projetée;
#X obj 662 321 r \$0-xIncrement;
#X obj 662 342 r \$0-yIncrement;
#X obj 662 231 r \$0-xOIncrement;
#X obj 662 252 r \$0-yOIncrement;
#X obj 519 195 *;
#X obj 529 169 t b f;
#X obj 519 217 s \$0-zOSize;
#X msg 395 80 set \$1;
#X msg 615 80 set \$1;
#X obj 10 79 i;
#X obj 200 79 i;
#X connect 3 0 17 0;
#X connect 11 0 13 0;
#X connect 11 0 34 0;
#X connect 12 0 14 0;
#X connect 12 0 38 0;
#X connect 13 0 32 0;
#X connect 13 0 42 0;
#X connect 14 0 13 0;
#X connect 14 1 13 1;
#X connect 17 0 54 0;
#X connect 17 1 2 0;
#X connect 18 0 52 0;
#X connect 18 1 26 0;
#X connect 19 0 55 0;
#X connect 19 1 22 0;
#X connect 20 0 19 0;
#X connect 23 0 24 0;
#X connect 24 0 18 0;
#X connect 24 0 49 0;
#X connect 24 0 0 0;
#X connect 27 0 53 0;
#X connect 27 1 31 0;
#X connect 28 0 27 0;
#X connect 28 0 50 0;
#X connect 28 0 6 0;
#X connect 29 0 28 0;
#X connect 45 0 35 0;
#X connect 46 0 39 0;
#X connect 47 0 1 0;
#X connect 48 0 7 0;
#X connect 49 0 51 0;
#X connect 49 0 15 0;
#X connect 50 0 49 0;
#X connect 50 1 49 1;
#X connect 52 0 25 0;
#X connect 53 0 30 0;
#X connect 54 0 10 0;
#X connect 55 0 21 0;
#X coords 0 -1 1 1 358 194 1 267 240;
#X restore 797 384 pd coeffs;
#X obj 196 310 r \$0-compute;
#X msg 261 476 enable 0;
#X obj 114 569 outlet;
#X obj 32 17 inlet;
#X obj 32 83 s \$0-xMaxAngle;
#X obj 126 83 s \$0-yMaxAngle;
#X obj 220 83 s \$0-halfXMax;
#X obj 308 83 s \$0-halfYMax;
#X obj 396 83 s \$0-dpi;
#X obj 454 83 s \$0-distance;
#X obj 32 39 route xMaxAngle yMaxAngle halfXMax halfYMax dpi distance
xAnglePerMM yAnglePerMM, f 114;
#X obj 542 83 s \$0-xAnglePerMM;
#X obj 648 83 s \$0-yAnglePerMM;
#X msg 272 438 \; \$0-getCompute color 14;
#N canvas 66 142 1257 599 data 0;
#X obj 22 367 pix_data;
#X text 508 45 Left-bottom to right top;
#X text 508 23 Coords from 0:0 to 1:1, f 29;
#X floatatom 67 394 5 0 0 0 - - -, f 5;
#X text 110 393 Grey value;
#X obj 12 22 inlet;
#X obj 21 489 outlet;
#X text 48 22 gemlist;
#X text 64 489 gemlist;
#X obj 330 22 inlet;
#X text 369 22 compute;
#X obj 409 553 outlet;
#X text 454 553 data;
#X obj 330 52 t b b b;
#X msg 239 453 z \$1;
#X msg 833 304 \; \$0-getCompute color 16;
#X msg 985 272 0;
#X obj 985 294 s \$0-invert;
#X msg 1019 272 1;
#X msg 560 453 x \$1;
#X msg 283 453 i \$1;
#X obj 1014 394 r \$0-dpi;
#X floatatom 924 453 5 0 0 0 - - -, f 5;
#X msg 880 453 y \$1;
#X obj 880 420 expr $f4 * ($f1 - ($f2 / 2)) / $f3;
#X obj 1081 394 r \$0-mmPerInch;
#X obj 694 394 r \$0-dpi;
#X obj 560 420 expr $f4 * ($f1 - ($f2 / 2)) / $f3;
#X obj 761 394 r \$0-mmPerInch;
#X floatatom 603 453 5 0 0 0 - - -, f 5;
#X obj 947 394 r \$0-ySize;
#X obj 627 394 r \$0-xSize;
#N canvas 88 71 635 670 position 0;
#X obj 176 245 f;
#X obj 216 245 +;
#X obj 803 322 r \$0-angle;
#X obj 803 344 abs;
#X obj 803 418 moses;
#X obj 886 322 loadbang;
#X msg 886 344 1;
#X obj 886 366 atan;
#X obj 728 418 moses 0;
#X obj 176 324 moses;
#X msg 176 222 0;
#X obj 724 18 r \$0-xSize;
#X obj 803 18 r \$0-ySize;
#X obj 882 18 r \$0-xIncrement;
#X obj 991 18 r \$0-yIncrement;
#X obj 596 115 r \$0-step;
#X msg 803 440 0;
#X msg 835 440 1;
#X obj 803 462 s \$0-swap;
#X obj 724 96 pack f f;
#X obj 803 40 t b f;
#X obj 882 96 pack f f;
#X obj 991 40 t b f;
#X obj 724 168 spigot;
#X obj 757 122 r \$0-swap;
#X obj 757 144 == 0;
#X obj 734 194 spigot;
#X obj 767 172 r \$0-swap;
#X obj 734 216 swap;
#X obj 724 248 unpack f f;
#X obj 724 272 s \$0-size1;
#X obj 794 272 s \$0-size2;
#X obj 882 168 spigot;
#X obj 915 122 r \$0-swap;
#X obj 915 144 == 0;
#X obj 892 194 spigot;
#X obj 925 172 r \$0-swap;
#X obj 892 216 swap;
#X obj 882 248 unpack f f;
#X obj 882 272 s \$0-incr1;
#X obj 952 272 s \$0-incr2;
#X obj 203 300 r \$0-size1;
#X msg 728 440 1;
#X msg 760 440 0;
#X obj 803 509 cos;
#X obj 867 509 sin;
#X obj 436 245 f;
#X obj 476 245 +;
#X obj 436 324 moses;
#X obj 463 300 r \$0-size2;
#X obj 24 21 inlet;
#X obj 931 509 tan;
#X obj 1012 417 * 2;
#X obj 931 440 expr $f2 - $f1;
#X obj 803 533 s \$0-cos;
#X obj 867 533 s \$0-sin;
#X obj 931 533 s \$0-tan;
#X obj 436 161 f;
#X obj 476 161 +;
#X obj 491 116 r \$0-cos;
#X obj 491 222 r \$0-sin;
#X obj 231 222 r \$0-cos;
#X obj 436 374 moses 0;
#X obj 176 374 spigot;
#X msg 209 349 0;
#X msg 237 349 1;
#X obj 436 116 *;
#X obj 451 90 r \$0-tan;
#X obj 436 138 * -1;
#X obj 203 275 s \$0-value1;
#X obj 462 277 s \$0-value2;
#X obj 491 138 expr $f2 * 1 / $f1;
#X obj 176 461 pack f f;
#X obj 226 507 spigot;
#X obj 259 461 r \$0-swap;
#X obj 259 483 == 0;
#X obj 176 507 spigot;
#X obj 176 529 swap;
#X obj 226 529 unpack f f;
#X obj 176 615 outlet;
#X obj 435 418 spigot;
#X obj 498 374 == 0;
#X obj 495 418 spigot;
#X obj 495 440 expr $f2 - $f1;
#X obj 576 418 r \$0-size2;
#X obj 436 66 r \$0-size1;
#X obj 236 615 outlet;
#X obj 48 615 outlet;
#X obj 24 43 t b b b;
#X msg 48 443 0;
#X obj 48 467 cup;
#X obj 108 108 until;
#X floatatom 67 518 10 0 0 0 - - -, f 10;
#X floatatom 729 368 5 0 0 0 - - -, f 5;
#X obj 301 492 tgl 15 0 empty empty empty 17 7 0 10 -262144 -1 -1 0
1;
#X obj 538 377 tgl 15 0 empty empty empty 17 7 0 10 -262144 -1 -1 0
1;
#X obj 388 615 outlet;
#X obj 476 23 bng 15 250 50 0 \$0-compute \$0-getCompute compute 17
5 0 10 -260818 -1 -262144;
#X obj 728 462 s \$0-slope;
#X obj 498 352 r \$0-slope;
#X msg 12 85 0;
#X obj 846 373 t b f;
#X obj 803 395 f;
#X obj 388 586 r \$0-stop;
#X floatatom 537 253 5 0 0 0 - - -, f 5;
#N canvas 653 151 677 565 lineEnd 0;
#X obj 189 13 r \$0-value1;
#X obj 204 57 r \$0-size1;
#X obj 313 13 r \$0-value2;
#X obj 328 57 r \$0-size2;
#X obj 189 161 ||;
#X obj 279 81 == 0;
#X obj 298 161 &&;
#X obj 189 299 spigot;
#X obj 298 183 change;
#X obj 298 205 sel 1;
#X obj 298 227 s \$0-stop;
#X obj 189 371 outlet;
#X obj 246 371 outlet;
#X obj 189 35 t f f, f 15;
#X floatatom 130 188 5 0 0 0 - - -, f 5;
#X obj 67 12 inlet;
#X msg 67 34 1;
#X msg 241 230 0;
#X obj 313 393 bng 15 250 50 0 empty empty empty 17 7 0 10 -262144
-1 -1;
#X obj 383 232 bng 15 250 50 0 empty empty empty 17 7 0 10 -262144
-1 -1;
#X obj 303 371 outlet;
#X obj 189 321 t b b b;
#X obj 199 129 bng 15 250 50 0 empty empty empty 17 7 0 10 -262144
-1 -1;
#X obj 329 129 bng 15 250 50 0 empty empty empty 17 7 0 10 -262144
-1 -1;
#X obj 329 107 sel 1;
#X obj 199 107 sel 1;
#X obj 234 299 tgl 15 0 empty empty empty 17 7 0 10 -262144 -1 -1 0
1;
#X obj 269 393 bng 15 250 50 0 empty empty empty 17 7 0 10 -262144
-1 -1;
#X obj 193 393 bng 15 250 50 0 empty empty empty 17 7 0 10 -262144
-1 -1;
#X obj 349 205 bng 15 250 50 0 empty empty empty 17 7 0 10 -262144
-1 -1;
#X obj 349 183 sel 1;
#X obj 301 288 delay 2;
#X obj 313 81 >=;
#X obj 189 81 >=;
#X obj 189 247 sel 1;
#X msg 292 321 1;
#X obj 189 205 t f f;
#X connect 0 0 13 0;
#X connect 1 0 33 1;
#X connect 2 0 32 0;
#X connect 3 0 32 1;
#X connect 4 0 14 0;
#X connect 4 0 36 0;
#X connect 5 0 6 0;
#X connect 6 0 8 0;
#X connect 6 0 30 0;
#X connect 7 0 21 0;
#X connect 8 0 9 0;
#X connect 9 0 10 0;
#X connect 9 0 17 0;
#X connect 9 0 19 0;
#X connect 13 0 33 0;
#X connect 13 1 5 0;
#X connect 15 0 16 0;
#X connect 16 0 7 1;
#X connect 16 0 26 0;
#X connect 17 0 26 0;
#X connect 17 0 7 1;
#X connect 17 0 31 0;
#X connect 17 0 35 0;
#X connect 21 0 11 0;
#X connect 21 0 28 0;
#X connect 21 1 12 0;
#X connect 21 1 27 0;
#X connect 24 0 23 0;
#X connect 25 0 22 0;
#X connect 30 0 29 0;
#X connect 32 0 6 1;
#X connect 32 0 4 1;
#X connect 32 0 24 0;
#X connect 33 0 4 0;
#X connect 33 0 25 0;
#X connect 34 0 7 0;
#X connect 34 0 18 0;
#X connect 35 0 20 0;
#X connect 36 0 34 0;
#X connect 36 1 20 0;
#X restore 267 45 pd lineEnd;
#X obj 100 373 spigot;
#X floatatom 217 324 5 0 0 0 - - -, f 5;
#X floatatom 478 324 5 0 0 0 - - -, f 5;
#X floatatom 191 406 10 0 0 0 - - -, f 10;
#X floatatom 359 406 11 0 0 0 - - -, f 11;
#X obj 304 615 outlet;
#X obj 334 77 sel 1;
#X obj 108 135 t b b b b;
#X obj 104 28 bng 15 250 50 0 empty empty empty 17 7 0 10 -262144 -1
-1;
#X obj 68 112 bng 15 250 50 0 empty empty empty 17 7 0 10 -262144 -1
-1;
#X floatatom 116 273 8 0 0 0 - - -, f 8;
#X floatatom 390 273 8 0 0 0 - - -, f 8;
#X obj 185 108 bng 15 250 50 0 empty empty empty 17 7 0 10 -262144
-1 -1;
#X obj 191 135 t b b b b b;
#X obj 154 24 bng 15 250 50 0 empty empty empty 17 7 0 10 -262144 -1
-1;
#X msg 326 216 1;
#X obj 108 83 delay 1;
#X obj 334 533 f;
#X obj 259 397 change;
#X obj 259 419 t b b;
#X msg 358 494 0;
#X floatatom 349 563 5 0 0 0 - - -, f 5;
#X obj 81 493 s \$0-progress;
#X connect 0 0 1 0;
#X connect 0 0 9 0;
#X connect 0 0 116 0;
#X connect 0 0 69 0;
#X connect 1 0 0 1;
#X connect 2 0 3 0;
#X connect 2 0 8 0;
#X connect 2 0 93 0;
#X connect 3 0 102 0;
#X connect 4 0 16 0;
#X connect 4 0 44 0;
#X connect 4 0 45 0;
#X connect 4 0 51 0;
#X connect 4 1 17 0;
#X connect 4 1 53 0;
#X connect 5 0 6 0;
#X connect 6 0 7 0;
#X connect 7 0 52 0;
#X connect 7 0 101 0;
#X connect 8 0 42 0;
#X connect 8 1 43 0;
#X connect 9 0 63 0;
#X connect 10 0 0 0;
#X connect 11 0 19 0;
#X connect 12 0 20 0;
#X connect 13 0 21 0;
#X connect 14 0 22 0;
#X connect 15 0 71 1;
#X connect 16 0 18 0;
#X connect 17 0 18 0;
#X connect 19 0 23 0;
#X connect 19 0 26 0;
#X connect 20 0 19 0;
#X connect 20 1 19 1;
#X connect 21 0 32 0;
#X connect 21 0 35 0;
#X connect 22 0 21 0;
#X connect 22 1 21 1;
#X connect 23 0 29 0;
#X connect 24 0 25 0;
#X connect 25 0 23 1;
#X connect 26 0 28 0;
#X connect 27 0 26 1;
#X connect 28 0 30 0;
#X connect 28 1 31 0;
#X connect 29 0 30 0;
#X connect 29 1 31 0;
#X connect 32 0 38 0;
#X connect 33 0 34 0;
#X connect 34 0 32 1;
#X connect 35 0 37 0;
#X connect 36 0 35 1;
#X connect 37 0 39 0;
#X connect 37 1 40 0;
#X connect 38 0 39 0;
#X connect 38 1 40 0;
#X connect 41 0 9 1;
#X connect 41 0 107 0;
#X connect 42 0 98 0;
#X connect 43 0 98 0;
#X connect 44 0 54 0;
#X connect 45 0 55 0;
#X connect 46 0 47 0;
#X connect 46 0 48 0;
#X connect 46 0 70 0;
#X connect 46 0 117 0;
#X connect 47 0 46 1;
#X connect 48 0 62 0;
#X connect 49 0 48 1;
#X connect 49 0 108 0;
#X connect 50 0 88 0;
#X connect 51 0 56 0;
#X connect 52 0 53 1;
#X connect 53 0 44 0;
#X connect 53 0 51 0;
#X connect 53 0 45 0;
#X connect 57 0 58 0;
#X connect 57 0 46 0;
#X connect 58 0 57 1;
#X connect 59 0 71 0;
#X connect 60 0 47 1;
#X connect 60 0 104 0;
#X connect 61 0 1 1;
#X connect 62 0 64 0;
#X connect 62 1 65 0;
#X connect 62 1 80 0;
#X connect 62 1 82 0;
#X connect 62 1 110 0;
#X connect 63 0 72 0;
#X connect 63 0 109 0;
#X connect 63 0 124 0;
#X connect 64 0 63 1;
#X connect 64 0 106 1;
#X connect 65 0 63 1;
#X connect 65 0 106 1;
#X connect 66 0 68 0;
#X connect 67 0 66 1;
#X connect 68 0 57 0;
#X connect 71 0 58 1;
#X connect 72 0 73 0;
#X connect 72 0 76 0;
#X connect 73 0 78 0;
#X connect 74 0 75 0;
#X connect 74 0 76 1;
#X connect 74 0 94 0;
#X connect 75 0 73 1;
#X connect 76 0 77 0;
#X connect 77 0 79 0;
#X connect 77 1 86 0;
#X connect 78 0 79 0;
#X connect 78 1 86 0;
#X connect 80 0 72 1;
#X connect 81 0 80 1;
#X connect 82 0 83 0;
#X connect 83 0 72 1;
#X connect 84 0 83 1;
#X connect 85 0 66 0;
#X connect 88 1 91 0;
#X connect 88 2 89 0;
#X connect 88 2 10 0;
#X connect 88 2 105 0;
#X connect 89 0 90 0;
#X connect 90 0 92 0;
#X connect 90 0 87 0;
#X connect 90 0 128 0;
#X connect 91 0 113 0;
#X connect 99 0 81 0;
#X connect 99 0 82 1;
#X connect 99 0 95 0;
#X connect 101 0 102 0;
#X connect 101 1 4 1;
#X connect 102 0 4 0;
#X connect 103 0 96 0;
#X connect 105 0 122 0;
#X connect 105 1 119 0;
#X connect 105 2 112 0;
#X connect 106 0 90 0;
#X connect 112 0 91 1;
#X connect 113 0 106 0;
#X connect 113 2 0 0;
#X connect 113 3 46 0;
#X connect 114 0 122 0;
#X connect 115 0 113 0;
#X connect 118 0 119 0;
#X connect 119 1 106 0;
#X connect 119 2 10 0;
#X connect 119 3 57 0;
#X connect 119 4 121 0;
#X connect 120 0 91 1;
#X connect 121 0 123 1;
#X connect 122 0 91 0;
#X connect 123 0 111 0;
#X connect 123 0 127 0;
#X connect 124 0 125 0;
#X connect 125 0 126 0;
#X connect 125 1 123 0;
#X connect 126 0 123 1;
#X restore 146 152 pd position;
#X obj 164 251 r \$0-xIncrement;
#X obj 284 251 r \$0-yIncrement;
#X obj 269 275 *;
#X obj 149 275 *;
#X msg 384 356 enable 1;
#X floatatom 156 301 15 0 0 0 - - -, f 15;
#X floatatom 273 306 17 0 0 0 - - -, f 17;
#X obj 182 41 bng 15 250 50 0 \$0-compute \$0-getCompute compute 17
5 0 10 -260818 -1 -262144;
#X obj 67 450 spigot;
#X obj 100 418 == 0;
#X obj 137 450 spigot;
#X msg 137 472 0;
#X obj 82 223 t f b;
#X connect 0 0 6 0;
#X connect 0 2 3 0;
#X connect 3 0 41 0;
#X connect 3 0 43 0;
#X connect 5 0 0 1;
#X connect 9 0 13 0;
#X connect 13 1 32 0;
#X connect 13 2 18 0;
#X connect 14 0 11 0;
#X connect 16 0 17 0;
#X connect 18 0 17 0;
#X connect 19 0 11 0;
#X connect 20 0 11 0;
#X connect 21 0 24 2;
#X connect 23 0 11 0;
#X connect 24 0 23 0;
#X connect 24 0 22 0;
#X connect 25 0 24 3;
#X connect 26 0 27 2;
#X connect 27 0 19 0;
#X connect 27 0 29 0;
#X connect 28 0 27 3;
#X connect 30 0 24 1;
#X connect 31 0 27 1;
#X connect 32 0 45 0;
#X connect 32 1 27 0;
#X connect 32 1 36 0;
#X connect 32 2 24 0;
#X connect 32 2 35 0;
#X connect 32 3 43 1;
#X connect 32 3 42 0;
#X connect 32 4 16 0;
#X connect 32 4 15 0;
#X connect 32 4 37 0;
#X connect 33 0 36 1;
#X connect 34 0 35 1;
#X connect 35 0 0 3;
#X connect 35 0 39 0;
#X connect 36 0 0 2;
#X connect 36 0 38 0;
#X connect 37 0 11 0;
#X connect 41 0 14 0;
#X connect 42 0 41 1;
#X connect 43 0 44 0;
#X connect 44 0 14 0;
#X connect 45 0 20 0;
#X connect 45 1 0 0;
#X coords 0 0 1 1 187 40 0;
#X restore 16 366 pd data;
#X connect 0 0 4 0;
#X connect 2 0 22 1;
#X connect 2 1 10 0;
#X connect 3 0 9 0;
#X connect 3 0 21 0;
#X connect 4 0 22 0;
#X connect 8 0 2 0;
#X connect 9 0 10 0;
#X connect 11 0 18 0;
#X connect 18 0 12 0;
#X connect 18 1 13 0;
#X connect 18 2 14 0;
#X connect 18 3 15 0;
#X connect 18 4 16 0;
#X connect 18 5 17 0;
#X connect 18 6 19 0;
#X connect 18 7 20 0;
#X connect 22 1 10 0;
#X coords 0 -1 1 1 360 163 2 797 32;
