#N canvas 305 127 881 546 10;
#X obj 31 15 inlet;
#X obj 31 81 s \$0-xMaxAngle;
#X obj 125 81 s \$0-yMaxAngle;
#X obj 219 81 s \$0-halfXMax;
#X obj 307 81 s \$0-halfYMax;
#X obj 204 204 cnv 20 352 66 empty empty empty 20 12 0 14 -233017 -66577
0;
#X floatatom 317 229 7 0 0 0 - #0-getWidth #0-setWidth, f 7;
#X floatatom 317 251 7 0 0 0 - #0-getHeight #0-setHeight, f 7;
#X text 364 229 width \, mm;
#X text 364 251 height \, mm;
#X obj 208 229 tgl 15 0 empty \$0-getEnable enable 17 5 0 10 -260818
-66577 -66577 0 1;
#X obj 208 251 tgl 15 0 empty empty send\ format 17 5 0 10 -262144
-1 -1 0 1;
#X obj 133 253 sel 1;
#X msg 133 275 16;
#X msg 162 275 14;
#X msg 133 297 \; \$0-getEnable color \$1 2 2;
#X obj 601 25 loadbang;
#X msg 601 47 0;
#X obj 601 69 s \$0-getEnable;
#X text 208 206 support size;
#X obj 345 489 outlet~;
#X obj 397 489 outlet~;
#X obj 710 68 r \$0-halfXMax;
#X obj 702 112 f;
#X obj 702 135 /;
#X obj 710 90 t b f;
#X obj 702 157 s \$0-anglePerMM;
#X floatatom 762 179 9 0 0 0 - - -, f 9;
#X msg 702 46 1;
#N canvas 664 258 625 412 checksize 0;
#X obj 30 31 r \$0-setWidth;
#X obj 58 53 r \$0-halfXMax;
#X obj 30 113 >;
#X obj 30 135 select 1;
#X obj 30 179 s \$0-getWidth;
#X obj 58 75 * 2;
#X obj 30 157 i;
#X obj 150 113 >;
#X obj 150 135 select 1;
#X obj 178 75 * 2;
#X obj 150 157 i;
#X obj 150 31 r \$0-setHeight;
#X obj 178 53 r \$0-halfYMax;
#X obj 150 179 s \$0-getHeight;
#X connect 0 0 2 0;
#X connect 1 0 5 0;
#X connect 2 0 3 0;
#X connect 3 0 6 0;
#X connect 5 0 2 1;
#X connect 5 0 6 1;
#X connect 6 0 4 0;
#X connect 7 0 8 0;
#X connect 8 0 10 0;
#X connect 9 0 7 1;
#X connect 9 0 10 1;
#X connect 10 0 13 0;
#X connect 11 0 7 0;
#X connect 12 0 9 0;
#X restore 586 386 pd checksize;
#X obj 364 294 loadbang;
#X obj 31 37 route xMaxAngle yMaxAngle halfXMax halfYMax;
#X msg 364 316 20;
#N canvas 97 62 450 323 audio 0;
#X obj 295 273 r \$0-anglePerMM;
#X obj 198 379 *~;
#X obj 267 337 *;
#X obj 295 295 t b f;
#X obj 198 441 outlet~;
#X obj 267 273 / 2;
#X obj 267 251 r \$0-setWidth;
#X obj 153 30 inlet;
#X obj 487 30 inlet;
#X obj 213 169 f;
#X obj 198 197 *~;
#X msg 198 74 0;
#X obj 153 52 select 1;
#X obj 153 74 t b b;
#X msg 180 100 0;
#X msg 153 126 1;
#X obj 625 273 r \$0-anglePerMM;
#X obj 528 379 *~;
#X obj 597 337 *;
#X obj 625 295 t b f;
#X obj 528 441 outlet~;
#X obj 597 273 / 2;
#X obj 543 169 f;
#X obj 528 197 *~;
#X obj 597 251 r \$0-setHeight;
#X msg 214 100 0.25;
#X obj 528 225 phasor~;
#X obj 528 271 abs~;
#X obj 528 249 -~ 0.5;
#X obj 528 293 -~ 0.25;
#X obj 528 337 clip~ -1 1;
#X obj 528 315 *~ 8;
#X obj 198 225 phasor~;
#X obj 198 271 abs~;
#X obj 198 249 -~ 0.5;
#X obj 198 293 -~ 0.25;
#X obj 198 337 clip~ -1 1;
#X obj 198 315 *~ 8;
#X connect 0 0 3 0;
#X connect 1 0 4 0;
#X connect 2 0 1 1;
#X connect 3 0 2 0;
#X connect 3 1 2 1;
#X connect 5 0 2 0;
#X connect 6 0 5 0;
#X connect 7 0 12 0;
#X connect 8 0 9 0;
#X connect 8 0 22 0;
#X connect 9 0 10 1;
#X connect 10 0 32 0;
#X connect 11 0 10 0;
#X connect 11 0 23 0;
#X connect 12 0 13 0;
#X connect 12 1 11 0;
#X connect 13 0 15 0;
#X connect 13 1 14 0;
#X connect 13 1 25 0;
#X connect 14 0 32 1;
#X connect 15 0 10 0;
#X connect 15 0 23 0;
#X connect 16 0 19 0;
#X connect 17 0 20 0;
#X connect 18 0 17 1;
#X connect 19 0 18 0;
#X connect 19 1 18 1;
#X connect 21 0 18 0;
#X connect 22 0 23 1;
#X connect 23 0 26 0;
#X connect 24 0 21 0;
#X connect 25 0 26 1;
#X connect 26 0 28 0;
#X connect 27 0 29 0;
#X connect 28 0 27 0;
#X connect 29 0 31 0;
#X connect 30 0 17 0;
#X connect 31 0 30 0;
#X connect 32 0 34 0;
#X connect 33 0 35 0;
#X connect 34 0 33 0;
#X connect 35 0 37 0;
#X connect 36 0 1 0;
#X connect 37 0 36 0;
#X restore 345 392 pd audio;
#X obj 147 377 switch~;
#X connect 0 0 31 0;
#X connect 10 0 12 0;
#X connect 10 0 34 0;
#X connect 11 0 33 0;
#X connect 12 0 13 0;
#X connect 12 1 14 0;
#X connect 13 0 15 0;
#X connect 14 0 15 0;
#X connect 16 0 17 0;
#X connect 16 0 28 0;
#X connect 17 0 18 0;
#X connect 22 0 25 0;
#X connect 23 0 24 0;
#X connect 24 0 26 0;
#X connect 24 0 27 0;
#X connect 25 0 23 0;
#X connect 25 1 24 1;
#X connect 28 0 23 0;
#X connect 30 0 32 0;
#X connect 31 0 1 0;
#X connect 31 1 2 0;
#X connect 31 2 3 0;
#X connect 31 3 4 0;
#X connect 32 0 33 1;
#X connect 33 0 20 0;
#X connect 33 1 21 0;
#X coords 0 -1 1 1 360 74 2 200 200;
