#N canvas 444 162 826 579 10;
#X obj 31 23 inlet;
#X obj 31 508 part_orbitpoint;
#X obj 31 543 outlet;
#X obj 505 21 inlet;
#X obj 524 438 f;
#X obj 559 438 f;
#X obj 490 543 outlet;
#X obj 505 43 unpack f f f;
#X obj 127 99 tgl 15 0 empty empty empty 17 7 0 10 -262144 -1 -1 0
1;
#X obj 490 438 f;
#X obj 490 395 t b b b;
#X obj 490 475 pack f f f;
#X text 146 98 state;
#X obj 127 45 r \$0-state;
#X obj 38 174 spigot;
#X obj 84 23 loadbang;
#X msg 84 45 0;
#X obj 71 149 == 0;
#X obj 207 174 spigot;
#X obj 38 196 select 1;
#X obj 207 196 select 0;
#X obj 74 266 f;
#X obj 119 266 f;
#X obj 74 362 pack f f;
#X msg 74 384 \$1 \$2 0;
#X obj 38 218 t b b b;
#X msg 38 384 1;
#X obj 131 508 s \$0-state;
#X obj 208 315 f;
#X obj 239 315 f;
#X obj 208 348 ==;
#X obj 239 348 ==;
#X obj 208 384 &;
#X obj 207 218 t b b;
#X obj 208 406 select 1;
#X msg 177 451 0;
#X obj 279 458 tgl 15 0 empty empty empty 17 7 0 10 -262144 -1 -1 0
1;
#X floatatom 298 458 5 0 0 0 - - -, f 5;
#X floatatom 334 458 5 0 0 0 - - -, f 5;
#X obj 277 380 r \$0-state;
#X obj 252 107 t f f;
#X obj 690 21 inlet;
#X obj 690 195 t b f;
#X obj 690 277 +;
#X obj 614 195 r \$0-state;
#X obj 690 543 outlet;
#X obj 116 423 loadbang;
#X connect 0 0 1 0;
#X connect 1 0 2 0;
#X connect 3 0 7 0;
#X connect 4 0 11 1;
#X connect 5 0 11 2;
#X connect 7 0 9 1;
#X connect 7 0 40 0;
#X connect 7 1 4 1;
#X connect 7 1 21 1;
#X connect 7 1 30 1;
#X connect 7 2 5 1;
#X connect 7 2 22 1;
#X connect 7 2 31 1;
#X connect 8 0 17 0;
#X connect 8 0 18 1;
#X connect 9 0 11 0;
#X connect 10 0 9 0;
#X connect 10 1 4 0;
#X connect 10 2 5 0;
#X connect 11 0 6 0;
#X connect 13 0 8 0;
#X connect 14 0 19 0;
#X connect 15 0 16 0;
#X connect 16 0 8 0;
#X connect 17 0 14 1;
#X connect 18 0 20 0;
#X connect 19 0 25 0;
#X connect 19 1 10 0;
#X connect 20 0 33 0;
#X connect 20 1 10 0;
#X connect 21 0 23 0;
#X connect 21 0 28 1;
#X connect 21 0 37 0;
#X connect 22 0 23 1;
#X connect 22 0 29 1;
#X connect 22 0 38 0;
#X connect 23 0 24 0;
#X connect 24 0 1 1;
#X connect 25 0 26 0;
#X connect 25 1 21 0;
#X connect 25 2 22 0;
#X connect 26 0 1 2;
#X connect 26 0 27 0;
#X connect 28 0 30 0;
#X connect 29 0 31 0;
#X connect 30 0 32 0;
#X connect 31 0 32 1;
#X connect 32 0 34 0;
#X connect 33 0 28 0;
#X connect 33 1 29 0;
#X connect 34 0 35 0;
#X connect 34 1 10 0;
#X connect 35 0 1 2;
#X connect 35 0 27 0;
#X connect 39 0 36 0;
#X connect 40 0 14 0;
#X connect 40 1 18 0;
#X connect 41 0 42 0;
#X connect 42 0 43 0;
#X connect 42 1 43 1;
#X connect 43 0 45 0;
#X connect 44 0 43 0;
#X connect 46 0 35 0;
#X coords 0 -1 1 1 94 24 2 276 454;
