#N canvas 46 36 1212 667 10;
#X obj 14 6 patches/LaserDSP;
#X obj 14 32 patches/LaserAngles;
#X obj 14 110 patches/LaserFormat;
#X obj 14 188 patches/LaserOffset;
#X obj 14 266 patches/LaserOpenImage;
#X obj 14 500 patches/LaserConnexion;
#X obj 496 274 patches/LaserImageWaveform;
#X connect 1 0 2 0;
#X connect 1 0 3 0;
#X connect 1 0 4 0;
#X connect 1 0 6 0;
#X connect 2 0 5 0;
#X connect 2 1 5 1;
#X connect 3 0 5 0;
#X connect 3 1 5 1;
#X connect 4 0 6 0;
#X connect 6 0 5 0;
#X connect 6 1 5 1;
