#N canvas 51 63 974 678 10;
#X obj 14 6 patches/LaserDSP;
#X obj 14 32 patches/LaserAngles;
#X obj 14 110 patches/LaserFormat;
#X obj 14 188 patches/LaserOffset;
#X obj 14 520 patches/LaserConnexion;
#X obj 14 266 patches/LaserOpenImage_;
#X obj 14 433 patches/LaserComputeImage_;
#X connect 1 0 2 0;
#X connect 1 0 3 0;
#X connect 1 0 5 0;
#X connect 1 0 6 0;
#X connect 2 0 4 0;
#X connect 2 1 4 1;
#X connect 3 0 4 0;
#X connect 3 1 4 1;
#X connect 5 0 6 0;
#X connect 6 0 4 0;
#X connect 6 1 4 1;
