#N canvas 286 179 800 562 10;
#X obj 66 -49 inlet;
#X obj 115 -49 inlet;
#X obj 186 -49 inlet;
#X obj 282 -49 inlet;
#X text 66 -72 size;
#X text 115 -72 half max;
#X text 186 -72 other half max;
#X text 282 -72 ratio;
#X obj 66 6 moses;
#X obj 115 -27 * 2;
#X msg 115 5 set \$1;
#X msg 93 39 436.764;
#X obj 93 61 - 1;
#X obj 66 149 f;
#X obj 66 175 *;
#X obj 93 223 moses;
#X obj 143 201 * 2;
#X msg 143 223 set \$1;
#X msg 133 249 436.764;
#X obj 133 270 - 1;
#X obj 66 377 outlet;
#X obj 66 325 spigot;
#X msg 133 291 0;
#X obj 66 197 t f f;
#X msg 93 291 1;
#X msg 66 347 set \$1;
#X obj 242 377 outlet;
#X obj 242 325 /;
#X msg 242 347 set \$1;
#X obj 93 83 t f f;
#X connect 0 0 8 0;
#X connect 1 0 9 0;
#X connect 2 0 16 0;
#X connect 3 0 14 1;
#X connect 3 0 27 1;
#X connect 8 0 13 0;
#X connect 8 1 11 0;
#X connect 9 0 10 0;
#X connect 9 0 8 1;
#X connect 10 0 11 0;
#X connect 11 0 12 0;
#X connect 12 0 29 0;
#X connect 13 0 14 0;
#X connect 14 0 23 0;
#X connect 15 0 24 0;
#X connect 15 1 18 0;
#X connect 16 0 17 0;
#X connect 16 0 15 1;
#X connect 17 0 18 0;
#X connect 18 0 19 0;
#X connect 19 0 22 0;
#X connect 19 0 27 0;
#X connect 19 0 25 0;
#X connect 21 0 25 0;
#X connect 22 0 21 1;
#X connect 23 0 21 0;
#X connect 23 1 15 0;
#X connect 24 0 21 1;
#X connect 25 0 20 0;
#X connect 27 0 28 0;
#X connect 28 0 26 0;
#X connect 29 0 13 0;
#X connect 29 1 28 0;
