#N canvas 149 57 948 684 10;
#X obj 13 11 inlet;
#X obj 13 33 route xMaxAngle yMaxAngle halfXMax halfYMax dpi distance
;
#X obj 13 77 s \$0-xMaxAngle;
#X obj 107 77 s \$0-yMaxAngle;
#X obj 201 77 s \$0-halfXMax;
#X obj 289 77 s \$0-halfYMax;
#X obj 377 77 s \$0-dpi;
#X obj 435 77 s \$0-distance;
#X obj 181 237 cnv 15 352 112 empty empty empty 20 12 0 14 -233017
-66577 0;
#X obj 186 262 bng 15 250 50 0 \$0-open empty open 17 5 0 10 -262144
-1 -1;
#X obj 246 262 bng 15 250 50 0 \$0-play empty play 17 5 0 10 -262144
-1 -1;
#X obj 306 262 bng 15 250 50 0 \$0-stop empty stop 17 5 0 10 -262144
-1 -1;
#X text 201 317 45;
#X text 187 317 33;
#X floatatom 246 284 5 0 0 1 iterations - #0-iterations, f 5;
#X obj 186 284 tgl 15 0 \$0-enable \$0-getEnable enable 17 5 0 10 -260818
-66577 -66577 0 1;
#X obj 306 305 tgl 15 0 \$0-comp empty compensate 17 5 0 10 -262144
-1 -1 1 1;
#N canvas 0 0 450 300 misc 0;
#X obj 14 56 sel 1;
#X msg 14 78 16;
#X msg 43 78 14;
#X msg 14 100 \; \$0-getEnable color \$1 2 2;
#X obj 14 26 r \$0-enable;
#X connect 0 0 1 0;
#X connect 0 1 2 0;
#X connect 1 0 3 0;
#X connect 2 0 3 0;
#X connect 4 0 0 0;
#X restore 706 25 pd misc;
#N canvas 232 169 709 417 file 0;
#X obj 429 7 table \$0-track;
#X obj 15 36 openpanel;
#X obj 15 80 soundfiler;
#X obj 187 36 samplerate~;
#X obj 15 142 expr $f2 / $f1;
#X obj 125 142 expr $f1 / $f2;
#X obj 15 14 r \$0-open;
#X obj 187 14 loadbang;
#X floatatom 35 186 5 0 0 0 - - -, f 5;
#X floatatom 145 186 5 0 0 0 - - -, f 5;
#X obj 15 164 s \$0-rate;
#X obj 125 164 s \$0-length;
#X obj 226 142 s \$0-samples;
#X msg 15 58 read -resize -maxsize 2e+07 \$1 \$0-track;
#X connect 1 0 13 0;
#X connect 2 0 4 0;
#X connect 2 0 5 0;
#X connect 2 0 12 0;
#X connect 3 0 4 1;
#X connect 3 0 5 1;
#X connect 4 0 8 0;
#X connect 4 0 10 0;
#X connect 5 0 9 0;
#X connect 5 0 11 0;
#X connect 6 0 1 0;
#X connect 7 0 3 0;
#X connect 13 0 2 0;
#X restore 710 60 pd file;
#N canvas 13 49 1334 659 audio 0;
#X obj 231 264 phasor~;
#X obj 231 308 tabread4~ \$0-track;
#X obj 231 360 *~;
#X obj 231 286 *~;
#X obj 231 172 f;
#X obj 8 77 threshold~ 0.99 0 0.2 0;
#X obj 231 416 *~;
#X obj 274 415 *~;
#X obj 231 237 *~;
#X obj 231 204 sig~;
#X msg 35 122 0;
#X obj 246 146 r \$0-rate;
#X obj 231 12 r \$0-play;
#X obj 327 12 r \$0-stop;
#X msg 327 96 0;
#X obj 368 264 phasor~;
#X obj 368 172 f;
#X obj 428 296 +~ 0.25;
#X obj 428 318 cos~;
#X obj 368 318 cos~;
#X obj 368 427 *~;
#X obj 428 427 *~;
#X obj 368 574 outlet~;
#X obj 428 574 outlet~;
#X obj 368 373 *~;
#X obj 428 373 *~;
#X obj 368 485 +~;
#X obj 428 485 +~;
#X obj 368 542 *~;
#X obj 428 542 *~;
#X obj 368 235 *~;
#X obj 368 204 sig~;
#X obj 231 34 t b b b;
#X obj 936 13 r \$0-diameter;
#X obj 936 35 / 2;
#X obj 970 109 r \$0-neutralAmp;
#X obj 970 131 t b f;
#X obj 936 161 f;
#X obj 936 183 /;
#X obj 1163 13 r \$0-length;
#X obj 1193 109 r \$0-spiralWidth;
#X obj 1163 159 f;
#X obj 1193 131 t b f;
#X obj 1163 181 *;
#X obj 1163 233 f;
#X obj 1193 181 r \$0-anglePerMM;
#X obj 1193 203 t b f;
#X obj 1163 255 *;
#X obj 1196 35 r \$0-rpm;
#X obj 1163 87 f;
#X obj 1196 57 t b f;
#X text 1088 109 nb of turns;
#X text 1068 181 final offset mm;
#X text 1050 255 final offset angle;
#X floatatom 1118 136 5 0 0 0 - - -, f 5;
#X floatatom 1118 204 5 0 0 0 - - -, f 5;
#X floatatom 1118 281 5 0 0 0 - - -, f 5;
#X floatatom 896 61 5 0 0 0 - - -, f 5;
#X obj 936 87 f;
#X obj 966 35 r \$0-anglePerMM;
#X obj 966 57 t b f;
#X obj 936 109 *;
#X floatatom 896 141 5 0 0 0 - - -, f 5;
#X floatatom 896 215 5 0 0 0 - - -, f 5;
#X obj 1197 368 r \$0-neutralAmp;
#X obj 1197 390 t b f;
#X obj 1163 420 f;
#X obj 1163 442 /;
#X text 869 35 radius \, mm;
#X text 850 109 radius \, angle;
#X text 832 183 ratio / exposure;
#X obj 1163 368 -;
#X obj 1163 308 t b f;
#X obj 1163 338 f;
#X text 1087 442 final ratio;
#X floatatom 1123 474 5 0 0 0 - - -, f 5;
#X text 1074 368 final radius;
#X obj 1163 109 *;
#X obj 1028 515 f;
#X obj 1028 493 t b f;
#X obj 1028 537 +;
#X obj 1028 559 / 2;
#X text 961 559 mean ratio;
#X floatatom 988 591 5 0 0 0 - - -, f 5;
#X obj 936 205 expr 1 /$f1;
#X obj 936 227 s \$0-startRatio;
#X obj 1163 464 expr 1 /$f1;
#X obj 1163 486 s \$0-endRatio;
#X obj 1028 581 s \$0-meanRatio;
#X obj 673 181 line~;
#X obj 718 62 r \$0-meanRatio;
#X obj 733 86 r \$0-length;
#X obj 718 110 *;
#X obj 718 132 * 1000;
#X obj 673 157 pack f f;
#X obj 673 132 f;
#X obj 688 38 r \$0-endRatio;
#X obj 649 14 r \$0-startRatio;
#X obj 634 132 f;
#X obj 673 203 pow~ 2;
#X obj 383 146 r \$0-rpm;
#X obj 539 538 tgl 15 0 empty empty empty 17 7 0 10 -262144 -1 -1 0
1;
#X obj 539 558 metro 1;
#X obj 539 580 snapshot~;
#X obj 647 602 hsl 128 15 -0.5 0.5 0 0 empty empty empty -2 -8 0 10
-262144 -1 -1 0 1;
#X obj 649 498 tgl 15 0 empty empty empty 17 7 0 10 -262144 -1 -1 0
1;
#X obj 649 518 metro 1;
#X obj 649 540 snapshot~;
#X obj 739 449 vsl 15 128 -0.5 0.5 0 0 empty empty empty 0 -9 0 10
-262144 -1 -1 0 1;
#X floatatom 649 562 5 0 0 0 - - -, f 5;
#X floatatom 539 602 5 0 0 0 - - -, f 5;
#X obj 759 208 tgl 15 0 empty empty empty 17 7 0 10 -262144 -1 -1 0
1;
#X obj 759 228 metro 1;
#X obj 759 250 snapshot~;
#X floatatom 759 272 5 0 0 0 - - -, f 5;
#X obj 548 175 spigot~;
#X obj 521 139 tgl 15 0 empty empty empty 17 7 0 10 -262144 -1 -1 1
1;
#X obj 482 17 loadbang;
#X msg 482 131 1;
#X obj 482 153 sig~;
#X obj 482 175 spigot~;
#X obj 521 65 r \$0-comp;
#X obj 110 285 r \$0-amplitude;
#X obj 125 308 r \$0-anglePerMM;
#X obj 110 331 *;
#X floatatom 110 353 5 0 0 0 - - -, f 5;
#X obj 179 498 metro 1;
#X obj 179 520 snapshot~;
#X obj 532 264 phasor~;
#X obj 532 296 *~;
#X obj 669 338 tgl 15 0 empty empty empty 17 7 0 10 -262144 -1 -1 0
1;
#X obj 669 358 metro 1;
#X obj 669 380 snapshot~;
#X obj 669 422 hsl 128 15 0 1 0 0 empty empty empty -2 -8 0 10 -262144
-1 -1 0 1;
#X floatatom 669 402 5 0 0 0 - - -, f 5;
#X obj 809 338 tgl 15 0 empty empty empty 17 7 0 10 -262144 -1 -1 0
1;
#X obj 809 358 metro 1;
#X obj 809 380 snapshot~;
#X obj 809 422 hsl 128 15 0 1 0 0 empty empty empty -2 -8 0 10 -262144
-1 -1 0 1;
#X floatatom 809 402 5 0 0 0 - - -, f 5;
#X obj 1037 399 /;
#X obj 1009 293 t f f;
#X floatatom 1037 421 5 0 0 0 - - -, f 5;
#X msg 590 241 1;
#X obj 590 272 sig~;
#X obj 548 343 -~;
#X obj 150 204 r \$0-samples;
#X obj 482 475 f;
#X obj 482 442 r \$0-enable;
#X obj 1205 257 s \$0-area;
#X obj 8 179 cup;
#X obj 68 147 r \$0-iterations;
#X obj 8 223 sel 1;
#X obj 8 99 t b b;
#X msg 35 147 1;
#X obj 8 201 <;
#X msg 35 253 bang;
#X obj 59 414 loadbang;
#X msg 59 436 1;
#X obj 179 542 s \$0-progress;
#X connect 0 0 3 0;
#X connect 0 0 5 0;
#X connect 0 0 127 0;
#X connect 1 0 2 0;
#X connect 2 0 6 0;
#X connect 2 0 7 0;
#X connect 3 0 1 0;
#X connect 4 0 9 0;
#X connect 5 0 153 0;
#X connect 6 0 26 1;
#X connect 7 0 27 1;
#X connect 8 0 0 0;
#X connect 8 0 128 0;
#X connect 9 0 8 0;
#X connect 10 0 9 0;
#X connect 11 0 4 1;
#X connect 12 0 32 0;
#X connect 12 0 154 0;
#X connect 13 0 14 0;
#X connect 14 0 0 1;
#X connect 14 0 9 0;
#X connect 14 0 31 0;
#X connect 14 0 15 1;
#X connect 14 0 128 1;
#X connect 14 0 143 0;
#X connect 14 0 28 1;
#X connect 14 0 29 1;
#X connect 15 0 17 0;
#X connect 15 0 19 0;
#X connect 16 0 31 0;
#X connect 17 0 18 0;
#X connect 18 0 25 0;
#X connect 18 0 7 1;
#X connect 19 0 24 0;
#X connect 19 0 6 1;
#X connect 20 0 26 0;
#X connect 21 0 27 0;
#X connect 24 0 20 0;
#X connect 25 0 21 0;
#X connect 26 0 28 0;
#X connect 26 0 103 0;
#X connect 27 0 29 0;
#X connect 27 0 107 0;
#X connect 28 0 22 0;
#X connect 29 0 23 0;
#X connect 30 0 15 0;
#X connect 31 0 30 0;
#X connect 32 0 4 0;
#X connect 32 0 16 0;
#X connect 32 0 95 0;
#X connect 32 0 147 0;
#X connect 32 1 98 0;
#X connect 32 2 14 0;
#X connect 33 0 34 0;
#X connect 34 0 57 0;
#X connect 34 0 58 0;
#X connect 35 0 36 0;
#X connect 36 0 37 0;
#X connect 36 1 38 1;
#X connect 37 0 38 0;
#X connect 38 0 63 0;
#X connect 38 0 78 0;
#X connect 38 0 84 0;
#X connect 39 0 49 0;
#X connect 40 0 42 0;
#X connect 41 0 43 0;
#X connect 42 0 41 0;
#X connect 42 1 43 1;
#X connect 43 0 44 0;
#X connect 43 0 55 0;
#X connect 43 0 149 0;
#X connect 44 0 47 0;
#X connect 45 0 46 0;
#X connect 46 0 44 0;
#X connect 46 1 47 1;
#X connect 47 0 56 0;
#X connect 47 0 72 0;
#X connect 47 0 140 0;
#X connect 48 0 50 0;
#X connect 49 0 77 0;
#X connect 50 0 49 0;
#X connect 50 1 77 1;
#X connect 58 0 61 0;
#X connect 59 0 60 0;
#X connect 60 0 58 0;
#X connect 60 1 61 1;
#X connect 61 0 62 0;
#X connect 61 0 37 0;
#X connect 61 0 24 1;
#X connect 61 0 25 1;
#X connect 61 0 141 0;
#X connect 64 0 65 0;
#X connect 65 0 66 0;
#X connect 65 1 67 1;
#X connect 66 0 67 0;
#X connect 67 0 75 0;
#X connect 67 0 79 0;
#X connect 67 0 86 0;
#X connect 71 0 66 0;
#X connect 72 0 73 0;
#X connect 72 1 71 1;
#X connect 73 0 71 0;
#X connect 77 0 41 0;
#X connect 77 0 54 0;
#X connect 78 0 80 0;
#X connect 79 0 78 0;
#X connect 79 1 80 1;
#X connect 80 0 81 0;
#X connect 81 0 83 0;
#X connect 81 0 88 0;
#X connect 84 0 85 0;
#X connect 86 0 87 0;
#X connect 89 0 99 0;
#X connect 89 0 113 0;
#X connect 89 0 115 0;
#X connect 90 0 92 0;
#X connect 91 0 92 1;
#X connect 92 0 93 0;
#X connect 93 0 94 1;
#X connect 94 0 89 0;
#X connect 95 0 94 0;
#X connect 96 0 95 1;
#X connect 97 0 98 1;
#X connect 98 0 89 0;
#X connect 100 0 16 1;
#X connect 101 0 102 0;
#X connect 102 0 103 0;
#X connect 103 0 104 0;
#X connect 103 0 110 0;
#X connect 105 0 106 0;
#X connect 106 0 107 0;
#X connect 107 0 108 0;
#X connect 107 0 109 0;
#X connect 111 0 112 0;
#X connect 112 0 113 0;
#X connect 113 0 114 0;
#X connect 115 1 8 1;
#X connect 115 1 30 1;
#X connect 116 0 115 1;
#X connect 116 0 120 1;
#X connect 117 0 118 0;
#X connect 118 0 119 0;
#X connect 119 0 120 0;
#X connect 120 0 8 1;
#X connect 120 0 30 1;
#X connect 121 0 116 0;
#X connect 122 0 124 0;
#X connect 123 0 124 1;
#X connect 124 0 2 1;
#X connect 124 0 125 0;
#X connect 126 0 127 0;
#X connect 127 0 159 0;
#X connect 128 0 129 0;
#X connect 128 0 137 0;
#X connect 129 0 145 1;
#X connect 130 0 131 0;
#X connect 131 0 132 0;
#X connect 132 0 133 0;
#X connect 132 0 134 0;
#X connect 135 0 136 0;
#X connect 136 0 137 0;
#X connect 137 0 138 0;
#X connect 137 0 139 0;
#X connect 140 0 129 1;
#X connect 140 0 142 0;
#X connect 141 0 73 0;
#X connect 141 1 140 1;
#X connect 143 0 144 0;
#X connect 144 0 145 0;
#X connect 145 0 132 0;
#X connect 145 0 20 1;
#X connect 145 0 21 1;
#X connect 146 0 3 1;
#X connect 147 0 28 1;
#X connect 147 0 29 1;
#X connect 148 0 147 0;
#X connect 150 0 155 0;
#X connect 151 0 155 1;
#X connect 152 0 32 0;
#X connect 152 1 156 0;
#X connect 153 0 150 0;
#X connect 153 1 10 0;
#X connect 154 0 150 0;
#X connect 155 0 152 0;
#X connect 156 0 14 0;
#X connect 157 0 158 0;
#X connect 158 0 126 0;
#X restore 141 546 pd audio;
#X obj 141 602 outlet~;
#X obj 196 602 outlet~;
#X obj 127 417 s \$0-rpm;
#X floatatom 246 305 5 0 0 1 rpm - -, f 5;
#X obj 127 395 / 60;
#X obj 186 306 hradio 15 0 0 2 empty empty empty 0 -8 0 10 -262144
-1 -1 1;
#X obj 127 323 sel 0;
#X msg 127 349 33;
#X msg 154 349 45;
#X obj 747 163 r \$0-halfXMax;
#X text 747 141 ratio where speed = 3in / s;
#X obj 755 207 r \$0-rpm;
#X obj 747 251 f;
#X obj 755 229 t b f;
#X obj 747 274 *;
#X obj 48 157 loadbang;
#X obj 747 296 s \$0-neutralAmp;
#X floatatom 399 305 5 0 0 1 - - #0-spiralWidth, f 5;
#X obj 625 207 r \$0-halfXMax;
#X obj 617 251 f;
#X obj 617 274 /;
#X obj 625 229 t b f;
#X obj 617 296 s \$0-anglePerMM;
#X text 435 305 mm/tour;
#X floatatom 807 318 10 0 0 0 - - -, f 10;
#X floatatom 677 318 9 0 0 0 - - -, f 9;
#X floatatom 399 262 5 0 0 1 diameter - #0-diameter, f 5;
#X floatatom 399 284 5 0 0 1 amplitude - #0-amplitude, f 5;
#X msg 617 185 1;
#X obj 617 164 loadbang;
#X obj 747 185 expr 18 / $f1;
#X floatatom 399 326 5 0 0 0 - - -, f 5;
#X text 435 326 final diameter;
#X obj 557 464 t b f;
#X obj 500 387 r \$0-diameter;
#X obj 507 554 -;
#X obj 557 411 r \$0-area;
#X obj 500 409 / 2;
#X obj 507 576 * 2;
#X msg 209 192 1;
#X obj 246 327 hsl 128 15 0 1 0 0 empty \$0-progress progress -58 7
0 10 -262144 -1 -1 0 1;
#X connect 0 0 1 0;
#X connect 1 0 2 0;
#X connect 1 1 3 0;
#X connect 1 2 4 0;
#X connect 1 3 5 0;
#X connect 1 4 6 0;
#X connect 1 5 7 0;
#X connect 19 0 20 0;
#X connect 19 1 21 0;
#X connect 23 0 24 0;
#X connect 24 0 22 0;
#X connect 25 0 26 0;
#X connect 26 0 27 0;
#X connect 26 1 28 0;
#X connect 27 0 23 0;
#X connect 28 0 23 0;
#X connect 29 0 50 0;
#X connect 31 0 33 0;
#X connect 32 0 34 0;
#X connect 33 0 32 0;
#X connect 33 1 34 1;
#X connect 34 0 36 0;
#X connect 34 0 44 0;
#X connect 35 0 25 0;
#X connect 35 0 59 0;
#X connect 38 0 41 0;
#X connect 39 0 40 0;
#X connect 40 0 42 0;
#X connect 40 0 45 0;
#X connect 41 0 39 0;
#X connect 41 1 40 1;
#X connect 48 0 39 0;
#X connect 49 0 48 0;
#X connect 50 0 32 0;
#X connect 53 0 55 0;
#X connect 53 1 55 1;
#X connect 54 0 57 0;
#X connect 55 0 58 0;
#X connect 56 0 53 0;
#X connect 57 0 55 0;
#X connect 58 0 51 0;
#X connect 59 0 14 0;
#X coords 0 -1 1 1 360 120 2 177 233;
