#N canvas 205 152 1158 589 10;
#X obj 443 176 cnv 15 352 120 empty empty empty 20 12 0 14 -233017
-66577 0;
#X obj 15 172 t f b;
#X obj 42 197 cup;
#X msg 239 112 0;
#X obj 101 142 t f b;
#X obj 128 167 cup;
#X obj 188 112 t f b;
#X obj 215 137 cup;
#X obj 188 161 tabwrite \$0-z;
#X obj 15 11 inlet;
#N canvas 165 193 450 346 initTables 0;
#X msg 291 55 \; \$0-z resize \$1;
#X obj 389 15 r \$0-clear;
#X obj 291 15 r \$0-zSize;
#X obj 153 15 r \$0-ySize;
#X obj 15 15 r \$0-xSize;
#X msg 152 55 \; \$0-y resize \$1;
#X msg 15 55 \; \$0-x resize \$1;
#X msg 389 55 \; \$0-x resize 100 \; \$0-y resize 100 \; \$0-z resize
100 \; \$0-x const 0 \; \$0-y const 0 \; \$0-z const 0 \;;
#X connect 1 0 7 0;
#X connect 2 0 0 0;
#X connect 3 0 5 0;
#X connect 4 0 6 0;
#X restore 963 94 pd initTables;
#X obj 806 180 moonlib/mknob 40 180 -89 90 0 0 empty empty angle 2
44 0 10 -262144 -1 -1 0 1;
#X floatatom 852 204 5 0 0 0 - - -, f 5;
#X msg 933 189 set \$1;
#X obj 933 228 deg2rad;
#X obj 933 249 s \$0-angle;
#X obj 963 54 table \$0-z;
#X obj 447 203 bng 15 250 50 0 \$0-sendImage \$0-getSend send\ image
17 5 0 10 -260818 -66577 -66577;
#X obj 601 203 bng 15 250 50 0 \$0-cancel empty cancel 17 5 0 10 -258699
-1 -1;
#X obj 534 203 tgl 15 0 \$0-pause empty pause 17 5 0 10 -262144 -1
-1 0 1;
#N canvas 275 309 879 409 misc 0;
#X obj 23 17 r \$0-enable;
#X obj 23 39 sel 1;
#X msg 60 61 14;
#X msg 23 61 16;
#X msg 23 83 \; \$0-getSend color \$1 2 2;
#X obj 404 17 loadbang;
#X msg 404 39 0;
#X obj 404 61 s \$0-getAngle;
#X obj 545 15 r \$0-cancel;
#X msg 545 37 0;
#X obj 545 59 s \$0-progress;
#X connect 0 0 1 0;
#X connect 1 0 3 0;
#X connect 1 1 2 0;
#X connect 2 0 4 0;
#X connect 3 0 4 0;
#X connect 5 0 6 0;
#X connect 6 0 7 0;
#X connect 8 0 9 0;
#X connect 9 0 10 0;
#X restore 963 74 pd misc;
#X obj 101 560 outlet~;
#X obj 291 560 outlet~;
#X obj 251 65 s \$0-xSize;
#X obj 330 65 s \$0-ySize;
#X obj 409 65 s \$0-zSize;
#X obj 645 65 s \$0-clear;
#X obj 239 88 r \$0-clear;
#X obj 447 225 hsl 128 15 0 1 0 0 empty \$0-progress empty 140 5 0
10 -262144 -1 -1 0 1;
#X obj 534 90 loadbang;
#X msg 534 120 0;
#X obj 94 455 *~;
#X obj 123 455 *~;
#X obj 113 323 loadbang;
#X msg 115 361 -1;
#X msg 143 361 1;
#X obj 487 65 s \$0-xIncr;
#X obj 566 65 s \$0-yIncr;
#X obj 963 14 table \$0-x;
#X obj 963 34 table \$0-y;
#X obj 101 192 tabwrite \$0-y;
#X obj 14 221 tabwrite \$0-x;
#X obj 673 180 moonlib/mknob 40 100 0.1 10 1 0 empty empty speed 42
15 0 9 -262144 -1 -1 4950 1;
#X floatatom 719 204 5 0 0 0 - - -, f 5;
#X obj 724 65 s \$0-enable;
#N canvas 47 90 867 662 audio 0;
#X obj 154 28 r \$0-sendImage;
#X obj 173 146 cup;
#X obj 85 239 mod;
#X obj 100 218 r \$0-xSize;
#X obj 174 398 pack f f;
#X obj 174 420 line 0 0.01;
#X obj 149 525 tabread4 \$0-x;
#X obj 229 364 + 0.1;
#X obj 216 309 f;
#X floatatom 112 472 5 0 0 0 - - -, f 5;
#X obj 271 139 spigot;
#X obj 304 113 tgl 15 0 empty empty empty 17 7 0 10 -262144 -1 -1 1
1;
#X floatatom 246 212 7 0 0 0 - - -, f 7;
#X floatatom 246 259 7 0 0 0 - - -, f 7;
#X obj 229 339 *;
#X obj 335 481 hsl 128 15 0 1000 0 0 empty empty empty -2 -8 0 10 -262144
-1 -1 0 1;
#X floatatom 335 501 7 0 0 0 - - -, f 7;
#X obj 335 529 hsl 128 15 -1 1 0 0 empty empty empty -2 -8 0 10 -262144
-1 -1 0 1;
#X floatatom 335 549 11 0 0 0 - - -, f 11;
#X floatatom 243 237 5 0 0 0 - - -, f 5;
#X obj 173 171 tabread4 \$0-z;
#X obj 173 272 t f b;
#X obj 190 449 t f f;
#X floatatom 288 436 5 0 0 0 - - -, f 5;
#X msg 193 121 0;
#X obj 173 365 t f f f;
#X obj 291 396 f;
#X obj 249 571 bng 15 50 10 0 empty empty empty 17 7 0 10 -262144 -1
-1;
#X obj 243 485 ==;
#X obj 243 507 select 1;
#X obj 537 210 div;
#X obj 538 257 tabread4 \$0-y;
#X obj 629 231 hsl 128 15 0 1000 0 0 empty empty empty -2 -8 0 10 -262144
-1 -1 0 1;
#X floatatom 629 251 7 0 0 0 - - -, f 7;
#X obj 629 279 hsl 128 15 -1 1 0 0 empty empty empty -2 -8 0 10 -262144
-1 -1 0 1;
#X floatatom 629 299 11 0 0 0 - - -, f 11;
#X floatatom 476 241 5 0 0 0 - - -, f 5;
#X obj 571 182 r \$0-xSize;
#X obj 471 329 select;
#X obj 501 300 r \$0-ySize;
#X msg 410 87 0;
#X obj 144 619 outlet~;
#X obj 578 600 outlet~;
#X obj 149 547 sig~;
#X obj 574 529 sig~;
#X obj 410 33 r \$0-cancel;
#X obj 471 351 s \$0-cancel;
#X obj 295 33 r \$0-pause;
#X obj 295 55 sel 0;
#X msg 280 87 1;
#X obj 154 50 t b b b;
#X obj 333 79 t b b;
#X msg 363 101 0;
#X obj 59 56 bng 15 250 50 0 empty empty empty 17 7 0 10 -262144 -1
-1;
#X obj 46 295 r \$0-zSize;
#X obj 37 320 /;
#X obj 37 342 s \$0-progress;
#X obj 335 274 r \$0-speed;
#X obj 299 338 r \$0-speedOffset;
#X connect 0 0 50 0;
#X connect 1 0 2 0;
#X connect 1 0 12 0;
#X connect 1 0 20 0;
#X connect 1 0 30 0;
#X connect 1 0 55 0;
#X connect 2 0 13 0;
#X connect 2 0 21 0;
#X connect 3 0 2 1;
#X connect 4 0 5 0;
#X connect 5 0 9 0;
#X connect 5 0 15 0;
#X connect 5 0 22 0;
#X connect 6 0 17 0;
#X connect 6 0 43 0;
#X connect 7 0 4 1;
#X connect 8 0 14 0;
#X connect 10 0 1 0;
#X connect 11 0 10 1;
#X connect 14 0 7 0;
#X connect 15 0 16 0;
#X connect 17 0 18 0;
#X connect 20 0 8 1;
#X connect 20 0 19 0;
#X connect 21 0 25 0;
#X connect 21 1 8 0;
#X connect 22 0 28 0;
#X connect 22 1 6 0;
#X connect 24 0 1 0;
#X connect 25 0 4 0;
#X connect 25 1 23 0;
#X connect 25 1 28 1;
#X connect 26 0 28 1;
#X connect 28 0 29 0;
#X connect 29 0 27 0;
#X connect 29 0 10 0;
#X connect 30 0 31 0;
#X connect 30 0 32 0;
#X connect 30 0 36 0;
#X connect 30 0 38 0;
#X connect 31 0 34 0;
#X connect 31 0 44 0;
#X connect 32 0 33 0;
#X connect 34 0 35 0;
#X connect 37 0 30 1;
#X connect 38 0 46 0;
#X connect 39 0 38 1;
#X connect 40 0 11 0;
#X connect 40 0 24 0;
#X connect 43 0 41 0;
#X connect 44 0 42 0;
#X connect 45 0 40 0;
#X connect 47 0 48 0;
#X connect 48 0 49 0;
#X connect 48 1 51 0;
#X connect 49 0 11 0;
#X connect 50 0 1 0;
#X connect 50 1 24 0;
#X connect 50 2 49 0;
#X connect 51 0 1 0;
#X connect 51 1 52 0;
#X connect 52 0 11 0;
#X connect 53 0 50 0;
#X connect 54 0 55 1;
#X connect 55 0 56 0;
#X connect 57 0 14 1;
#X connect 58 0 7 1;
#X restore 301 325 pd audio;
#X obj 526 398 moonlib/mknob 40 101 0.001 0.1 1 0 empty empty speed\ offset
42 15 0 9 -262144 -1 -1 4515 1;
#X floatatom 572 422 5 0 0 0 - - -, f 5;
#X obj 572 488 s \$0-speedOffset;
#X obj 447 305 * 100;
#X floatatom 583 225 6 0 0 1 progress - -, f 6;
#X msg 582 459 set \$1;
#X msg 713 308 set \$1;
#X obj 15 34 route x y z xSize ySize zSize xIncrement yIncrement clear
enable dpi, f 145;
#X obj 803 65 s \$0-dpi;
#X msg 673 113 1;
#X msg 526 370 0.008;
#X obj 97 514 *~;
#X obj 257 514 *~;
#X obj 447 180 tgl 15 0 empty \$0-getEnable enable 17 5 0 10 -260818
-66577 -66577 0 1;
#X obj 918 297 sel 1;
#X msg 918 319 16;
#X msg 947 319 14;
#X msg 918 341 \; \$0-getEnable color \$1 2 2;
#X obj 776 308 expr 1 /$f1;
#X obj 713 339 r \$0-dpi;
#X obj 713 361 t b f;
#X obj 713 427 /;
#X obj 713 493 s \$0-speed;
#X msg 713 383 1000;
#X obj 728 405 * 4;
#X obj 713 471 *;
#X obj 776 339 t b f;
#X obj 713 449 f;
#X connect 1 0 41 0;
#X connect 1 1 2 0;
#X connect 2 0 41 1;
#X connect 3 0 2 0;
#X connect 3 0 5 0;
#X connect 3 0 7 0;
#X connect 4 0 40 0;
#X connect 4 1 5 0;
#X connect 5 0 40 1;
#X connect 6 0 8 0;
#X connect 6 1 7 0;
#X connect 7 0 8 1;
#X connect 9 0 53 0;
#X connect 11 0 12 0;
#X connect 12 0 14 0;
#X connect 12 0 13 0;
#X connect 13 0 11 0;
#X connect 14 0 15 0;
#X connect 27 0 3 0;
#X connect 28 0 49 0;
#X connect 29 0 30 0;
#X connect 29 0 56 0;
#X connect 29 0 55 0;
#X connect 30 0 19 0;
#X connect 30 0 59 0;
#X connect 31 0 57 0;
#X connect 32 0 58 0;
#X connect 33 0 34 0;
#X connect 33 0 35 0;
#X connect 34 0 31 1;
#X connect 35 0 32 1;
#X connect 42 0 43 0;
#X connect 43 0 52 0;
#X connect 43 0 64 0;
#X connect 45 0 31 0;
#X connect 45 1 32 0;
#X connect 46 0 47 0;
#X connect 47 0 48 0;
#X connect 47 0 51 0;
#X connect 49 0 50 0;
#X connect 51 0 46 0;
#X connect 52 0 42 0;
#X connect 53 0 1 0;
#X connect 53 1 4 0;
#X connect 53 2 6 0;
#X connect 53 3 23 0;
#X connect 53 4 24 0;
#X connect 53 5 25 0;
#X connect 53 6 36 0;
#X connect 53 7 37 0;
#X connect 53 8 26 0;
#X connect 53 9 44 0;
#X connect 53 10 54 0;
#X connect 55 0 42 0;
#X connect 56 0 46 0;
#X connect 57 0 21 0;
#X connect 58 0 22 0;
#X connect 59 0 57 1;
#X connect 59 0 58 1;
#X connect 59 0 60 0;
#X connect 60 0 61 0;
#X connect 60 1 62 0;
#X connect 61 0 63 0;
#X connect 62 0 63 0;
#X connect 64 0 72 0;
#X connect 65 0 66 0;
#X connect 66 0 69 0;
#X connect 66 1 70 0;
#X connect 67 0 73 0;
#X connect 69 0 67 0;
#X connect 70 0 67 1;
#X connect 71 0 68 0;
#X connect 72 0 73 0;
#X connect 72 1 71 1;
#X connect 73 0 71 0;
#X coords 0 -1 1 1 360 128 1 439 172;
