#N canvas 46 74 1212 667 10;
#X obj 14 493 LaserConnexion;
#X obj 13 118 LaserOpenImage;
#X obj 13 285 LaserComputeImage;
#X obj 14 34 LaserAngles;
#X obj 378 35 LaserFormat;
#X obj 378 169 LaserSineSum;
#X obj 14 6 LaserDSP;
#X obj 742 35 LaserDisk;
#X connect 1 0 2 0;
#X connect 2 0 0 0;
#X connect 2 1 0 1;
#X connect 3 0 1 0;
#X connect 3 0 4 0;
#X connect 3 0 5 0;
#X connect 3 0 7 0;
#X connect 4 0 0 0;
#X connect 4 1 0 1;
#X connect 5 0 0 0;
#X connect 5 1 0 1;
#X connect 7 0 0 0;
#X connect 7 1 0 1;
