#N canvas 166 75 905 666 10;
#X declare -lib mrpeach;
#X obj 14 -391 patches/LaserDSP;
#X obj 14 -365 patches/LaserAngles;
#X obj 14 -290 patches/LaserFormat;
#X obj 14 -215 patches/LaserOffset;
#X obj 14 103 patches/LaserConnexion;
#X obj 531 -377 Moka;
#X obj 212 -64 patches/LaserParticles;
#X obj 262 229 monitoring;
#X obj 14 229 monitoring;
#X connect 1 0 2 0;
#X connect 1 0 3 0;
#X connect 1 0 6 0;
#X connect 2 0 4 0;
#X connect 2 1 4 1;
#X connect 3 0 4 0;
#X connect 3 1 4 1;
#X connect 4 0 8 0;
#X connect 4 1 7 0;
#X connect 5 0 6 1;
#X connect 6 0 4 0;
#X connect 6 1 4 1;
