#N canvas 161 108 981 582 10;
#X msg 62 -55 buffer 2;
#X obj 62 -96 loadbang;
#X obj 62 393 dac~;
#X obj 62 53 *~;
#X obj 107 53 *~;
#X msg 413 -5 \; pd dsp \$1;
#X msg 22 9 1;
#X obj 199 47 print;
#X obj 18 -166 import lib-mrpeach;
#X obj 62 9 mrpeach/udpreceive~ 3000 2 2048;
#X obj 413 -131 mrpeach/tcpreceive 12520;
#X obj 413 -109 mrpeach/unpackOSC;
#X obj 153 53 env~;
#X obj 742 285 mrpeach/tcpsend;
#X obj 777 233 symbol;
#X msg 777 257 connect \$1 25347;
#X obj 743 200 mrpeach/packOSC;
#X obj 743 178 list trim;
#X obj 743 156 list prepend send;
#X msg 424 97 /dsp \$1;
#X msg 533 97 /laser \$1;
#X msg 646 248 disconnect;
#X obj 413 -87 mrpeach/routeOSC /dsp /laser /ip /cancel;
#X obj 718 -16 t b b;
#X msg 744 7 0;
#X obj 385 173 route 0 1 2;
#X obj 309 278 spigot;
#X obj 537 39 print laser;
#X obj 139 180 snapshot~;
#X obj 139 202 t f f;
#X obj 139 244 select;
#X obj 139 289 f;
#X obj 209 180 snapshot~;
#X obj 209 202 t f f;
#X obj 209 244 select;
#X obj 209 289 f;
#X obj 209 311 t b f;
#X obj 139 354 change;
#X msg 309 237 0;
#X msg 345 237 1;
#X obj 181 -155 loadbang;
#X msg 181 -111 1;
#X obj 181 -89 wiringPi_gpio 3 0 0;
#X text 242 -155 light a led at startup;
#X msg 427 237 1;
#X msg 385 237 0;
#X msg 139 267 0;
#X msg 172 267 1;
#X msg 209 267 0;
#X msg 242 267 1;
#X obj 139 332 |;
#X obj 385 321 wiringPi_gpio 7 0 0;
#X obj 181 -133 delay 1000;
#X obj 211 123 metro 1.5;
#X connect 0 0 9 0;
#X connect 1 0 6 0;
#X connect 1 0 0 0;
#X connect 1 0 53 0;
#X connect 3 0 2 0;
#X connect 3 0 28 0;
#X connect 4 0 2 1;
#X connect 4 0 32 0;
#X connect 6 0 3 1;
#X connect 6 0 4 1;
#X connect 9 0 3 0;
#X connect 9 1 4 0;
#X connect 9 2 12 0;
#X connect 9 3 7 0;
#X connect 10 0 11 0;
#X connect 11 0 22 0;
#X connect 14 0 15 0;
#X connect 15 0 13 0;
#X connect 16 0 13 0;
#X connect 17 0 16 0;
#X connect 18 0 17 0;
#X connect 19 0 18 0;
#X connect 20 0 18 0;
#X connect 21 0 13 0;
#X connect 22 0 5 0;
#X connect 22 0 19 0;
#X connect 22 1 25 0;
#X connect 22 1 20 0;
#X connect 22 1 27 0;
#X connect 22 2 14 0;
#X connect 22 3 23 0;
#X connect 23 0 21 0;
#X connect 23 1 24 0;
#X connect 24 0 5 0;
#X connect 24 0 45 0;
#X connect 25 0 45 0;
#X connect 25 0 38 0;
#X connect 25 1 39 0;
#X connect 25 1 45 0;
#X connect 25 2 44 0;
#X connect 25 2 38 0;
#X connect 26 0 51 0;
#X connect 28 0 29 0;
#X connect 29 0 30 1;
#X connect 29 1 30 0;
#X connect 30 0 46 0;
#X connect 30 1 47 0;
#X connect 31 0 50 0;
#X connect 32 0 33 0;
#X connect 33 0 34 1;
#X connect 33 1 34 0;
#X connect 34 0 48 0;
#X connect 34 1 49 0;
#X connect 35 0 36 0;
#X connect 36 0 50 0;
#X connect 36 1 50 1;
#X connect 37 0 26 0;
#X connect 38 0 26 1;
#X connect 39 0 26 1;
#X connect 40 0 52 0;
#X connect 41 0 42 0;
#X connect 44 0 51 0;
#X connect 45 0 51 0;
#X connect 46 0 31 0;
#X connect 47 0 31 0;
#X connect 48 0 35 0;
#X connect 49 0 35 0;
#X connect 50 0 37 0;
#X connect 52 0 41 0;
#X connect 53 0 28 0;
#X connect 53 0 32 0;
