#N canvas 94 93 981 582 10;
#X msg 903 110 \; pd dsp \$1;
#X obj 18 -166 import lib-mrpeach;
#X obj 18 -131 mrpeach/tcpreceive 12520;
#X obj 18 -109 mrpeach/unpackOSC;
#X obj 742 355 mrpeach/tcpsend;
#X obj 861 294 symbol;
#X msg 861 318 connect \$1 25347;
#X obj 743 270 mrpeach/packOSC;
#X obj 743 248 list trim;
#X obj 743 226 list prepend send;
#X msg 743 173 /dsp \$1;
#X msg 816 173 /laser \$1;
#X msg 646 318 disconnect;
#X obj 715 54 t b b;
#X msg 742 77 0;
#X obj 515 207 route 0 1 2;
#X obj 442 312 spigot;
#X msg 439 269 0;
#X msg 475 269 1;
#X msg 557 269 1;
#X msg 515 269 0;
#X obj 515 355 wiringPi_gpio 7 0 0;
#X obj 743 129 r pd;
#X obj 743 151 route dsp;
#X obj 855 -146 table \$0-x;
#X obj 855 -123 table \$0-y;
#X obj 855 -100 table \$0-length;
#X obj 18 -38 s \$0-dsp;
#X obj 76 -38 s \$0-laser;
#X obj 816 151 r \$0-laser;
#X obj 903 78 r \$0-dsp;
#X obj 515 181 r \$0-laser;
#X obj 146 -38 s \$0-ip;
#X obj 861 270 r \$0-ip;
#N canvas 617 230 450 323 misc 0;
#X obj 10 10 loadbang;
#X msg 10 54 1;
#X obj 10 76 wiringPi_gpio 3 0 0;
#X text 71 10 light a led at startup;
#X obj 10 32 delay 1000;
#X connect 0 0 4 0;
#X connect 1 0 2 0;
#X connect 4 0 1 0;
#X restore 855 -77 pd misc;
#X obj 198 -38 s \$0-cancel;
#X obj 715 25 r \$0-cancel;
#X obj 742 99 s \$0-laser;
#N canvas 105 232 450 346 tables 0;
#X msg 127 81 \; \$0-x resize \$1 \; \$0-y resize \$1 \; \$0-length
resize \$1;
#X msg 7 81 \; \$0-x const 0 \; \$0-y const 0 \; \$0-length const 0
;
#X obj 7 42 t b f;
#X obj 328 72 tabwrite \$0-x;
#X obj 504 72 tabwrite \$0-length;
#X obj 416 72 tabwrite \$0-y;
#X obj 7 20 inlet;
#X obj 87 20 inlet;
#X obj 328 19 inlet;
#X obj 416 20 inlet;
#X obj 504 20 inlet;
#X obj 570 20 inlet;
#X obj 633 71 s \$0-id;
#X connect 2 0 1 0;
#X connect 2 1 0 0;
#X connect 6 0 2 0;
#X connect 7 0 0 0;
#X connect 8 0 3 0;
#X connect 9 0 5 0;
#X connect 10 0 4 0;
#X connect 11 0 3 1;
#X connect 11 0 5 1;
#X connect 11 0 4 1;
#X connect 11 0 12 0;
#X restore 274 -38 pd tables;
#X obj 357 -38 s \$0-run;
#X obj 415 -38 s \$0-pause;
#X obj 485 -38 s \$0-stop;
#N canvas 340 62 600 517 lasercontrol 0;
#X obj 57 20 inlet~;
#X obj 127 20 inlet~;
#X obj 57 106 snapshot~;
#X obj 57 128 t f f;
#X obj 57 170 select;
#X obj 57 215 f;
#X obj 127 106 snapshot~;
#X obj 127 128 t f f;
#X obj 127 170 select;
#X obj 127 215 f;
#X obj 127 237 t b f;
#X obj 57 340 change;
#X msg 57 193 0;
#X msg 90 193 1;
#X msg 127 193 0;
#X msg 160 193 1;
#X obj 57 318 |;
#X obj 197 43 metro 1.5;
#X obj 197 20 loadbang;
#X obj 57 372 outlet;
#X connect 0 0 2 0;
#X connect 1 0 6 0;
#X connect 2 0 3 0;
#X connect 3 0 4 1;
#X connect 3 1 4 0;
#X connect 4 0 12 0;
#X connect 4 1 13 0;
#X connect 5 0 16 0;
#X connect 6 0 7 0;
#X connect 7 0 8 1;
#X connect 7 1 8 0;
#X connect 8 0 14 0;
#X connect 8 1 15 0;
#X connect 9 0 10 0;
#X connect 10 0 16 0;
#X connect 10 1 16 1;
#X connect 11 0 19 0;
#X connect 12 0 5 0;
#X connect 13 0 5 0;
#X connect 14 0 9 0;
#X connect 15 0 9 0;
#X connect 16 0 11 0;
#X connect 17 0 2 0;
#X connect 17 0 6 0;
#X connect 18 0 17 0;
#X restore 341 269 pd lasercontrol;
#N canvas 554 61 667 685 audiofromstream 0;
#X msg 19 33 buffer 2;
#X obj 19 -8 loadbang;
#X obj 156 135 print;
#X obj 19 97 mrpeach/udpreceive~ 3000 2 2048;
#X obj 110 141 env~;
#X obj 19 197 outlet~;
#X obj 78 197 outlet~;
#X connect 0 0 3 0;
#X connect 1 0 0 0;
#X connect 3 0 5 0;
#X connect 3 1 6 0;
#X connect 3 2 4 0;
#X connect 3 3 2 0;
#X restore 70 91 pd audiofromstream;
#X obj 107 329 dac~;
#N canvas 761 156 643 579 audiofromtables 0;
#X obj 196 53 t b b;
#X msg 223 90 0;
#X obj 115 553 outlet~;
#X obj 203 553 outlet~;
#X obj 157 126 cup;
#X obj 157 148 moses;
#X obj 184 126 + 1;
#X obj 157 170 t f f f f;
#X obj 58 341 delay;
#X obj 208 196 tabread \$0-length;
#X obj 115 383 pack f f;
#X obj 203 383 pack f f;
#X obj 115 361 tabread \$0-x;
#X obj 203 361 tabread \$0-y;
#X obj 115 405 line~;
#X obj 203 405 line~;
#X msg 296 98 stop;
#X obj 130 52 bng 15 250 50 0 empty empty empty 17 7 0 10 -262144 -1
-1;
#X obj 148 28 bng 15 250 50 0 empty empty empty 17 7 0 10 -262144 -1
-1;
#X obj 56 151 /;
#X obj 56 173 s \$0-progress;
#X obj 329 225 r \$0-speed;
#X obj 208 248 /;
#X obj 58 315 f;
#X msg 58 289 bang;
#X floatatom 220 150 7 0 0 0 - - -, f 7;
#X obj 296 31 r \$0-stop;
#X obj 53 31 r \$0-resize;
#X obj 401 360 loadbang;
#X msg 401 412 -1;
#X msg 441 412 1;
#X obj 115 467 *~;
#X obj 115 509 *~;
#X obj 203 467 *~;
#X obj 203 509 *~;
#X obj 130 436 r \$0-xStep;
#X obj 218 436 r \$0-yStep;
#X obj 196 31 r \$0-run;
#X obj 366 156 loadbang;
#X msg 366 178 1;
#X connect 0 0 4 0;
#X connect 0 1 1 0;
#X connect 1 0 4 0;
#X connect 4 0 5 0;
#X connect 4 0 25 0;
#X connect 4 0 19 0;
#X connect 5 0 7 0;
#X connect 6 0 5 1;
#X connect 7 2 13 0;
#X connect 7 2 12 0;
#X connect 7 2 24 0;
#X connect 7 3 9 0;
#X connect 8 0 4 0;
#X connect 9 0 22 0;
#X connect 10 0 14 0;
#X connect 11 0 15 0;
#X connect 12 0 10 0;
#X connect 13 0 11 0;
#X connect 14 0 31 0;
#X connect 15 0 33 0;
#X connect 16 0 8 0;
#X connect 17 0 4 0;
#X connect 18 0 0 0;
#X connect 19 0 20 0;
#X connect 22 0 10 1;
#X connect 22 0 11 1;
#X connect 22 0 23 1;
#X connect 23 0 8 0;
#X connect 24 0 23 0;
#X connect 26 0 16 0;
#X connect 27 0 6 0;
#X connect 27 0 19 1;
#X connect 28 0 29 0;
#X connect 28 0 30 0;
#X connect 29 0 32 1;
#X connect 30 0 34 1;
#X connect 31 0 32 0;
#X connect 32 0 2 0;
#X connect 33 0 34 0;
#X connect 34 0 3 0;
#X connect 35 0 31 1;
#X connect 36 0 33 1;
#X connect 37 0 0 0;
#X connect 38 0 39 0;
#X connect 39 0 22 1;
#X restore 288 91 pd audiofromtables;
#X obj 549 -38 s \$0-xStep;
#X obj 619 -38 s \$0-yStep;
#X obj 18 -87 mrpeach/routeOSC /dsp /laser /ip /cancel /init /resize
/X /Y /L /ID /run /pause /stop /xStep /yStep /speed, f 115;
#X obj 888 151 r \$0-id;
#X msg 888 173 /id \$1;
#X connect 2 0 3 0;
#X connect 3 0 48 0;
#X connect 5 0 6 0;
#X connect 6 0 4 0;
#X connect 7 0 4 0;
#X connect 8 0 7 0;
#X connect 9 0 8 0;
#X connect 10 0 9 0;
#X connect 11 0 9 0;
#X connect 12 0 4 0;
#X connect 13 0 12 0;
#X connect 13 1 14 0;
#X connect 14 0 0 0;
#X connect 14 0 37 0;
#X connect 15 0 20 0;
#X connect 15 0 17 0;
#X connect 15 1 18 0;
#X connect 15 1 20 0;
#X connect 15 2 19 0;
#X connect 15 2 17 0;
#X connect 16 0 21 0;
#X connect 17 0 16 1;
#X connect 18 0 16 1;
#X connect 19 0 21 0;
#X connect 20 0 21 0;
#X connect 22 0 23 0;
#X connect 23 0 10 0;
#X connect 29 0 11 0;
#X connect 30 0 0 0;
#X connect 31 0 15 0;
#X connect 33 0 5 0;
#X connect 36 0 13 0;
#X connect 42 0 16 0;
#X connect 43 0 44 0;
#X connect 43 0 42 0;
#X connect 43 1 44 1;
#X connect 43 1 42 1;
#X connect 48 0 27 0;
#X connect 48 1 28 0;
#X connect 48 2 32 0;
#X connect 48 3 35 0;
#X connect 48 4 38 0;
#X connect 48 5 38 1;
#X connect 48 6 38 2;
#X connect 48 7 38 3;
#X connect 48 8 38 4;
#X connect 48 9 38 5;
#X connect 48 10 39 0;
#X connect 48 11 40 0;
#X connect 48 12 41 0;
#X connect 48 13 46 0;
#X connect 48 14 47 0;
#X connect 49 0 50 0;
#X connect 50 0 9 0;